<svg id="branding-strategy-small" xmlns="http://www.w3.org/2000/svg" width="381.27" height="200" viewBox="0 0 381.27 200">
  <defs>
    <style>
      .cls-1, .cls-4 {
        fill: #6c63ff;
      }

      .cls-1 {
        opacity: 0.1;
      }

      .cls-2 {
        opacity: 0.6;
      }

      .cls-3, .cls-8 {
        fill: none;
      }

      .cls-3 {
        stroke: #535461;
      }

      .cls-3, .cls-6, .cls-7, .cls-8 {
        stroke-miterlimit: 10;
      }

      .cls-3, .cls-7 {
        stroke-width: 2px;
      }

      .cls-5 {
        opacity: 0.25;
      }

      .cls-6, .cls-7 {
        fill: #fff;
      }

      .cls-6, .cls-7, .cls-8 {
        stroke: #33313f;
      }

      .cls-6, .cls-8 {
        stroke-width: 3px;
      }

      .cls-9 {
        fill: #33313f;
      }

      .cls-10 {
        fill: #65617d;
      }

      .cls-11 {
        fill: #ffd037;
      }

      .cls-12 {
        fill: #444053;
      }

      .cls-13 {
        fill: #9d9cb5;
      }
    </style>
  </defs>
  <path id="Path_293" data-name="Path 293" class="cls-1" d="M302.6,152.069c-23.474-.588-45.831-6.049-67.179-12.024s-42.5-12.6-65.409-15.762c-14.736-2.036-31.587-2.324-43.462,3.369-11.425,5.489-15.117,14.939-17.1,23.717-1.491,6.6-2.368,13.551,1.723,19.733,2.84,4.292,7.885,7.9,11.374,12.011,12.136,14.3,3.558,31.943-9.6,45.91-6.166,6.553-13.326,12.809-18.088,19.778s-6.964,14.965-2.8,22.081c4.131,7.058,13.971,12.349,24.631,16.074,21.646,7.568,47.151,9.732,72.036,10.958,55.065,2.716,110.427,1.54,165.637.363,20.435-.437,40.96-.878,61.06-3.155,11.16-1.265,22.687-3.27,30.79-8.117,10.286-6.151,12.836-16.568,5.945-24.279-11.563-12.937-43.524-16.149-51.616-30.035-4.45-7.641.12-16.152,6.583-23.241,13.87-15.2,37.115-28.542,38.341-45.92.842-11.938-10.333-23.889-27.612-29.538-18.113-5.918-43.227-5.176-56.581,4.624C347.5,148.7,323.322,152.586,302.6,152.069Z" transform="translate(-84.248 -108.771)"/>
  <g id="flowers" class="cls-2" transform="translate(37.81 18.742)">
    <path id="Path_294" data-name="Path 294" class="cls-3" d="M253.46,272.15s-9.971-17.66-24.983-22.749a30.739,30.739,0,0,1-15.545-11.643,51.6,51.6,0,0,1-4.592-8.259" transform="translate(-197.57 -201.773)"/>
    <path id="Path_295" data-name="Path 295" class="cls-4" d="M179.956,207.474c1.708,1.661,9.677,3.377,9.677,3.377s-1.955-7.91-3.667-9.572a4.316,4.316,0,1,0-6.01,6.2Z" transform="translate(-178.645 -183.011)"/>
    <path id="Path_296" data-name="Path 296" class="cls-4" d="M188.569,244.973c2.339.464,9.96-2.426,9.96-2.426s-5.941-5.578-8.28-6.043a4.317,4.317,0,0,0-1.679,8.469Z" transform="translate(-182.753 -206.183)"/>
    <path id="Path_297" data-name="Path 297" class="cls-4" d="M229.861,288.018c2.252-.78,7.374-7.12,7.374-7.12s-7.947-1.813-10.2-1.037a4.316,4.316,0,0,0,2.825,8.157Z" transform="translate(-207.633 -233.745)"/>
    <path id="Path_298" data-name="Path 298" class="cls-4" d="M272.62,312.281c2.354-.388,8.473-5.774,8.473-5.774s-7.522-3.134-9.876-2.746a4.317,4.317,0,0,0,1.4,8.52Z" transform="translate(-235.336 -249.079)"/>
    <path id="Path_299" data-name="Path 299" class="cls-4" d="M225.292,228.662c0,2.387-4.312,9.3-4.312,9.3s-4.32-6.891-4.32-9.3a4.316,4.316,0,0,1,8.632,0Z" transform="translate(-202.872 -198.491)"/>
    <path id="Path_300" data-name="Path 300" class="cls-4" d="M273.92,255.8c-.725,2.278-6.891,7.584-6.891,7.584s-2.053-7.889-1.342-10.156a4.317,4.317,0,1,1,8.241,2.579Z" transform="translate(-234.022 -214.964)"/>
    <path id="Path_301" data-name="Path 301" class="cls-4" d="M316.488,292.044c-.316,2.365-5.517,8.643-5.517,8.643s-3.359-7.428-3.039-9.793a4.316,4.316,0,1,1,8.556,1.15Z" transform="translate(-261.026 -238.515)"/>
    <path id="Path_302" data-name="Path 302" class="cls-5" d="M179.956,207.474c1.708,1.661,9.677,3.377,9.677,3.377s-1.955-7.91-3.667-9.572a4.316,4.316,0,1,0-6.01,6.2Z" transform="translate(-178.645 -183.011)"/>
    <path id="Path_303" data-name="Path 303" class="cls-5" d="M188.569,244.973c2.339.464,9.96-2.426,9.96-2.426s-5.941-5.578-8.28-6.043a4.317,4.317,0,0,0-1.679,8.469Z" transform="translate(-182.753 -206.183)"/>
    <path id="Path_304" data-name="Path 304" class="cls-5" d="M229.861,288.018c2.252-.78,7.374-7.12,7.374-7.12s-7.947-1.813-10.2-1.037a4.316,4.316,0,0,0,2.825,8.157Z" transform="translate(-207.633 -233.745)"/>
    <path id="Path_305" data-name="Path 305" class="cls-5" d="M272.62,312.281c2.354-.388,8.473-5.774,8.473-5.774s-7.522-3.134-9.876-2.746a4.317,4.317,0,0,0,1.4,8.52Z" transform="translate(-235.336 -249.079)"/>
    <path id="Path_306" data-name="Path 306" class="cls-5" d="M225.292,228.662c0,2.387-4.312,9.3-4.312,9.3s-4.32-6.891-4.32-9.3a4.316,4.316,0,0,1,8.632,0Z" transform="translate(-202.872 -198.491)"/>
    <path id="Path_307" data-name="Path 307" class="cls-5" d="M273.92,255.8c-.725,2.278-6.891,7.584-6.891,7.584s-2.053-7.889-1.342-10.156a4.317,4.317,0,1,1,8.241,2.579Z" transform="translate(-234.022 -214.964)"/>
    <path id="Path_308" data-name="Path 308" class="cls-5" d="M316.488,292.044c-.316,2.365-5.517,8.643-5.517,8.643s-3.359-7.428-3.039-9.793a4.316,4.316,0,1,1,8.556,1.15Z" transform="translate(-261.026 -238.515)"/>
    <path id="Path_309" data-name="Path 309" class="cls-3" d="M289,245.475s-1.959-20.188-13.623-30.924a30.742,30.742,0,0,1-9.51-16.949A51.6,51.6,0,0,1,265,188.19" transform="translate(-233.679 -175.446)"/>
    <path id="Path_310" data-name="Path 310" class="cls-4" d="M244.328,158.986c.892,2.212,7.479,7.011,7.479,7.011s1.422-8.027.53-10.239a4.317,4.317,0,0,0-8.008,3.228Z" transform="translate(-220.305 -153.054)"/>
    <path id="Path_311" data-name="Path 311" class="cls-4" d="M237.027,196.745c1.948,1.371,10.087,1.813,10.087,1.813s-3.17-7.508-5.121-8.879a4.316,4.316,0,0,0-4.965,7.062Z" transform="translate(-214.683 -175.894)"/>
    <path id="Path_312" data-name="Path 312" class="cls-4" d="M257.352,252.786c2.376.2,9.63-3.525,9.63-3.525s-6.529-4.878-8.9-5.078a4.317,4.317,0,1,0-.725,8.6Z" transform="translate(-226.285 -211.12)"/>
    <path id="Path_313" data-name="Path 313" class="cls-4" d="M286.225,292.183c2.31.6,10.087-1.846,10.087-1.846s-5.611-5.912-7.918-6.529a4.316,4.316,0,1,0-2.176,8.342Z" transform="translate(-245.01 -236.256)"/>
    <path id="Path_314" data-name="Path 314" class="cls-4" d="M277.168,196.734c-.965,2.176-7.711,6.754-7.711,6.754s-1.15-8.066-.185-10.246a4.317,4.317,0,0,1,7.9,3.493Z" transform="translate(-236.156 -177.026)"/>
    <path id="Path_315" data-name="Path 315" class="cls-4" d="M307.379,241.207C305.805,243,298,245.342,298,245.342s1.317-8.041,2.9-9.833a4.318,4.318,0,1,1,6.489,5.7Z" transform="translate(-254.71 -204.667)"/>
    <path id="Path_316" data-name="Path 316" class="cls-4" d="M333.891,291.624c-1.248,2.031-8.542,5.665-8.542,5.665s-.062-8.15,1.186-10.185a4.316,4.316,0,0,1,7.356,4.519Z" transform="translate(-272.139 -237.173)"/>
  </g>
  <path id="Path_317" data-name="Path 317" class="cls-6" d="M210.241,267.24s53.317,2.176,60.571,0c0,0-3.99,89.224-2.539,92.126,0,0-59.12,3.264-63.472,0S210.241,267.24,210.241,267.24Z" transform="translate(-156.794 -207.083)"/>
  <path id="Path_318" data-name="Path 318" class="cls-6" d="M243.76,313.24s24.664,39.172,33.006,42.8" transform="translate(-182.333 -236.398)"/>
  <path id="Path_319" data-name="Path 319" class="cls-6" d="M286.962,313.24s-23.575,30.829-27.2,41.348" transform="translate(-192.53 -236.398)"/>
  <path id="Path_320" data-name="Path 320" class="cls-6" d="M243.76,472.24" transform="translate(-182.333 -337.729)"/>
  <path id="Path_321" data-name="Path 321" class="cls-6" d="M274.589,472.24H245.936c-2.176,0-2.176,10.156-2.176,10.156h30.829Z" transform="translate(-182.333 -337.729)"/>
  <path id="Path_322" data-name="Path 322" class="cls-6" d="M488.131,265.257s51.141-2.539,60.571,0c0,0-3.99,89.224-2.539,92.126,0,0-65.344,5.11-63.472,0C486.68,346.5,488.131,265.257,488.131,265.257Z" transform="translate(-334.579 -205.1)"/>
  <path id="Path_323" data-name="Path 323" class="cls-6" d="M552.71,286s11.382,18.081,15.233,19.753" transform="translate(-379.227 -219.038)"/>
  <path id="Path_324" data-name="Path 324" class="cls-6" d="M572.647,286s-10.881,14.229-12.557,19.085" transform="translate(-383.931 -219.038)"/>
  <path id="Path_325" data-name="Path 325" class="cls-6" d="M557.868,372.24H519.422c-2.9,0-2.9,10.156-2.9,10.156h41.348Z" transform="translate(-356.163 -273.999)"/>
  <path id="Path_326" data-name="Path 326" class="cls-6" d="M561.879,461.24H533.226c-2.176,0-2.176,10.156-2.176,10.156h30.829Z" transform="translate(-365.423 -330.719)"/>
  <path id="Path_327" data-name="Path 327" class="cls-6" d="M557.868,412.942c2.92,0-35.044,3.264-38.446,0-1.792-1.716-2.9,10.156-2.9,10.156h41.348Z" transform="translate(-356.163 -299.831)"/>
  <path id="Path_328" data-name="Path 328" class="cls-6" d="M488.87,367.624l2.176,2.176,3.99-5.44" transform="translate(-311.557 -232.207)"/>
  <path id="Path_329" data-name="Path 329" class="cls-6" d="M756.911,269.24s50.778,6.166,60.571,0c0,0-3.99,89.224-2.539,92.126,0,0-67.39,3.776-63.472,0C761.264,351.936,756.911,269.24,756.911,269.24Z" transform="translate(-505.793 -208.357)"/>
  <path id="Path_330" data-name="Path 330" class="cls-6" d="M786.21,312.74s7.316,11.606,9.793,12.694" transform="translate(-528.037 -236.08)"/>
  <path id="Path_331" data-name="Path 331" class="cls-6" d="M799.055,312.74S792.063,321.9,791,325.007" transform="translate(-531.089 -236.08)"/>
  <path id="Path_332" data-name="Path 332" class="cls-6" d="M828.868,378.74H790.422c-2.9,0-2.9,5.375-2.9,5.375h41.348Z" transform="translate(-528.872 -278.142)"/>
  <path id="Path_333" data-name="Path 333" class="cls-6" d="M843.73,422.74h20.025c2.9,0,2.9,5.375,2.9,5.375h.087" transform="translate(-564.695 -306.183)"/>
  <path id="Path_334" data-name="Path 334" class="cls-6" d="M828.868,400.273c2.92,0-35.044,1.726-38.446,0-1.792-.907-2.9,5.372-2.9,5.372h41.348Z" transform="translate(-528.872 -291.807)"/>
  <path id="Path_335" data-name="Path 335" class="cls-6" d="M767.6,288s56.291,4.16,59.911,1.4" transform="translate(-516.177 -220.313)"/>
  <path id="Path_336" data-name="Path 336" class="cls-7" d="M913.25,280.47a6.584,6.584,0,0,1,2.339.189,2.615,2.615,0,0,0,2.231-.439" transform="translate(-609 -215.355)"/>
  <path id="Path_337" data-name="Path 337" class="cls-7" d="M912.18,284.85a20.759,20.759,0,0,0,4.926.272" transform="translate(-608.318 -218.305)"/>
  <path id="Path_338" data-name="Path 338" class="cls-7" d="M912.16,289.611a37.392,37.392,0,0,1,4.211-.471" transform="translate(-608.305 -221.039)"/>
  <path id="Path_339" data-name="Path 339" class="cls-7" d="M774.542,277.425a4.784,4.784,0,0,0,2.176.439,2.027,2.027,0,0,0,1.356-.294,2.116,2.116,0,0,0,.515-1.7,1.276,1.276,0,0,0-.08-.548,1.09,1.09,0,0,0-.388-.406,4.362,4.362,0,0,0-3.609-.453C773.076,275.042,773.308,276.754,774.542,277.425Z" transform="translate(-519.952 -211.551)"/>
  <path id="Path_340" data-name="Path 340" class="cls-6" d="M793.023,306.48c-.21,2.684.432,5.35.863,8.008a52.33,52.33,0,0,1,.646,10.156q-8.585.522-17.192.25c.533.018.4-12.129.45-13.246.065-1.429-.239-3.888,1.418-4.425,1.741-.569,4.193-.218,6.021-.3Q789.124,306.737,793.023,306.48Z" transform="translate(-522.384 -232.09)"/>
  <path id="Path_341" data-name="Path 341" class="cls-8" d="M411.76,381.673s14.145-.725,16.684,0" transform="translate(-289.4 -279.806)"/>
  <path id="Path_342" data-name="Path 342" class="cls-8" d="M454.574,361.24s6.166,6.166,6.166,7.617-7.979,6.529-7.979,6.529" transform="translate(-315.529 -266.989)"/>
  <path id="Path_343" data-name="Path 343" class="cls-8" d="M681.76,381.673s14.145-.725,16.684,0" transform="translate(-461.471 -279.806)"/>
  <path id="Path_344" data-name="Path 344" class="cls-8" d="M724.574,361.24s6.166,6.166,6.166,7.617-7.979,6.529-7.979,6.529" transform="translate(-487.6 -266.989)"/>
  <ellipse id="Ellipse_40" data-name="Ellipse 40" class="cls-1" cx="7.845" cy="7.845" rx="7.845" ry="7.845" transform="translate(129.009 0)"/>
  <ellipse id="Ellipse_41" data-name="Ellipse 41" class="cls-1" cx="7.845" cy="7.845" rx="7.845" ry="7.845" transform="translate(248.376 10.83)"/>
  <ellipse id="Ellipse_42" data-name="Ellipse 42" class="cls-1" cx="7.845" cy="7.845" rx="7.845" ry="7.845" transform="translate(332.214 127.054)"/>
  <ellipse id="Ellipse_43" data-name="Ellipse 43" class="cls-1" cx="13.148" cy="13.148" rx="13.148" ry="13.148" transform="translate(354.974 86.776)"/>
  <ellipse id="Ellipse_44" data-name="Ellipse 44" class="cls-1" cx="13.148" cy="13.148" rx="13.148" ry="13.148" transform="translate(337.568 150.582)"/>
  <ellipse id="Ellipse_45" data-name="Ellipse 45" class="cls-1" cx="13.148" cy="13.148" rx="13.148" ry="13.148" transform="translate(0 109.47)"/>
  <path id="Path_346" data-name="Path 346" class="cls-9" d="M765.239,322.075l1.219-1.135-1.088-.04-.569.87Z" transform="translate(-487.408 -204.51)"/>
  <path id="Path_347" data-name="Path 347" class="cls-10" d="M741.84,331.16l1.291-1.658.286-.3,3.953-4.138,1.346-1.411.631-.073.907-.9.533.468-.881,1.03.018.54-1.378,1.494-3.881,4.211-.25.268-1.56,1.443Z" transform="translate(-472.775 -205.644)"/>
  <path id="Path_348" data-name="Path 348" class="cls-9" d="M746.19,333.4l3.953-4.138,1.175,1.146-3.881,4.211Z" transform="translate(-475.547 -209.837)"/>
  <path id="Path_368" data-name="Path 368" class="cls-4" d="M980.895,676.92s2.151,2.815-.99,7.062-5.738,7.838-4.69,10.478c0,0,4.744-7.889,8.6-7.979S985.142,681.664,980.895,676.92Z" transform="translate(-648.339 -512.653)"/>
  <path id="Path_370" data-name="Path 370" class="cls-11" d="M1001.447,685.695c0,.99-.112,1.792-.25,1.792s-.247-.8-.247-1.792.138-.526.276-.526S1001.447,684.7,1001.447,685.695Z" transform="translate(-664.891 -517.841)"/>
  <path id="Path_371" data-name="Path 371" class="cls-11" d="M1003.116,688.846c-.87.471-1.628.758-1.694.638s.588-.6,1.451-1.088.53-.127.595,0S1003.986,688.37,1003.116,688.846Z" transform="translate(-665.189 -519.809)"/>
  <path id="Path_372" data-name="Path 372" class="cls-4" d="M951.515,676.92s-2.151,2.815.994,7.062,5.734,7.831,4.686,10.478c0,0-4.744-7.889-8.6-7.979S947.257,681.664,951.515,676.92Z" transform="translate(-630.308 -512.653)"/>
  <path id="Path_374" data-name="Path 374" class="cls-11" d="M949,685.695c0,.99.109,1.792.247,1.792s.247-.8.247-1.792-.138-.526-.276-.526S949,684.7,949,685.695Z" transform="translate(-631.783 -517.841)"/>
  <path id="Path_375" data-name="Path 375" class="cls-11" d="M944.233,688.846c.87.471,1.628.758,1.694.638s-.588-.6-1.451-1.088-.526-.127-.595,0S943.366,688.37,944.233,688.846Z" transform="translate(-628.409 -519.809)"/>
  <path id="Path_376" data-name="Path 376" class="cls-12" d="M966.859,712.517l-.105.878-.152,1.24-.062.515-.152,1.244-.065.515-.149,1.24-1.723,14.109c-.152,1.259-2.212,2.241-4.693,2.241h-8.944c-2.481,0-4.537-.983-4.69-2.241L944.4,718.149l-.152-1.24-.062-.515-.156-1.244-.062-.515-.149-1.24-.109-.878c-.087-.725,1.026-1.317,2.43-1.317h18.287C965.833,711.2,966.95,711.8,966.859,712.517Z" transform="translate(-628.41 -534.5)"/>
  <path id="Path_377" data-name="Path 377" class="cls-13" d="M892.553,615.87l-.152,1.237H869.769l-.149-1.237Z" transform="translate(-554.209 -436.975)"/>
  <path id="Path_378" data-name="Path 378" class="cls-13" d="M892.716,620.71l-.152,1.24h-22.2l-.152-1.24Z" transform="translate(-554.586 -440.06)"/>
  <path id="Path_379" data-name="Path 379" class="cls-13" d="M892.874,625.56l-.149,1.24H870.952l-.152-1.24Z" transform="translate(-554.961 -443.151)"/>
</svg>
