<svg xmlns="http://www.w3.org/2000/svg" width="679.112" height="460.964" viewBox="0 0 679.112 460.964">
  <defs>
    <style>
      .cls-1 {
        fill: #eae6ff;
      }

      .cls-2 {
        fill: #cdccff;
      }

      .cls-3 {
        fill: #d7d7ff;
      }

      .cls-4 {
        fill: #bdc6f9;
      }

      .cls-5 {
        fill: #8784ef;
      }

      .cls-6 {
        fill: #9aa3f4;
      }

      .cls-33, .cls-7 {
        fill: none;
      }

      .cls-7 {
        stroke: #9aa3f4;
        stroke-miterlimit: 10;
        stroke-width: 1.5px;
      }

      .cls-8 {
        fill: #4a41a3;
      }

      .cls-9 {
        fill: #5851bc;
      }

      .cls-10, .cls-23 {
        fill: #c4c3fc;
      }

      .cls-11 {
        opacity: 0.35;
      }

      .cls-12, .cls-35 {
        fill: #fff;
      }

      .cls-13 {
        opacity: 0.25;
      }

      .cls-14 {
        fill: #fca70c;
      }

      .cls-15 {
        fill: #b1affd;
      }

      .cls-16 {
        opacity: 0.15;
      }

      .cls-17 {
        opacity: 0.26;
      }

      .cls-18 {
        opacity: 0.62;
      }

      .cls-19 {
        fill: #d5dbda;
      }

      .cls-20 {
        fill: #efefef;
      }

      .cls-21 {
        fill: #7a7ae5;
      }

      .cls-22 {
        fill: #cfcfff;
      }

      .cls-23 {
        opacity: 0.55;
      }

      .cls-24 {
        fill: #a4a4f7;
      }

      .cls-25 {
        fill: #a2a7f4;
      }

      .cls-26 {
        fill: #9090f4;
      }

      .cls-27, .cls-35 {
        opacity: 0.45;
      }

      .cls-28 {
        fill: #e2deff;
      }

      .cls-29 {
        fill: #f9c110;
      }

      .cls-30 {
        fill: #8484ef;
      }

      .cls-31 {
        fill: #c4c4f7;
      }

      .cls-32 {
        fill: #bbbbf2;
      }

      .cls-33 {
        stroke: #c4c4f7;
        stroke-linecap: round;
        stroke-linejoin: round;
        stroke-width: 0.75px;
      }

      .cls-34 {
        fill: #d5d2ff;
      }

      .cls-36 {
        fill: #a9adff;
      }

      .cls-37 {
        opacity: 0.3;
      }

      .cls-38 {
        fill: #3939d3;
      }

      .cls-39 {
        fill: #fefefe;
      }
    </style>
  </defs>
  <g id="corporate-branding-large" transform="translate(17.715 0.004)">
    <g id="Layer_2" data-name="Layer 2" transform="translate(-17.715 -0.004)">
      <g id="Layer_1" data-name="Layer 1">
        <path id="Path_592" data-name="Path 592" class="cls-1" d="M592.6,275.822c-10.334-28.814-26.617-37.585-42.1-56.072-18.915-22.583-31.659-39-26.747-68.031,8.023-47.454,11.44-165.806-114.173-150.339-45.021,5.545-80.607,40.056-106.493,74.5-22.026,29.31-61.647,31.9-93.543,38.729C170.359,123,130.44,135.68,94.19,154.266,19.524,192.537-2.777,247.549.266,317.937,1.189,339.208,4.2,372.7,40.124,411.9c48.483,52.907,118.978,59.992,203.75,35.693,19.41-5.56,37.76-14.285,56.85-20.852a268.635,268.635,0,0,1,61.365-13.324c48.7-4.706,99.194,3.813,145.916-10.731a154.062,154.062,0,0,0,65.262-40.475C595.583,338.834,603.522,306.245,592.6,275.822Z" transform="translate(40.828 0.004)"/>
        <path id="Path_593" data-name="Path 593" class="cls-2" d="M52.61,509.186c0,11.974,152.015,21.7,339.569,21.7s339.543-9.726,339.543-21.7S579.694,487.5,392.219,487.5,52.61,497.226,52.61,509.186Z" transform="translate(-52.61 -140.965)"/>
        <path id="Path_594" data-name="Path 594" class="cls-2" d="M251.49,527.647c0,7.505-38.6,13.577-86.207,13.577S79.09,535.152,79.09,527.647s38.589-13.577,86.194-13.577S251.49,520.156,251.49,527.647Z" transform="translate(65.688 -171.826)"/>
        <ellipse id="Ellipse_83" data-name="Ellipse 83" class="cls-2" cx="144.628" cy="10.738" rx="144.628" ry="10.738" transform="translate(313.832 347.922)"/>
        <path id="Path_595" data-name="Path 595" class="cls-3" d="M79.726,390.655,74.18,468.436h74.194l-5.113-77.926Z" transform="translate(64.145 -116.105)"/>
        <path id="Path_596" data-name="Path 596" class="cls-1" d="M89.6,396.343h0a2.379,2.379,0,0,1,2.537-2.156h0a2.182,2.182,0,1,1,0,4.3h0A2.379,2.379,0,0,1,89.6,396.343Zm2.55-1.314a1.314,1.314,0,1,0,0,2.629h0a1.314,1.314,0,1,0,0-2.629ZM90.007,396.343Z" transform="translate(68.992 -94.74)"/>
        <path id="Path_597" data-name="Path 597" class="cls-1" d="M108.85,396.3h0a1.971,1.971,0,0,1,.591-1.393,2.746,2.746,0,0,1,1.945-.762h0a2.366,2.366,0,0,1,2.537,2.142,2,2,0,0,1-.775,1.551,2.747,2.747,0,0,1-1.761.6h0A2.379,2.379,0,0,1,108.85,396.3Zm2.537-1.314a1.945,1.945,0,0,0-1.314.526,1.143,1.143,0,0,0-.355.8h0a1.577,1.577,0,0,0,1.722,1.314h0a2.1,2.1,0,0,0,1.249-.421,1.222,1.222,0,0,0,.473-.92,1.577,1.577,0,0,0-1.735-1.314Z" transform="translate(75.043 -94.72)"/>
        <path id="Path_598" data-name="Path 598" class="cls-1" d="M103.671,411.668h.71c4.653-.158,8.2-1.656,10.515-4.442,3.877-4.64,3-11.093,2.957-11.369a.823.823,0,0,0-1.63.237c0,.066.815,6.02-2.629,10.081-2.037,2.418-5.178,3.719-9.332,3.851s-7.018-.92-9.016-3.141c-3.628-4.035-2.734-10.659-2.721-10.738a.815.815,0,0,0-.7-.92.841.841,0,0,0-.933.7c0,.3-1.012,7.439,3.115,12.052C96.324,410.419,99.518,411.668,103.671,411.668Z" transform="translate(69.365 -98.403)"/>
        <path id="Path_599" data-name="Path 599" class="cls-4" d="M107.069,407.245l-8.859,57.83,80.555-.184L170.6,407.1Z" transform="translate(71.698 -114.291)"/>
        <path id="Path_600" data-name="Path 600" class="cls-5" d="M86.157,481.5a16.337,16.337,0,1,0,16.337,16.337A16.337,16.337,0,0,0,86.157,481.5Zm0,23.921a7.584,7.584,0,1,1,5.388-2.207,7.584,7.584,0,0,1-5.388,2.207Z" transform="translate(62.775 -125.662)"/>
        <path id="Path_601" data-name="Path 601" class="cls-6" d="M84.117,481.5a16.337,16.337,0,1,0,16.337,16.337A16.337,16.337,0,0,0,84.117,481.5Zm0,23.921a7.571,7.571,0,1,1,5.392-2.2A7.584,7.584,0,0,1,84.117,505.421Z" transform="translate(62.133 -125.662)"/>
        <path id="Path_602" data-name="Path 602" class="cls-5" d="M156.4,481.5a16.337,16.337,0,1,0,16.337,16.337A16.337,16.337,0,0,0,156.4,481.5Zm0,23.921a7.571,7.571,0,1,1,5.383-2.208,7.584,7.584,0,0,1-5.383,2.208Z" transform="translate(5.056 -125.662)"/>
        <path id="Path_603" data-name="Path 603" class="cls-6" d="M154.344,481.5a16.337,16.337,0,1,0,16.35,16.337,16.337,16.337,0,0,0-16.35-16.337Zm0,23.921a7.584,7.584,0,1,1,5.388-2.207A7.583,7.583,0,0,1,154.344,505.421Z" transform="translate(5.577 -125.662)"/>
        <path id="Path_604" data-name="Path 604" class="cls-7" d="M268.168,342H219.131a14.97,14.97,0,0,0-12.7,7.045L176.77,396.689" transform="translate(-10.624 -95.11)"/>
        <path id="Path_605" data-name="Path 605" class="cls-7" d="M81.931,472.825H191.638a11.829,11.829,0,0,0,11.737-10.015l11.356-70.816a11.895,11.895,0,0,0-11.75-13.774H70.575a11.829,11.829,0,0,0-11.737,13.774L70.181,462.81A11.908,11.908,0,0,0,81.931,472.825Z" transform="translate(59.272 -117.965)"/>
        <line id="Line_20" data-name="Line 20" class="cls-7" y2="94.605" transform="translate(196.05 260.255)"/>
        <line id="Line_21" data-name="Line 21" class="cls-7" x1="145.154" transform="translate(123.473 315.912)"/>
        <line id="Line_22" data-name="Line 22" class="cls-7" x1="9.384" y2="94.605" transform="translate(166.274 260.255)"/>
        <line id="Line_23" data-name="Line 23" class="cls-7" x2="8.675" y2="94.605" transform="translate(154.886 260.255)"/>
        <path id="Path_606" data-name="Path 606" class="cls-7" d="M199.465,446.92l17.783,26.392a10.83,10.83,0,0,1-8.99,16.876H62.88" transform="translate(60.593 -120.263)"/>
        <rect id="Rectangle_137" data-name="Rectangle 137" class="cls-8" width="150.49" height="40.481" transform="translate(270.015 334.621)"/>
        <rect id="Rectangle_138" data-name="Rectangle 138" class="cls-9" width="521.696" height="375.319" rx="9.39" transform="translate(80.501 48.612)"/>
        <rect id="Rectangle_139" data-name="Rectangle 139" class="cls-10" width="490.967" height="325.624" rx="5.77" transform="translate(96.292 72.625)"/>
        <path id="Path_607" data-name="Path 607" class="cls-9" d="M303.384,484.6h260.6a9.621,9.621,0,0,1,9.621,9.621V510.1H293.75v-15.9A9.621,9.621,0,0,1,303.384,484.6Z" transform="translate(-89.374 -135.42)"/>
        <g id="Group_35" data-name="Group 35" class="cls-11" transform="translate(188.055 111.879)">
          <rect id="Rectangle_140" data-name="Rectangle 140" class="cls-12" width="343.526" height="230.914" rx="11.45" transform="translate(0)"/>
        </g>
        <g id="Group_40" data-name="Group 40" class="cls-13" transform="translate(188.065 115.9)">
          <rect id="Rectangle_141" data-name="Rectangle 141" class="cls-14" width="14.97" height="37.563" transform="translate(32.648 168.681)"/>
          <rect id="Rectangle_142" data-name="Rectangle 142" class="cls-15" width="14.97" height="70.54" transform="translate(66.373 135.704)"/>
          <rect id="Rectangle_143" data-name="Rectangle 143" class="cls-14" width="14.97" height="63.245" transform="translate(100.086 142.999)"/>
          <rect id="Rectangle_144" data-name="Rectangle 144" class="cls-15" width="14.97" height="98.969" transform="translate(133.812 107.288)"/>
          <g id="Group_36" data-name="Group 36" class="cls-16" transform="translate(66.373 135.704)">
            <rect id="Rectangle_145" data-name="Rectangle 145" class="cls-17" width="6.874" height="70.54"/>
          </g>
          <g id="Group_37" data-name="Group 37" class="cls-16" transform="translate(32.648 168.681)">
            <rect id="Rectangle_146" data-name="Rectangle 146" class="cls-17" width="6.874" height="37.563"/>
          </g>
          <g id="Group_38" data-name="Group 38" class="cls-18" transform="translate(133.812 107.288)">
            <rect id="Rectangle_147" data-name="Rectangle 147" class="cls-17" width="6.874" height="98.969"/>
          </g>
          <g id="Group_39" data-name="Group 39" class="cls-16" transform="translate(100.086 142.999)">
            <rect id="Rectangle_148" data-name="Rectangle 148" class="cls-17" width="6.874" height="63.245"/>
          </g>
          <path id="Path_608" data-name="Path 608" class="cls-19" d="M453.9,407.384H319.97V264.78h2.05V405.347H453.9Z" transform="translate(-297.206 -190.797)"/>
          <path id="Path_609" data-name="Path 609" class="cls-19" d="M330.767,339l-1.367-1.511,35.04-31.465,32.451,7.058,35.132-39.128,1.525,1.367-35.934,40.008-32.6-7.084Z" transform="translate(-294.242 -187.914)"/>
          <path id="Path_610" data-name="Path 610" class="cls-19" d="M413.1,282.48l-9.91-9.5,12.788-3.417Z" transform="translate(-271.048 -189.294)"/>
          <rect id="Rectangle_149" data-name="Rectangle 149" class="cls-15" width="10.278" height="10.278" transform="translate(169.377 166.013)"/>
          <rect id="Rectangle_150" data-name="Rectangle 150" class="cls-14" width="10.278" height="10.278" transform="translate(169.377 184.019)"/>
          <rect id="Rectangle_151" data-name="Rectangle 151" class="cls-20" width="32.569" height="5.836" transform="translate(182.481 188.461)"/>
          <rect id="Rectangle_152" data-name="Rectangle 152" class="cls-20" width="32.569" height="5.836" transform="translate(182.481 170.455)"/>
          <rect id="Rectangle_153" data-name="Rectangle 153" class="cls-15" width="10.278" height="10.278" transform="translate(229.81 166.013)"/>
          <rect id="Rectangle_154" data-name="Rectangle 154" class="cls-14" width="10.278" height="10.278" transform="translate(229.81 184.019)"/>
          <rect id="Rectangle_155" data-name="Rectangle 155" class="cls-20" width="32.569" height="5.836" transform="translate(242.914 188.461)"/>
          <rect id="Rectangle_156" data-name="Rectangle 156" class="cls-20" width="32.569" height="5.836" transform="translate(242.914 170.455)"/>
          <rect id="Rectangle_157" data-name="Rectangle 157" class="cls-15" width="10.278" height="10.278" transform="translate(284.236 166.013)"/>
          <rect id="Rectangle_158" data-name="Rectangle 158" class="cls-14" width="10.278" height="10.278" transform="translate(284.236 184.019)"/>
          <rect id="Rectangle_159" data-name="Rectangle 159" class="cls-20" width="21.437" height="5.836" transform="translate(297.34 188.461)"/>
          <rect id="Rectangle_160" data-name="Rectangle 160" class="cls-20" width="21.437" height="5.836" transform="translate(297.34 170.455)"/>
          <rect id="Rectangle_161" data-name="Rectangle 161" class="cls-20" width="147.481" height="2.681" transform="translate(171.296 67.832)"/>
          <rect id="Rectangle_162" data-name="Rectangle 162" class="cls-20" width="296.013" height="6.138" transform="translate(22.764 34.922)"/>
          <rect id="Rectangle_163" data-name="Rectangle 163" class="cls-20" width="147.914" height="2.681" transform="translate(170.849 76.165)"/>
          <rect id="Rectangle_164" data-name="Rectangle 164" class="cls-20" width="147.914" height="2.681" transform="translate(170.849 59.486)"/>
          <rect id="Rectangle_165" data-name="Rectangle 165" class="cls-20" width="147.914" height="2.681" transform="translate(170.849 84.511)"/>
          <rect id="Rectangle_166" data-name="Rectangle 166" class="cls-20" width="147.914" height="2.681" transform="translate(170.849 92.844)"/>
          <rect id="Rectangle_167" data-name="Rectangle 167" class="cls-20" width="147.914" height="2.681" transform="translate(170.849 101.177)"/>
          <rect id="Rectangle_168" data-name="Rectangle 168" class="cls-20" width="147.914" height="2.681" transform="translate(170.849 109.523)"/>
          <rect id="Rectangle_169" data-name="Rectangle 169" class="cls-20" width="147.914" height="2.681" transform="translate(170.849 117.856)"/>
          <rect id="Rectangle_170" data-name="Rectangle 170" class="cls-20" width="147.914" height="2.681" transform="translate(170.849 126.202)"/>
          <rect id="Rectangle_171" data-name="Rectangle 171" class="cls-20" width="129.816" height="2.681" transform="translate(188.961 134.534)"/>
          <path id="Path_611" data-name="Path 611" class="cls-21" d="M631.127,208.49H317.7a15.049,15.049,0,0,0-15.049,15.049v13.143h343.5V223.539A15.049,15.049,0,0,0,631.127,208.49Z" transform="translate(-302.65 -208.49)"/>
          <path id="Path_612" data-name="Path 612" class="cls-22" d="M532.491,220.657a4.337,4.337,0,1,1-1.275-3.072,4.351,4.351,0,0,1,1.275,3.072Z" transform="translate(-233.14 -206.029)"/>
          <circle id="Ellipse_84" data-name="Ellipse 84" class="cls-22" cx="4.337" cy="4.337" r="4.337" transform="translate(308.354 10.291)"/>
          <circle id="Ellipse_85" data-name="Ellipse 85" class="cls-22" cx="4.337" cy="4.337" r="4.337" transform="translate(326.045 10.291)"/>
        </g>
        <rect id="Rectangle_172" data-name="Rectangle 172" class="cls-23" width="343.526" height="230.914" rx="11.45" transform="translate(154.28 132.732)"/>
        <rect id="Rectangle_173" data-name="Rectangle 173" class="cls-12" width="343.526" height="230.914" rx="11.45" transform="translate(156.858 129.061)"/>
        <rect id="Rectangle_174" data-name="Rectangle 174" class="cls-14" width="14.97" height="37.563" transform="translate(239.543 271.217)"/>
        <rect id="Rectangle_175" data-name="Rectangle 175" class="cls-15" width="14.97" height="70.54" transform="translate(258.904 243.701)"/>
        <rect id="Rectangle_176" data-name="Rectangle 176" class="cls-14" width="14.97" height="63.245" transform="translate(278.266 249.745)"/>
        <rect id="Rectangle_177" data-name="Rectangle 177" class="cls-15" width="14.97" height="98.969" transform="translate(297.62 220.401)"/>
        <g id="Group_41" data-name="Group 41" class="cls-16" transform="translate(260.185 243.701)">
          <rect id="Rectangle_178" data-name="Rectangle 178" class="cls-17" width="6.874" height="70.54"/>
        </g>
        <g id="Group_42" data-name="Group 42" class="cls-16" transform="translate(240.71 271.217)">
          <rect id="Rectangle_179" data-name="Rectangle 179" class="cls-17" width="6.874" height="37.563"/>
        </g>
        <g id="Group_43" data-name="Group 43" class="cls-18" transform="translate(299.128 220.401)">
          <rect id="Rectangle_180" data-name="Rectangle 180" class="cls-17" width="6.874" height="98.969"/>
        </g>
        <g id="Group_44" data-name="Group 44" class="cls-16" transform="translate(279.66 249.745)">
          <rect id="Rectangle_181" data-name="Rectangle 181" class="cls-17" width="6.874" height="63.245"/>
        </g>
        <path id="Path_613" data-name="Path 613" class="cls-19" d="M389.77,436.359H255.84V306.49h2.05V434.321H389.77Z" transform="translate(-40.993 -105.777)"/>
        <path id="Path_614" data-name="Path 614" class="cls-19" d="M266.637,371.016,265.27,369.5l35.04-31.465,32.451,7.058,35.132-39.127,1.525,1.367-35.934,40.008L300.9,340.261Z" transform="translate(-38.595 -87.664)"/>
        <path id="Path_615" data-name="Path 615" class="cls-19" d="M348.97,314.5l-9.91-9.5,12.8-3.417Z" transform="translate(-41.994 -74.319)"/>
        <rect id="Rectangle_182" data-name="Rectangle 182" class="cls-15" width="10.278" height="10.278" transform="translate(318.984 277.116)"/>
        <rect id="Rectangle_183" data-name="Rectangle 183" class="cls-14" width="10.278" height="10.278" transform="translate(318.984 287.466)"/>
        <rect id="Rectangle_184" data-name="Rectangle 184" class="cls-20" width="32.569" height="5.836" transform="translate(321.832 291.228)"/>
        <rect id="Rectangle_185" data-name="Rectangle 185" class="cls-20" width="32.569" height="5.836" transform="translate(321.832 280.835)"/>
        <rect id="Rectangle_186" data-name="Rectangle 186" class="cls-15" width="10.278" height="10.278" transform="translate(353.796 277.116)"/>
        <rect id="Rectangle_187" data-name="Rectangle 187" class="cls-14" width="10.278" height="10.278" transform="translate(353.796 287.466)"/>
        <rect id="Rectangle_188" data-name="Rectangle 188" class="cls-20" width="32.569" height="5.836" transform="translate(356.071 291.228)"/>
        <rect id="Rectangle_189" data-name="Rectangle 189" class="cls-20" width="32.569" height="5.836" transform="translate(356.071 280.835)"/>
        <rect id="Rectangle_190" data-name="Rectangle 190" class="cls-15" width="10.278" height="10.278" transform="translate(385.149 277.116)"/>
        <rect id="Rectangle_191" data-name="Rectangle 191" class="cls-14" width="10.278" height="10.278" transform="translate(385.149 287.466)"/>
        <rect id="Rectangle_192" data-name="Rectangle 192" class="cls-20" width="21.437" height="5.836" transform="translate(389.831 291.228)"/>
        <rect id="Rectangle_193" data-name="Rectangle 193" class="cls-20" width="21.437" height="5.836" transform="translate(389.831 280.835)"/>
        <rect id="Rectangle_194" data-name="Rectangle 194" class="cls-20" width="147.481" height="2.681" transform="translate(288.123 222.251)"/>
        <rect id="Rectangle_195" data-name="Rectangle 195" class="cls-20" width="296.013" height="6.138" transform="translate(179.002 202.552)"/>
        <rect id="Rectangle_196" data-name="Rectangle 196" class="cls-20" width="147.914" height="2.681" transform="translate(287.785 227.074)"/>
        <rect id="Rectangle_197" data-name="Rectangle 197" class="cls-20" width="147.914" height="2.681" transform="translate(287.785 217.419)"/>
        <rect id="Rectangle_198" data-name="Rectangle 198" class="cls-20" width="147.914" height="2.681" transform="translate(287.785 231.905)"/>
        <rect id="Rectangle_199" data-name="Rectangle 199" class="cls-20" width="147.914" height="2.681" transform="translate(287.785 236.729)"/>
        <rect id="Rectangle_200" data-name="Rectangle 200" class="cls-20" width="147.914" height="2.681" transform="translate(287.785 241.552)"/>
        <rect id="Rectangle_201" data-name="Rectangle 201" class="cls-20" width="147.914" height="2.681" transform="translate(287.785 246.384)"/>
        <rect id="Rectangle_202" data-name="Rectangle 202" class="cls-20" width="147.914" height="2.681" transform="translate(287.785 251.207)"/>
        <rect id="Rectangle_203" data-name="Rectangle 203" class="cls-20" width="147.914" height="2.681" transform="translate(287.785 256.038)"/>
        <rect id="Rectangle_204" data-name="Rectangle 204" class="cls-20" width="129.816" height="2.681" transform="translate(301.966 260.862)"/>
        <path id="Path_616" data-name="Path 616" class="cls-24" d="M567,240.51H253.609a15.062,15.062,0,0,0-15.089,15.1v13.143H582.059V255.612A15.062,15.062,0,0,0,567,240.51Z" transform="translate(-81.665 -61.967)"/>
        <path id="Path_617" data-name="Path 617" class="cls-22" d="M468.361,252.677a4.35,4.35,0,1,1-4.337-4.337,4.35,4.35,0,0,1,4.337,4.337Z" transform="translate(-70.421 -60.451)"/>
        <path id="Path_618" data-name="Path 618" class="cls-22" d="M481.821,252.677a4.35,4.35,0,1,1-4.337-4.337,4.35,4.35,0,0,1,4.337,4.337Z" transform="translate(-73.679 -60.451)"/>
        <path id="Path_619" data-name="Path 619" class="cls-22" d="M495.281,252.677a4.35,4.35,0,1,1-4.337-4.337A4.351,4.351,0,0,1,495.281,252.677Z" transform="translate(-76.936 -60.451)"/>
        <rect id="Rectangle_205" data-name="Rectangle 205" class="cls-25" width="202.84" height="234.568" rx="6.95" transform="translate(372.846 126.931)"/>
        <rect id="Rectangle_206" data-name="Rectangle 206" class="cls-26" width="171.546" height="48.183" rx="1.77" transform="translate(391.614 268.236)"/>
        <rect id="Rectangle_207" data-name="Rectangle 207" class="cls-26" width="44.109" height="30.584" rx="1.77" transform="translate(480.439 309.998)"/>
        <rect id="Rectangle_208" data-name="Rectangle 208" class="cls-26" width="44.109" height="30.584" rx="1.77" transform="translate(504.01 309.998)"/>
        <rect id="Rectangle_209" data-name="Rectangle 209" class="cls-26" width="44.109" height="30.584" rx="1.77" transform="translate(519.051 309.998)"/>
        <rect id="Rectangle_210" data-name="Rectangle 210" class="cls-26" width="44.109" height="30.584" rx="1.77" transform="translate(480.439 337.704)"/>
        <rect id="Rectangle_211" data-name="Rectangle 211" class="cls-26" width="44.109" height="30.584" rx="1.77" transform="translate(504.01 337.704)"/>
        <rect id="Rectangle_212" data-name="Rectangle 212" class="cls-26" width="44.109" height="30.584" rx="1.77" transform="translate(480.439 355.29)"/>
        <rect id="Rectangle_213" data-name="Rectangle 213" class="cls-26" width="44.109" height="30.584" rx="1.77" transform="translate(504.01 355.29)"/>
        <rect id="Rectangle_214" data-name="Rectangle 214" class="cls-26" width="44.109" height="79.753" rx="1.77" transform="translate(519.051 309.353)"/>
        <g id="Group_45" data-name="Group 45" class="cls-27" transform="translate(388.499 203.258)">
          <path id="Path_620" data-name="Path 620" class="cls-28" d="M593.32,371.883a5.258,5.258,0,0,1,5.257-5.323H759.53a5.323,5.323,0,0,1,5.336,5.323v37.524a5.323,5.323,0,0,1-5.336,5.257H598.643" transform="translate(-593.32 -366.56)"/>
          <rect id="Rectangle_215" data-name="Rectangle 215" class="cls-28" width="44.109" height="30.584" rx="1.77" transform="translate(0 65.256)"/>
          <rect id="Rectangle_216" data-name="Rectangle 216" class="cls-28" width="44.109" height="30.584" rx="1.77" transform="translate(63.719 65.256)"/>
          <rect id="Rectangle_217" data-name="Rectangle 217" class="cls-28" width="44.109" height="30.584" rx="1.77" transform="translate(127.438 65.256)"/>
          <rect id="Rectangle_218" data-name="Rectangle 218" class="cls-28" width="44.109" height="30.584" rx="1.77" transform="translate(0 114.425)"/>
          <rect id="Rectangle_219" data-name="Rectangle 219" class="cls-28" width="44.109" height="30.584" rx="1.77" transform="translate(63.719 114.425)"/>
          <rect id="Rectangle_220" data-name="Rectangle 220" class="cls-28" width="44.109" height="30.584" rx="1.77" transform="translate(0 163.581)"/>
          <rect id="Rectangle_221" data-name="Rectangle 221" class="cls-28" width="44.109" height="30.584" rx="1.77" transform="translate(63.719 163.581)"/>
        </g>
        <rect id="Rectangle_222" data-name="Rectangle 222" class="cls-14" width="44.109" height="79.753" rx="1.77" transform="translate(515.936 307.412)"/>
        <path id="Path_621" data-name="Path 621" class="cls-29" d="M693.4,531.149V462a5.257,5.257,0,0,1,5.323-5.257h33.45a5.177,5.177,0,0,1,1.866.355,5.323,5.323,0,0,0-4.981-3.47H695.6a5.257,5.257,0,0,0-5.323,5.323v69.094a5.336,5.336,0,0,0,3.457,4.981A5.534,5.534,0,0,1,693.4,531.149Z" transform="translate(-174.344 -146.102)"/>
        <path id="Path_622" data-name="Path 622" class="cls-14" d="M238.417,431.467l-10.607,109.8,104.134.013L321.863,431.27Z" transform="translate(-27.378 -151.261)"/>
        <path id="Path_623" data-name="Path 623" class="cls-9" d="M249.69,439.868h0a3.654,3.654,0,0,1,3.943-3.312h0a3.352,3.352,0,1,1,0,6.572h0A3.641,3.641,0,0,1,249.69,439.868Zm3.943-2.05a2.116,2.116,0,1,0,0,4.088h0a2.116,2.116,0,1,0,0-4.088Zm-3.286,2.05Z" transform="translate(-19.502 -105.635)"/>
        <path id="Path_624" data-name="Path 624" class="cls-9" d="M279.22,439.792h0a3.01,3.01,0,0,1,.907-2.129,4.18,4.18,0,0,1,2.984-1.17h0a3.641,3.641,0,0,1,3.943,3.286,3.076,3.076,0,0,1-1.183,2.379,4.232,4.232,0,0,1-2.707.933h0A3.641,3.641,0,0,1,279.22,439.792Zm3.943-2.05a3.023,3.023,0,0,0-2.09.815,1.709,1.709,0,0,0-.539,1.235h0a2.392,2.392,0,0,0,2.629,2.037h0a2.97,2.97,0,0,0,1.919-.644,1.8,1.8,0,0,0,.723-1.406,2.4,2.4,0,0,0-2.629-2.037Z" transform="translate(-26.618 -105.608)"/>
        <path id="Path_625" data-name="Path 625" class="cls-9" d="M271.246,463.36h1.1c7.137-.237,12.578-2.537,16.166-6.835,5.954-7.1,4.6-17.007,4.547-17.428a1.314,1.314,0,0,0-2.5.355c0,.092,1.235,9.2-3.943,15.47-3.115,3.706-7.886,5.7-14.3,5.915-6.177.184-10.778-1.42-13.84-4.837-5.56-6.177-4.193-16.35-4.18-16.455a1.261,1.261,0,1,0-2.5-.355c-.066.46-1.551,11.408,4.784,18.493C259.93,461.441,264.872,463.36,271.246,463.36Z" transform="translate(-24.733 -111.905)"/>
        <path id="Path_626" data-name="Path 626" class="cls-30" d="M48.173,296.7l5.928,3.943a1.643,1.643,0,0,0,2.313-.526l13.051-21.857L61.737,274l-14,20.425a1.617,1.617,0,0,0,.434,2.274Z" transform="translate(55.743 -70.324)"/>
        <path id="Path_627" data-name="Path 627" class="cls-31" d="M32.482,259.117l2.037,1.393,8.267-12.052-2.037-1.393c-2.918-1.971-7.124-.881-9.4,2.445h0C29.065,252.822,29.578,257.119,32.482,259.117Z" transform="translate(50.234 -60.909)"/>
        <path id="Path_628" data-name="Path 628" class="cls-31" d="M26.12,276.737l38.01,5.77L72.8,269.863,53.629,236.65Z" transform="translate(49.039 -64.157)"/>
        <path id="Path_629" data-name="Path 629" class="cls-32" d="M27.97,270.732l35.579,5.231,3.457-5.034L37.065,257.47Z" transform="translate(49.62 -64.486)"/>
        <path id="Path_630" data-name="Path 630" class="cls-31" d="M67.365,281.246h0a4.824,4.824,0,0,0,6.572-1.7l1.538-2.247a4.784,4.784,0,0,0-.789-6.716h0a4.824,4.824,0,0,0-6.572,1.7l-1.538,2.247A4.784,4.784,0,0,0,67.365,281.246Z" transform="translate(61.432 -66.336)"/>
        <path id="Path_631" data-name="Path 631" class="cls-32" d="M68.144,271.836l-1.538,2.247a4.495,4.495,0,1,0,7.36,5.021l1.538-2.247a5.558,5.558,0,0,0,.315-.526,4.417,4.417,0,0,1-7.295-4.981C68.393,271.508,68.262,271.665,68.144,271.836Z" transform="translate(61.402 -66.348)"/>
        <path id="Path_632" data-name="Path 632" class="cls-24" d="M25.436,278.456h0a2.826,2.826,0,0,0,3.851-1l26.142-37.984a2.839,2.839,0,0,0-.46-3.943h0a2.865,2.865,0,0,0-3.864,1L24.963,274.513A2.813,2.813,0,0,0,25.436,278.456Z" transform="translate(48.487 -63.354)"/>
        <path id="Path_633" data-name="Path 633" class="cls-30" d="M55.564,236,33.852,267.623a2.826,2.826,0,0,1-3.851,1,2.34,2.34,0,0,1-.67-.723l-4.364,6.348a2.629,2.629,0,1,0,4.324,2.944l26.142-37.984A3.023,3.023,0,0,0,55.564,236Z" transform="translate(48.483 -63.376)"/>
        <path id="Path_634" data-name="Path 634" class="cls-24" d="M58.354,281.341l2.458,1.682c3.641,2.471,8.885,1.117,11.737-3.036l2.445-3.562c2.852-4.153,2.208-9.529-1.419-12l-2.458-1.669c-3.628-2.484-8.885-1.117-11.724,3.036l-2.445,3.562C54.1,273.508,54.726,278.87,58.354,281.341Z" transform="translate(58.167 -66.313)"/>
        <path id="Path_635" data-name="Path 635" class="cls-30" d="M57.635,267.33l-3.667,5.336a2.721,2.721,0,0,0,.447,3.8l11.448,7.794a2.734,2.734,0,0,0,3.72-.96l3.654-5.336a2.721,2.721,0,0,1-3.706.959l-11.4-7.794a2.694,2.694,0,0,1-.5-3.8Z" transform="translate(57.611 -66.723)"/>
        <line id="Line_24" data-name="Line 24" class="cls-33" x2="7.649" y2="18.033" transform="translate(77.919 166.968)"/>
        <line id="Line_25" data-name="Line 25" class="cls-33" x2="15.667" y2="11.75" transform="translate(61.95 177.18)"/>
        <line id="Line_26" data-name="Line 26" class="cls-33" x2="19.491" y2="1.919" transform="translate(51.842 191.465)"/>
        <path id="Path_636" data-name="Path 636" class="cls-34" d="M773.579,222.175H620l18.4-13.6v-66.4a10.042,10.042,0,0,1,10.028-10.041H773.54a10.028,10.028,0,0,1,10.028,10.041v69.962a10.028,10.028,0,0,1-9.989,10.041Z" transform="translate(-196.434 -40.673)"/>
        <rect id="Rectangle_223" data-name="Rectangle 223" class="cls-35" width="70.159" height="6.716" transform="translate(503.674 107.628)"/>
        <rect id="Rectangle_224" data-name="Rectangle 224" class="cls-35" width="70.159" height="6.716" transform="translate(503.674 113.411)"/>
        <rect id="Rectangle_225" data-name="Rectangle 225" class="cls-35" width="70.159" height="6.716" transform="translate(503.674 119.194)"/>
        <rect id="Rectangle_226" data-name="Rectangle 226" class="cls-35" width="70.159" height="6.716" transform="translate(503.674 124.826)"/>
        <rect id="Rectangle_227" data-name="Rectangle 227" class="cls-35" width="48.932" height="6.716" transform="translate(503.674 131.572)"/>
        <rect id="Rectangle_228" data-name="Rectangle 228" class="cls-36" width="44.069" height="51.535" rx="3.39" transform="translate(503.219 102.861)"/>
        <rect id="Rectangle_229" data-name="Rectangle 229" class="cls-35" width="44.069" height="5.533" transform="translate(503.219 141.202)"/>
        <path id="Path_637" data-name="Path 637" class="cls-12" d="M668.338,171.1h-16a1.985,1.985,0,0,1-1.919-1.472l-3.075-11.356a1.985,1.985,0,0,1,1.919-2.524h22.146a2,2,0,0,1,1.932,2.523l-3.076,11.356a2,2,0,0,1-1.932,1.472Z" transform="translate(-187.862 -38.653)"/>
        <path id="Path_638" data-name="Path 638" class="cls-12" d="M670.16,175.227H650.905a.407.407,0,1,1,0-.8h18.966l6.69-23.356a.408.408,0,0,1,.394-.289h4.18a.394.394,0,0,1,0,.789h-3.943l-6.7,23.382A.381.381,0,0,1,670.16,175.227Z" transform="translate(-186.871 -38.422)"/>
        <path id="Path_639" data-name="Path 639" class="cls-12" d="M654.113,172.316a2.326,2.326,0,1,1-2.327-2.326A2.326,2.326,0,0,1,654.113,172.316Z" transform="translate(-187.174 -40.892)"/>
        <circle id="Ellipse_86" data-name="Ellipse 86" class="cls-12" cx="2.326" cy="2.326" r="2.326" transform="translate(479.267 129.098)"/>
        <path id="Path_640" data-name="Path 640" class="cls-34" d="M305.978,162.874h195.6l-23.421-17.336V38.525A12.788,12.788,0,0,0,465.367,25.75H305.978A12.788,12.788,0,0,0,293.19,38.525V150.1A12.788,12.788,0,0,0,305.978,162.874Z" transform="translate(-69.795 8.099)"/>
        <g id="Group_46" data-name="Group 46" class="cls-27" transform="translate(244.922 53.682)">
          <rect id="Rectangle_230" data-name="Rectangle 230" class="cls-12" width="89.387" height="8.556" transform="translate(89.4 8.556) rotate(180)"/>
          <rect id="Rectangle_231" data-name="Rectangle 231" class="cls-12" width="89.387" height="8.556" transform="translate(89.4 21.332) rotate(180)"/>
          <rect id="Rectangle_232" data-name="Rectangle 232" class="cls-12" width="89.387" height="8.556" transform="translate(89.4 34.12) rotate(180)"/>
          <rect id="Rectangle_233" data-name="Rectangle 233" class="cls-12" width="89.387" height="8.556" transform="translate(89.4 46.567) rotate(180)"/>
          <rect id="Rectangle_234" data-name="Rectangle 234" class="cls-12" width="89.387" height="8.556" transform="translate(89.4 59.026) rotate(180)"/>
          <rect id="Rectangle_235" data-name="Rectangle 235" class="cls-12" width="89.387" height="8.556" transform="translate(89.4 81.633) rotate(180)"/>
          <rect id="Rectangle_236" data-name="Rectangle 236" class="cls-12" width="152.567" height="8.556" transform="translate(152.567 95.118) rotate(180)"/>
        </g>
        <rect id="Rectangle_237" data-name="Rectangle 237" class="cls-31" width="56.148" height="65.664" rx="4.31" transform="translate(374.322 119.346) rotate(180)"/>
        <rect id="Rectangle_238" data-name="Rectangle 238" class="cls-35" width="56.148" height="7.045" transform="translate(374.322 134.565) rotate(180)"/>
        <path id="Path_641" data-name="Path 641" class="cls-12" d="M398.163,77.934h20.385a2.55,2.55,0,0,0,2.458-1.879L424.949,61.6a2.537,2.537,0,0,0-2.458-3.207H394.246A2.536,2.536,0,0,0,391.8,61.6l3.943,14.458a2.524,2.524,0,0,0,2.418,1.88Z" transform="translate(-59.363 18.358)"/>
        <path id="Path_642" data-name="Path 642" class="cls-12" d="M397.337,83.193h24.552a.513.513,0,0,0,0-1.012h-24.17L389.189,52.4a.526.526,0,0,0-.486-.368h-5.349a.513.513,0,0,0,0,1.012h4.929l8.53,29.783A.5.5,0,0,0,397.337,83.193Z" transform="translate(-58.453 16.359)"/>
        <path id="Path_643" data-name="Path 643" class="cls-12" d="M409.71,79.49a2.97,2.97,0,1,0,.884-2.114A2.97,2.97,0,0,0,409.71,79.49Z" transform="translate(-57.717 24.057)"/>
        <path id="Path_644" data-name="Path 644" class="cls-12" d="M393.29,79.49a2.97,2.97,0,1,0,2.97-2.97A2.97,2.97,0,0,0,393.29,79.49Z" transform="translate(-53.768 24.057)"/>
        <g id="Group_47" data-name="Group 47" class="cls-37" transform="translate(135.086 102.897)">
          <path id="Path_645" data-name="Path 645" class="cls-38" d="M152.59,171.08l10.515,5.3-5.257-12.907" transform="translate(-119.955 -133.556)"/>
          <path id="Path_646" data-name="Path 646" class="cls-38" d="M127.76,161.739c0,11.592,9.949,21.029,22.225,21.029s22.238-9.384,22.238-21.029-9.949-21.029-22.238-21.029S127.76,150.147,127.76,161.739Z" transform="translate(-127.76 -140.71)"/>
          <path id="Path_647" data-name="Path 647" class="cls-39" d="M140.53,151.844v15.01a1.577,1.577,0,0,0,2.366,1.314l12.986-7.492a1.564,1.564,0,0,0,0-2.721l-12.986-7.5a1.577,1.577,0,0,0-2.366,1.393Z" transform="translate(-123.746 -137.715)"/>
        </g>
        <g id="Group_48" data-name="Group 48" class="cls-37" transform="translate(525.097 191.663)">
          <path id="Path_648" data-name="Path 648" class="cls-38" d="M708.765,292.47l-10.515,5.3,5.257-12.907" transform="translate(-696.936 -254.946)"/>
          <path id="Path_649" data-name="Path 649" class="cls-38" d="M741.714,283.129c0,11.592-9.95,21.029-22.225,21.029s-22.238-9.384-22.238-21.029S707.2,262.1,719.489,262.1,741.714,271.537,741.714,283.129Z" transform="translate(-697.25 -262.1)"/>
          <path id="Path_650" data-name="Path 650" class="cls-39" d="M711.181,291.523c4.85.079,9.752.131,14.208-.158,1.419-.092,2.629-2.208.92-2.878a3.076,3.076,0,0,0,1.761-1.446,1.393,1.393,0,0,0-.854-1.879c1.682.381,2.339-2.129,1.038-2.944a3.668,3.668,0,0,0,1.406-2.195,2.077,2.077,0,0,0-1.012-2.221,3.942,3.942,0,0,0-1.748-.276h-6.046c.539-2.97.71-6.217-.894-8.832-.486-.789-1.774-1.722-2.813-1.117s-.7,1.971-.644,2.865a9.976,9.976,0,0,1-5.494,9.2S711.234,287.5,711.181,291.523Z" transform="translate(-692.925 -260.44)"/>
          <rect id="Rectangle_239" data-name="Rectangle 239" class="cls-39" width="7.321" height="11.895" transform="translate(9.174 19.176)"/>
        </g>
        <g id="Group_49" data-name="Group 49" class="cls-37" transform="translate(359.112 105.183)">
          <path id="Path_651" data-name="Path 651" class="cls-38" d="M450.9,154.093l7.676-8.293-10.515,2.064" transform="translate(-422.47 -140.806)"/>
          <path id="Path_652" data-name="Path 652" class="cls-38" d="M428.59,157.207c0,8.412,7.216,15.22,16.127,15.22s16.127-6.808,16.127-15.22S453.615,142,444.717,142,428.59,148.808,428.59,157.207Z" transform="translate(-428.59 -142)"/>
          <path id="Path_653" data-name="Path 653" class="cls-39" d="M438.535,163.293c3.168,0,6.388.105,9.305-.118.92-.066,1.722-1.59.6-2.077a2.1,2.1,0,0,0,1.157-1.051,1.038,1.038,0,0,0-.565-1.314c1.1.276,1.538-1.538.67-2.129a2.629,2.629,0,0,0,.933-1.564,1.591,1.591,0,0,0-.67-1.6,2.406,2.406,0,0,0-1.143-.21h-3.943a9.937,9.937,0,0,0-.591-6.4c-.315-.578-1.17-1.314-1.84-.815s-.46,1.433-.421,2.077a7.36,7.36,0,0,1-3.6,6.651S438.561,160.375,438.535,163.293Z" transform="translate(-425.497 -140.792)"/>
          <rect id="Rectangle_240" data-name="Rectangle 240" class="cls-39" width="4.797" height="8.622" transform="translate(7.084 13.866)"/>
        </g>
        <g id="Group_50" data-name="Group 50" class="cls-37" transform="translate(390.521 50.172)">
          <path id="Path_654" data-name="Path 654" class="cls-38" d="M517.465,76.706a23.75,23.75,0,1,0-5.4,4.968l9.2,4.916Z" transform="translate(-475.129 -38.17)"/>
          <path id="Path_655" data-name="Path 655" class="cls-12" d="M485.968,51.657a5.8,5.8,0,0,1,8.215.092l1.485,1.511,1.525-1.5a5.809,5.809,0,1,1,8.149,8.281L499.69,65.6h0a5.875,5.875,0,0,1-3.181,1.59,5.783,5.783,0,0,1-5.034-1.682l-5.56-5.678a5.809,5.809,0,0,1,.052-8.175Z" transform="translate(-472.259 -34.452)"/>
        </g>
      </g>
    </g>
  </g>
</svg>
