<svg xmlns="http://www.w3.org/2000/svg" width="556" height="111.842" viewBox="0 0 556 111.842">
  <defs>
    <style>
      .cls-1 {
        fill: #4f4f4f;
      }

      .cls-2 {
        fill: #19335e;
      }
    </style>
  </defs>
  <g id="group-logo-large" transform="translate(-108 -71.935)">
    <g id="Group_2" data-name="Group 2" transform="translate(215.006 71.957)">
      <path id="Path_2" data-name="Path 2" d="M247.808,140.832H227.023l-13.467-26.051-5.454,3.26v22.791H189.6V72.7h18.5v29.59a81.105,81.105,0,0,1,5.64-8.714L228.047,72.7H248.18L226.7,103.223Z" transform="translate(-189.602 -71.72)"/>
      <path id="Path_3" data-name="Path 3" d="M287.448,140.9l-3.356-12.77H261.956l-3.447,12.77H238.283l22.228-68.416h24.56L307.58,140.9Zm-7.177-27.868-2.936-11.186q-1.027-3.729-2.494-9.649t-1.933-8.48q-.419,2.376-1.655,7.831t-5.476,21.483Z" transform="translate(-174.447 -71.787)"/>
      <path id="Path_4" data-name="Path 4" d="M327.2,140.832H308.791V87.748H292.153V72.7h51.635v15.05H327.2Z" transform="translate(-157.676 -71.72)"/>
      <path id="Path_5" data-name="Path 5" d="M377.425,140.9l-3.356-12.77H351.933l-3.447,12.77H328.26l22.228-68.416h24.56l22.51,68.416Zm-7.178-27.868-2.935-11.186q-1.027-3.729-2.494-9.649t-1.934-8.48q-.417,2.376-1.654,7.831t-5.476,21.483Z" transform="translate(-146.435 -71.787)"/>
      <path id="Path_6" data-name="Path 6" d="M386.721,140.832V72.7h18.407v53.263h26.237v14.87Z" transform="translate(-128.235 -71.72)"/>
      <path id="Path_7" data-name="Path 7" d="M429.083,140.832V72.7h18.5v68.134Z" transform="translate(-115.047 -71.72)"/>
      <path id="Path_8" data-name="Path 8" d="M499.724,120.372a20.108,20.108,0,0,1-3.214,11.252,21.064,21.064,0,0,1-9.274,7.644,34.362,34.362,0,0,1-14.213,2.725,57.67,57.67,0,0,1-11.419-.955,42.231,42.231,0,0,1-9.6-3.331V121.3a54.681,54.681,0,0,0,10.952,4.219,40.905,40.905,0,0,0,10.438,1.513q4.1,0,6.01-1.423a4.362,4.362,0,0,0,1.912-3.655,4.029,4.029,0,0,0-.768-2.448,9.034,9.034,0,0,0-2.469-2.119q-1.7-1.072-9.065-4.38a43.46,43.46,0,0,1-10-5.875,18.028,18.028,0,0,1-4.94-6.523,21.66,21.66,0,0,1-1.608-8.714q0-9.414,6.85-14.679t18.826-5.268a52.856,52.856,0,0,1,21.576,4.891l-5.637,14.215q-9.554-4.381-16.5-4.38-3.59,0-5.22,1.259a3.8,3.8,0,0,0-1.63,3.121,4.5,4.5,0,0,0,2.073,3.589q2.071,1.581,11.255,5.779,8.806,3.958,12.232,8.5A18.472,18.472,0,0,1,499.724,120.372Z" transform="translate(-107.91 -71.952)"/>
      <path id="Path_9" data-name="Path 9" d="M527.669,140.832H509.261V87.748H492.624V72.7h51.635v15.05H527.669Z" transform="translate(-95.265 -71.72)"/>
    </g>
    <g id="Group_3" data-name="Group 3" transform="translate(215.006 150.302)">
      <path id="Path_10" data-name="Path 10" class="cls-1" d="M205.217,133.182a10.639,10.639,0,0,0-8.465,3.568q-3.1,3.572-3.1,9.776,0,6.387,2.992,9.868t8.53,3.48a29.122,29.122,0,0,0,7.762-1.225v3.315a23.912,23.912,0,0,1-8.34,1.267q-7.185,0-11.089-4.359t-3.9-12.389a19.564,19.564,0,0,1,1.879-8.808,13.494,13.494,0,0,1,5.429-5.829,16.434,16.434,0,0,1,8.351-2.047,20.144,20.144,0,0,1,8.942,1.87l-1.6,3.248A17.234,17.234,0,0,0,205.217,133.182Z" transform="translate(-189.602 -129.757)"/>
      <path id="Path_11" data-name="Path 11" class="cls-1" d="M242.895,146.493q0,7.807-3.948,12.279t-10.977,4.469q-7.186,0-11.089-4.393t-3.9-12.4q0-7.943,3.914-12.312t11.123-4.369q7.006,0,10.943,4.448T242.895,146.493Zm-25.913,0q0,6.605,2.813,10.02t8.175,3.416q5.405,0,8.164-3.4t2.756-10.033q0-6.56-2.746-9.954t-8.13-3.392q-5.405,0-8.219,3.416T216.982,146.493Z" transform="translate(-182.325 -129.767)"/>
      <path id="Path_12" data-name="Path 12" class="cls-1" d="M257.173,162.675l-11.033-28.828h-.177q.311,3.428.311,8.141v20.687h-3.492V130.157h5.7l10.3,26.826h.178l10.388-26.826h5.649v32.518h-3.782V141.723q0-3.6.312-7.83h-.178L260.22,162.675Z" transform="translate(-173.046 -129.646)"/>
      <path id="Path_13" data-name="Path 13" class="cls-1" d="M289.995,162.675l-11.033-28.828h-.176q.309,3.428.31,8.141v20.687H275.6V130.157h5.7l10.3,26.826h.177l10.388-26.826h5.649v32.518h-3.781V141.723q0-3.6.311-7.83h-.177l-11.123,28.782Z" transform="translate(-162.828 -129.646)"/>
      <path id="Path_14" data-name="Path 14" class="cls-1" d="M333.062,130.157V151.2q0,5.561-3.36,8.74t-9.23,3.181q-5.871,0-9.087-3.2t-3.213-8.808V130.157h3.781v21.22a8.36,8.36,0,0,0,2.224,6.251q2.225,2.179,6.541,2.179a8.657,8.657,0,0,0,6.338-2.191,8.423,8.423,0,0,0,2.225-6.284V130.157Z" transform="translate(-152.689 -129.646)"/>
      <path id="Path_15" data-name="Path 15" class="cls-1" d="M360.579,162.675h-4.316l-17.772-27.291h-.178q.358,4.805.357,8.808v18.483h-3.492V130.157h4.27l17.729,27.181h.178q-.045-.6-.2-3.861t-.11-4.66v-18.66h3.535Z" transform="translate(-144.282 -129.646)"/>
      <path id="Path_16" data-name="Path 16" class="cls-1" d="M362.826,162.675V130.157h3.782v32.518Z" transform="translate(-135.674 -129.646)"/>
      <path id="Path_17" data-name="Path 17" class="cls-1" d="M388.3,133.182a10.639,10.639,0,0,0-8.465,3.568q-3.1,3.572-3.1,9.776,0,6.387,2.992,9.868t8.529,3.48a29.115,29.115,0,0,0,7.763-1.225v3.315a23.919,23.919,0,0,1-8.341,1.267q-7.185,0-11.089-4.359t-3.9-12.389a19.529,19.529,0,0,1,1.882-8.808,13.5,13.5,0,0,1,5.426-5.829,16.451,16.451,0,0,1,8.353-2.047,20.152,20.152,0,0,1,8.942,1.87l-1.6,3.248A17.244,17.244,0,0,0,388.3,133.182Z" transform="translate(-132.606 -129.757)"/>
      <path id="Path_18" data-name="Path 18" class="cls-1" d="M418.848,162.707,414.8,152.365H401.766l-4,10.342h-3.826l12.856-32.652h3.181l12.791,32.652Zm-5.227-13.745-3.782-10.078q-.734-1.912-1.512-4.692a42.771,42.771,0,0,1-1.4,4.692L403.1,148.962Z" transform="translate(-125.989 -129.677)"/>
      <path id="Path_19" data-name="Path 19" class="cls-1" d="M431.763,162.675h-3.782v-29.16h-10.3v-3.358h24.378v3.358h-10.3Z" transform="translate(-118.595 -129.646)"/>
      <path id="Path_20" data-name="Path 20" class="cls-1" d="M441.464,162.675V130.157h3.785v32.518Z" transform="translate(-111.192 -129.646)"/>
      <path id="Path_21" data-name="Path 21" class="cls-1" d="M481.239,146.493q0,7.807-3.95,12.279t-10.978,4.469q-7.183,0-11.087-4.393t-3.9-12.4q0-7.943,3.916-12.312t11.121-4.369q7.006,0,10.946,4.448T481.239,146.493Zm-25.916,0q0,6.605,2.816,10.02t8.172,3.416q5.407,0,8.166-3.4t2.759-10.033q0-6.56-2.75-9.954t-8.129-3.392q-5.4,0-8.218,3.416T455.323,146.493Z" transform="translate(-108.124 -129.767)"/>
      <path id="Path_22" data-name="Path 22" class="cls-1" d="M506.528,162.675h-4.315l-17.774-27.291h-.177q.356,4.805.357,8.808v18.483h-3.495V130.157h4.271l17.729,27.181h.18q-.047-.6-.2-3.861t-.113-4.66v-18.66h3.538Z" transform="translate(-98.845 -129.646)"/>
      <path id="Path_23" data-name="Path 23" class="cls-1" d="M527.628,154.134a7.977,7.977,0,0,1-3.115,6.7q-3.116,2.4-8.451,2.4-5.785,0-8.9-1.488v-3.649a23.524,23.524,0,0,0,4.36,1.335,23.034,23.034,0,0,0,4.674.49,9.428,9.428,0,0,0,5.693-1.436,4.71,4.71,0,0,0,1.913-3.992,5.115,5.115,0,0,0-.679-2.771,6.274,6.274,0,0,0-2.269-1.991,31.869,31.869,0,0,0-4.837-2.068,15.445,15.445,0,0,1-6.482-3.849,8.49,8.49,0,0,1-1.949-5.805,7.22,7.22,0,0,1,2.826-5.984,11.742,11.742,0,0,1,7.473-2.225,22.012,22.012,0,0,1,8.921,1.781l-1.181,3.291a20.178,20.178,0,0,0-7.828-1.689,7.578,7.578,0,0,0-4.694,1.29,4.249,4.249,0,0,0-1.69,3.58,5.5,5.5,0,0,0,.621,2.768,5.87,5.87,0,0,0,2.1,1.981,25.861,25.861,0,0,0,4.528,1.989q5.112,1.825,7.039,3.916A7.7,7.7,0,0,1,527.628,154.134Z" transform="translate(-90.739 -129.757)"/>
    </g>
    <path id="Path_24" data-name="Path 24" class="cls-2" d="M129.645,176.241V134.832l41.564-52.389h7.215L135.45,136.873v44.859l-27.45.157V71.935h5.648V176.241Zm21.645-42.193,28.078,38.116h-7.061l-28.231-38.116,44.233-56.309H167.914l-43.605,55.839v38.587h-5.643V131.7L165.25,71.935h34.665Zm-21.8-56.309h-5.177V115.07l-5.643,7.215V71.935h16.626v29.174l-5.807,7.216Zm28.549,56.936,3.61-4.548,38.428,51.6H166.035L140.78,147.694v-9.41l28.078,37.957h19.92Z" transform="translate(0)"/>
  </g>
</svg>
