<svg xmlns="http://www.w3.org/2000/svg" width="271.756" height="200" viewBox="0 0 271.756 200">
  <defs>
    <style>
      .cls-1 {
        fill: #f2f2f2;
      }

      .cls-2 {
        fill: #3f3d56;
      }

      .cls-3 {
        opacity: 0.1;
      }

      .cls-4, .cls-7 {
        fill: #6c63ff;
      }

      .cls-5 {
        fill: #a8a8a8;
      }

      .cls-6 {
        opacity: 0.2;
      }

      .cls-7 {
        opacity: 0.3;
      }
    </style>
  </defs>
  <g id="messaging-small" transform="translate(0 -107)">
    <ellipse id="Ellipse_46" data-name="Ellipse 46" class="cls-1" cx="84.007" cy="84.993" rx="84.007" ry="84.993" transform="translate(58.159 107)"/>
    <path id="Path_380" data-name="Path 380" class="cls-2" d="M397.382,785.112c0,4.6-59.967,14.264-133.941,14.264S129.5,789.707,129.5,785.112s59.967-2.377,133.941-2.377S397.382,780.516,397.382,785.112Z" transform="translate(-129.5 -492.376)"/>
    <path id="Path_381" data-name="Path 381" class="cls-3" d="M397.382,785.112c0,4.6-59.967,14.264-133.941,14.264S129.5,789.707,129.5,785.112s59.967-2.377,133.941-2.377S397.382,780.516,397.382,785.112Z" transform="translate(-129.5 -492.376)"/>
    <ellipse id="Ellipse_47" data-name="Ellipse 47" class="cls-2" cx="133.941" cy="8.321" rx="133.941" ry="8.321" transform="translate(0 284.415)"/>
    <path id="Path_382" data-name="Path 382" class="cls-2" d="M851.689,659.413c0,18.783,11.647,33.982,26.04,33.982" transform="translate(-639.56 -406.079)"/>
    <path id="Path_383" data-name="Path 383" class="cls-4" d="M940.34,692.491c0-18.994,13-34.364,29.059-34.364" transform="translate(-702.172 -405.176)"/>
    <path id="Path_384" data-name="Path 384" class="cls-4" d="M883.809,665.142c0,17.842,7.427,32.279,16.6,32.279" transform="translate(-662.246 -410.106)"/>
    <path id="Path_385" data-name="Path 385" class="cls-2" d="M940.34,669.917c0-24.27,15.022-43.909,33.587-43.909" transform="translate(-702.172 -382.601)"/>
    <path id="Path_386" data-name="Path 386" class="cls-5" d="M921.69,769.792s3.693-.115,4.806-.917,5.681-1.759,5.957-.473,5.55,6.4,1.38,6.43-9.687-.657-10.8-1.342S921.69,769.792,921.69,769.792Z" transform="translate(-689 -482.237)"/>
    <path id="Path_387" data-name="Path 387" class="cls-6" d="M933.908,779.147c-4.169.034-9.687-.657-10.8-1.342-.846-.521-1.183-2.392-1.3-3.255l-.123,0s.234,3.013,1.345,3.7,6.629,1.376,10.8,1.342c1.2-.01,1.619-.443,1.6-1.085C935.262,778.9,934.8,779.14,933.908,779.147Z" transform="translate(-689 -487)"/>
    <path id="Path_400" data-name="Path 400" class="cls-2" d="M186.317,162H70v38.633h4.406v10.1l9.987-10.1H186.317Z" transform="translate(-49.439 -38.655)"/>
    <path id="Path_401" data-name="Path 401" class="cls-2" d="M186.317,512H70v38.633h4.406v10.1l9.987-10.1H186.317Z" transform="translate(-49.439 -284.643)"/>
    <path id="Path_402" data-name="Path 402" class="cls-2" d="M140,338H256.317v38.633h-4.406v10.1l-9.987-10.1H140Z" transform="translate(-98.878 -162.352)"/>
    <rect id="Rectangle_94" data-name="Rectangle 94" class="cls-7" width="89.294" height="3.566" transform="translate(34.073 129.734)"/>
    <rect id="Rectangle_95" data-name="Rectangle 95" class="cls-7" width="44.647" height="3.566" transform="translate(34.073 136.569)"/>
    <ellipse id="Ellipse_49" data-name="Ellipse 49" class="cls-7" cx="4.993" cy="5.052" rx="4.993" ry="5.052" transform="translate(34.073 145.484)"/>
    <rect id="Rectangle_96" data-name="Rectangle 96" class="cls-4" width="89.294" height="3.566" transform="translate(51.697 181.443)"/>
    <rect id="Rectangle_97" data-name="Rectangle 97" class="cls-4" width="44.647" height="3.566" transform="translate(51.697 188.278)"/>
    <ellipse id="Ellipse_50" data-name="Ellipse 50" class="cls-4" cx="4.993" cy="5.052" rx="4.993" ry="5.052" transform="translate(51.697 197.193)"/>
    <rect id="Rectangle_98" data-name="Rectangle 98" class="cls-7" width="89.294" height="3.566" transform="translate(34.073 233.746)"/>
    <rect id="Rectangle_99" data-name="Rectangle 99" class="cls-7" width="44.647" height="3.566" transform="translate(34.073 240.581)"/>
    <ellipse id="Ellipse_51" data-name="Ellipse 51" class="cls-7" cx="4.993" cy="5.052" rx="4.993" ry="5.052" transform="translate(34.073 249.496)"/>
  </g>
</svg>
