<svg xmlns="http://www.w3.org/2000/svg" width="353.529" height="200" viewBox="0 0 353.529 200">
  <defs>
    <style>
      .cls-1, .cls-6 {
        fill: #6c63ff;
      }

      .cls-1, .cls-3 {
        opacity: 0.1;
      }

      .cls-2 {
        fill: #d0d2d5;
      }

      .cls-4 {
        fill: #cf2d46;
      }

      .cls-5 {
        fill: #fff;
      }

      .cls-7 {
        fill: #1da59c;
      }

      .cls-8 {
        fill: #3f3d56;
      }

      .cls-9 {
        fill: #fb981f;
      }

      .cls-10 {
        fill: #e6e8ec;
      }
    </style>
  </defs>
  <g id="responsive-web-small" transform="translate(0 -0.01)">
    <ellipse id="Ellipse_80" data-name="Ellipse 80" class="cls-1" cx="176.765" cy="11.111" rx="176.765" ry="11.111" transform="translate(0 177.788)"/>
    <path id="Path_544" data-name="Path 544" class="cls-2" d="M378.9,495.44l-60-.768.178-1.539,2.9-25.383h52.689l3.875,25.383.3,1.923Z" transform="translate(-211.528 -310.254)"/>
    <path id="Path_545" data-name="Path 545" class="cls-3" d="M378.838,545.063H348.9l-30-.384.178-1.539h59.464Z" transform="translate(-211.528 -360.261)"/>
    <rect id="Rectangle_127" data-name="Rectangle 127" class="cls-2" width="79.611" height="1.923" transform="translate(97.372 183.263)"/>
    <path id="Path_546" data-name="Path 546" class="cls-4" d="M368.612,158.027A5.007,5.007,0,0,0,363.629,153H141.3a5.007,5.007,0,0,0-4.983,5.03V292.8H368.612Z" transform="translate(-115.674 -152.99)"/>
    <path id="Path_547" data-name="Path 547" class="cls-2" d="M136.32,564.2v15.784a4.983,4.983,0,0,0,4.983,4.983H363.629a4.983,4.983,0,0,0,4.983-4.983V564.2Z" transform="translate(-115.674 -425.741)"/>
    <rect id="Rectangle_128" data-name="Rectangle 128" class="cls-5" width="214.215" height="121.146" transform="translate(30.262 8.468)"/>
    <path id="Path_548" data-name="Path 548" class="cls-6" d="M474.5,587.617a5.2,5.2,0,0,0,4.084-1.98h0a5.407,5.407,0,0,0,.4-.593l-2.852-.488,3.081.024a5.2,5.2,0,0,0,.1-4.114l-4.131,2.141,3.811-2.8a5.192,5.192,0,1,0-8.576,5.811h0A5.2,5.2,0,0,0,474.5,587.617Z" transform="translate(-336.549 -434.38)"/>
    <path id="Path_549" data-name="Path 549" class="cls-3" d="M425.13,472.89l23.936,24.037-3.673-24.037Z" transform="translate(-281.991 -313.664)"/>
    <path id="Path_550" data-name="Path 550" class="cls-1" d="M406.478,269.732a.489.489,0,0,0,0-.071,18.615,18.615,0,0,0-.9-4.906c-.03-.091-.057-.182-.091-.269a18.687,18.687,0,0,0-31.653-6.4,26.436,26.436,0,0,0-1.492-5.225,83.647,83.647,0,0,1-14.815.552,59.815,59.815,0,0,0,9.4,3.414l-.115.428a60.174,60.174,0,0,1-10.5-3.929l-1.01-.492,1.131.074a84.082,84.082,0,0,0,15.764-.455,26.654,26.654,0,0,0-4.646-7.374,79.417,79.417,0,0,1-24.74-6.161l.182-.4a78.1,78.1,0,0,0,24.111,6.06,26.474,26.474,0,0,0-42.087,4.471,36.38,36.38,0,0,0-9.037-20.431,84.972,84.972,0,0,1-35.777,5.96,59.9,59.9,0,0,0,9.394,3.414l-.114.424a60.267,60.267,0,0,1-10.5-3.926l-1.01-.495,1.128.074a83.8,83.8,0,0,0,36.572-5.788c-.434-.478-.885-.946-1.347-1.4-14.5.293-30.286.152-44.578-5.05a36.457,36.457,0,0,0-17.306,31.033c0,6.842,1.879,16.252,5.151,25.693a109.61,109.61,0,0,0,5.138,12.374c1.01,2.02,2.061,4.007,3.178,5.9h0a66.862,66.862,0,0,0,4.431,6.636c.29.38.582.754.875,1.118a40.527,40.527,0,0,0,5.529,5.724h0q.613.512,1.236.976a23.4,23.4,0,0,0,3.545,2.185,16.276,16.276,0,0,0,6.67,1.811h.552v.077h98.988v-.077h.074a4.964,4.964,0,0,0,1.683-.3c3.5-1.242,6.734-6.229,9.4-12.528.593-1.4,1.158-2.859,1.683-4.36.475-1.323.926-2.694,1.347-4.04a125.126,125.126,0,0,0,3.114-12.161,64.065,64.065,0,0,0,1.465-11.34C406.5,270.29,406.5,270.011,406.478,269.732Z" transform="translate(-192.697 -198.645)"/>
    <path id="Path_551" data-name="Path 551" class="cls-1" d="M348.932,215.738a36.326,36.326,0,0,0-43.642-4.919C319.276,215.829,334.714,216.015,348.932,215.738Z" transform="translate(-227.753 -187.951)"/>
    <path id="Path_552" data-name="Path 552" class="cls-1" d="M613.74,424.441,598.464,397.98a.488.488,0,0,0-.845,0l-15.276,26.461a.488.488,0,0,0,.421.731h4.559a.492.492,0,0,1,.488.485v5.653a.485.485,0,0,0,.485.488h5.946a.488.488,0,0,0,.488-.488v-2.727a.485.485,0,0,1,.485-.488h5.653a.488.488,0,0,1,.488.488v2.727a.488.488,0,0,0,.488.488h5.929a.485.485,0,0,0,.461-.337.452.452,0,0,0,.027-.155v-5.65a.488.488,0,0,1,.488-.485h4.556a.488.488,0,0,0,.434-.731Zm-21.3,2.926a.471.471,0,0,1-.337.145h-2.145a.488.488,0,0,1-.488-.488.5.5,0,0,1,.488-.488H592.1a.488.488,0,0,1,.488.488A.471.471,0,0,1,592.44,427.367Zm14.033,0a.471.471,0,0,1-.337.145h-2.145a.488.488,0,0,1-.337-.832.471.471,0,0,1,.337-.145h2.145a.488.488,0,0,1,.488.488A.471.471,0,0,1,606.474,427.367Z" transform="translate(-411.481 -315.325)"/>
    <path id="Path_553" data-name="Path 553" class="cls-1" d="M337.526,425.137,322.25,398.676a.488.488,0,0,0-.842,0l-13.2,22.845a40.367,40.367,0,0,0,5.529,5.724h2.145a.488.488,0,0,1,.488.488.5.5,0,0,1-.488.488h-.906a23.644,23.644,0,0,0,3.539,2.2v-1.155a.485.485,0,0,1,.488-.485h5.653a.485.485,0,0,1,.485.485v2.727a.508.508,0,0,0,.044.205.485.485,0,0,0,.444.283h5.946a.475.475,0,0,0,.387-.2.485.485,0,0,0,.1-.293v-5.636a.488.488,0,0,1,.488-.488H337.1a.485.485,0,0,0,.431-.731Zm-10.1,2.239a.482.482,0,0,1,.337-.145H329.9a.488.488,0,0,1,0,.976h-2.141a.479.479,0,0,1-.333-.832Zm-9.6-9.791a.485.485,0,0,1-.485-.488v-3.7a.485.485,0,0,1,.485-.488h7.993a.488.488,0,0,1,.485.488v3.7a.488.488,0,0,1-.485.488Z" transform="translate(-229.689 -315.788)"/>
    <path id="Path_554" data-name="Path 554" class="cls-1" d="M457.324,316.8H438.419v-4.091a.976.976,0,0,0-.976-.976h-5.552v-4.357a.613.613,0,0,0-.616-.613h-7.158a.616.616,0,0,0-.616.613v4.357h-6.518a.976.976,0,0,0-.976.976v4.087H397.979a.2.2,0,0,0-.2.2v54.275a.2.2,0,0,0,.2.2h12a.2.2,0,0,0,.2-.2v-7.3a.2.2,0,0,1,.2-.2h5.05a.2.2,0,0,1,.2.2v7.3a.2.2,0,0,0,.2.2H439.5a.2.2,0,0,0,.2-.2v-7.3a.2.2,0,0,1,.2-.2h5.05a.2.2,0,0,1,.2.2v7.3a.2.2,0,0,0,.2.2h11.983a.2.2,0,0,0,.2-.2V317a.2.2,0,0,0-.2-.2Zm-49.312,44.444a.2.2,0,0,1-.2.2h-7.407a.2.2,0,0,1-.2-.2v-2.525a.2.2,0,0,1,.2-.2h7.407a.2.2,0,0,1,.2.2Zm0-6.529a.2.2,0,0,1-.2.2h-7.407a.2.2,0,0,1-.2-.2v-2.529a.2.2,0,0,1,.2-.2h7.407a.2.2,0,0,1,.2.2Zm0-6.532a.2.2,0,0,1-.2.2h-7.407a.2.2,0,0,1-.2-.2v-2.525a.2.2,0,0,1,.2-.2h7.407a.2.2,0,0,1,.2.2Zm0-6.529a.2.2,0,0,1-.2.2h-7.407a.2.2,0,0,1-.2-.2v-2.525a.2.2,0,0,1,.2-.2h7.407a.2.2,0,0,1,.2.2Zm0-6.529a.2.2,0,0,1-.2.2h-7.407a.2.2,0,0,1-.2-.2v-2.529a.2.2,0,0,1,.2-.2h7.407a.2.2,0,0,1,.2.2Zm0-6.532a.2.2,0,0,1-.2.2h-7.407a.2.2,0,0,1-.2-.2v-2.525a.2.2,0,0,1,.2-.2h7.407a.2.2,0,0,1,.2.2Zm0-6.529a.2.2,0,0,1-.2.2h-7.407a.2.2,0,0,1-.2-.2v-2.525a.2.2,0,0,1,.2-.2h7.407a.2.2,0,0,1,.2.2Zm17.542,39.178a.2.2,0,0,1-.2.2h-7.407a.2.2,0,0,1-.2-.2v-2.525a.2.2,0,0,1,.2-.2h7.407a.2.2,0,0,1,.2.2Zm0-6.529a.2.2,0,0,1-.2.2h-7.407a.2.2,0,0,1-.2-.2v-2.529a.2.2,0,0,1,.2-.2h7.407a.2.2,0,0,1,.2.2Zm0-6.532a.2.2,0,0,1-.2.2h-7.407a.2.2,0,0,1-.2-.2v-2.525a.2.2,0,0,1,.2-.2h7.407a.2.2,0,0,1,.2.2Zm0-6.529a.2.2,0,0,1-.2.2h-7.407a.2.2,0,0,1-.2-.2v-2.525a.2.2,0,0,1,.2-.2h7.407a.2.2,0,0,1,.2.2Zm0-6.529a.2.2,0,0,1-.2.2h-7.407a.2.2,0,0,1-.2-.2v-2.529a.2.2,0,0,1,.2-.2h7.407a.2.2,0,0,1,.2.2Zm0-6.532a.2.2,0,0,1-.2.2h-7.407a.2.2,0,0,1-.2-.2v-2.525a.2.2,0,0,1,.2-.2h7.407a.2.2,0,0,1,.2.2Zm0-6.529a.2.2,0,0,1-.2.2h-7.407a.2.2,0,0,1-.2-.2v-2.525a.2.2,0,0,1,.2-.2h7.407a.2.2,0,0,1,.2.2Zm11.99,39.178a.2.2,0,0,1-.2.2h-7.407a.2.2,0,0,1-.2-.2v-2.525a.2.2,0,0,1,.2-.2h7.407a.2.2,0,0,1,.2.2Zm0-6.529a.2.2,0,0,1-.2.2h-7.407a.2.2,0,0,1-.2-.2v-2.529a.2.2,0,0,1,.2-.2h7.407a.2.2,0,0,1,.2.2Zm0-6.532a.2.2,0,0,1-.2.2h-7.407a.2.2,0,0,1-.2-.2v-2.525a.2.2,0,0,1,.2-.2h7.407a.2.2,0,0,1,.2.2Zm0-6.529a.2.2,0,0,1-.2.2h-7.407a.2.2,0,0,1-.2-.2v-2.525a.2.2,0,0,1,.2-.2h7.407a.2.2,0,0,1,.2.2Zm0-6.529a.2.2,0,0,1-.2.2h-7.407a.2.2,0,0,1-.2-.2v-2.529a.2.2,0,0,1,.2-.2h7.407a.2.2,0,0,1,.2.2Zm0-6.532a.2.2,0,0,1-.2.2h-7.407a.2.2,0,0,1-.2-.2v-2.525a.2.2,0,0,1,.2-.2h7.407a.2.2,0,0,1,.2.2Zm0-6.529a.2.2,0,0,1-.2.2h-7.407a.2.2,0,0,1-.2-.2v-2.525a.2.2,0,0,1,.2-.2h7.407a.2.2,0,0,1,.2.2Zm17.549,39.171a.2.2,0,0,1-.2.2h-7.407a.2.2,0,0,1-.2-.2v-2.525a.2.2,0,0,1,.2-.2h7.407a.2.2,0,0,1,.2.2Zm0-6.529a.2.2,0,0,1-.2.2h-7.407a.2.2,0,0,1-.2-.2v-2.529a.2.2,0,0,1,.2-.2h7.407a.2.2,0,0,1,.2.2Zm0-6.532a.2.2,0,0,1-.2.2h-7.407a.2.2,0,0,1-.2-.2v-2.525a.2.2,0,0,1,.2-.2h7.407a.2.2,0,0,1,.2.2Zm0-6.529a.2.2,0,0,1-.2.2h-7.407a.2.2,0,0,1-.2-.2V339.12a.2.2,0,0,1,.2-.2h7.407a.2.2,0,0,1,.2.2Zm0-6.522a.2.2,0,0,1-.2.2h-7.407a.2.2,0,0,1-.2-.2v-2.529a.2.2,0,0,1,.2-.2h7.407a.2.2,0,0,1,.2.2Zm0-6.532a.2.2,0,0,1-.2.2h-7.407a.2.2,0,0,1-.2-.2v-2.525a.2.2,0,0,1,.2-.2h7.407a.2.2,0,0,1,.2.2Zm0-6.529a.2.2,0,0,1-.2.2h-7.407a.2.2,0,0,1-.2-.2v-2.525a.2.2,0,0,1,.2-.2h7.407a.2.2,0,0,1,.2.2Z" transform="translate(-289.102 -254.98)"/>
    <path id="Path_555" data-name="Path 555" class="cls-1" d="M389.548,281.7a4.243,4.243,0,0,0-2.468.269,3.633,3.633,0,0,1-2.966,0,4.165,4.165,0,0,0-3.488.067,2.131,2.131,0,0,1-1.01.253c-1.414,0-2.593-1.424-2.835-3.3a2.729,2.729,0,0,0,.7-.764,3.978,3.978,0,0,1,7.1-.024,2.727,2.727,0,0,0,2.357,1.29h.037A2.956,2.956,0,0,1,389.548,281.7Z" transform="translate(-275.172 -234.596)"/>
    <path id="Path_556" data-name="Path 556" class="cls-1" d="M393.877,265.447l-2.286,1.451,1.387-2.525a2.266,2.266,0,0,0-1.38-.492h-.037a2.77,2.77,0,0,1-.475-.034l-.774.488.337-.6a2.758,2.758,0,0,1-1.347-1.027l-1.387.879.875-1.593a4.057,4.057,0,0,0-3.1-1.572,4.264,4.264,0,0,0-3.559,2.2,2.65,2.65,0,0,1-2.357,1.266h-.077c-1.589,0-2.882,1.8-2.882,4.04s1.293,4.04,2.882,4.04a2.182,2.182,0,0,0,1.01-.249,4.141,4.141,0,0,1,3.488-.067,3.67,3.67,0,0,0,2.966,0,4.158,4.158,0,0,1,3.458.064,2.125,2.125,0,0,0,1.01.246c1.589,0,2.882-1.8,2.882-4.04A5.124,5.124,0,0,0,393.877,265.447Z" transform="translate(-275.192 -224.242)"/>
    <rect id="Rectangle_129" data-name="Rectangle 129" class="cls-7" width="125.096" height="150.644" rx="19.8" transform="translate(170.186 34.676)"/>
    <rect id="Rectangle_130" data-name="Rectangle 130" class="cls-5" width="113.129" height="120.251" transform="translate(175.755 49.874)"/>
    <circle id="Ellipse_81" data-name="Ellipse 81" class="cls-5" cx="4.404" cy="4.404" r="4.404" transform="translate(228.329 173.647)"/>
    <path id="Path_557" data-name="Path 557" class="cls-5" d="M762.25,280.21a2.02,2.02,0,1,1,2.02-2.02A2.02,2.02,0,0,1,762.25,280.21Z" transform="translate(-529.517 -234.689)"/>
    <path id="Path_558" data-name="Path 558" class="cls-5" d="M761.879,275.917a1.869,1.869,0,1,1-1.865,1.869,1.869,1.869,0,0,1,1.865-1.869m0-.337a2.2,2.2,0,1,0,1.558.646A2.205,2.205,0,0,0,761.879,275.58Z" transform="translate(-529.145 -234.298)"/>
    <path id="Path_559" data-name="Path 559" class="cls-1" d="M722.82,431.431v-.04a10.812,10.812,0,0,0-.522-2.852l-.05-.155a10.875,10.875,0,0,0-18.4-3.714,15.871,15.871,0,0,0-.865-3.03,48.561,48.561,0,0,1-8.616.337,34.585,34.585,0,0,0,5.461,1.946l-.067.249a34.865,34.865,0,0,1-6.1-2.269l-.593-.286.673.044a48.693,48.693,0,0,0,9.165-.263,15.515,15.515,0,0,0-2.694-4.286,46.219,46.219,0,0,1-14.384-3.582l.1-.236a45.463,45.463,0,0,0,14.017,3.532,15.39,15.39,0,0,0-24.464,2.6,21.124,21.124,0,0,0-5.249-11.9,49.713,49.713,0,0,1-8.114,2.458A49.127,49.127,0,0,1,649.428,411a34.588,34.588,0,0,0,5.461,1.983l-.067.246a34.587,34.587,0,0,1-6.1-2.283l-.593-.286.673.044a48.724,48.724,0,0,0,21.266-3.367c-.253-.279-.515-.549-.785-.815-8.417.168-17.606.088-25.925-2.939a21.188,21.188,0,0,0-10.064,18.054,49.225,49.225,0,0,0,3,14.936,63.294,63.294,0,0,0,2.966,7.188c.579,1.182,1.2,2.33,1.845,3.427h0a39.389,39.389,0,0,0,2.576,3.859c.168.219.337.438.512.65a23.445,23.445,0,0,0,3.212,3.323h0c.239.2.478.387.721.566a13.577,13.577,0,0,0,2.057,1.283,9.429,9.429,0,0,0,3.892,1.064h.32v.044h57.528v-.044h.04a2.951,2.951,0,0,0,.973-.172c2.02-.724,3.909-3.623,5.465-7.286.337-.811.673-1.66.99-2.532.276-.771.535-1.559.784-2.357a72.389,72.389,0,0,0,1.811-7.071,37.122,37.122,0,0,0,.852-6.592C722.831,431.758,722.827,431.6,722.82,431.431Z" transform="translate(-445.317 -319.201)"/>
    <path id="Path_560" data-name="Path 560" class="cls-1" d="M689.357,400.064A21.117,21.117,0,0,0,664,397.205C672.118,400.117,681.091,400.218,689.357,400.064Z" transform="translate(-465.687 -313.005)"/>
    <path id="Path_561" data-name="Path 561" class="cls-1" d="M843.268,521.412l-8.879-15.384a.283.283,0,0,0-.492,0l-8.882,15.384a.283.283,0,0,0,.246.424h2.65a.286.286,0,0,1,.283.283v3.286a.286.286,0,0,0,.283.283h3.458a.286.286,0,0,0,.283-.283v-1.586a.279.279,0,0,1,.283-.283h3.286a.283.283,0,0,1,.283.283v1.586a.286.286,0,0,0,.283.283H839.8a.283.283,0,0,0,.269-.192.288.288,0,0,0,0-.091v-3.286a.283.283,0,0,1,.283-.283H843a.283.283,0,0,0,.266-.424Zm-12.38,1.684a.29.29,0,0,1-.2.084h-1.246a.286.286,0,0,1-.283-.283.273.273,0,0,1,.084-.2.282.282,0,0,1,.2-.084h1.246a.286.286,0,0,1,.286.286A.283.283,0,0,1,830.887,523.1Zm8.158,0a.29.29,0,0,1-.2.084H837.6a.286.286,0,0,1,0-.569h1.246a.286.286,0,0,1,.286.286.283.283,0,0,1-.084.2Z" transform="translate(-572.464 -387.061)"/>
    <path id="Path_562" data-name="Path 562" class="cls-1" d="M682.7,521.782,673.821,506.4a.283.283,0,0,0-.492,0l-7.67,13.286a23.379,23.379,0,0,0,3.212,3.32h1.246a.283.283,0,0,1,.2.481.273.273,0,0,1-.2.084h-.525a13.809,13.809,0,0,0,2.057,1.279v-.673a.283.283,0,0,1,.283-.283h3.286a.286.286,0,0,1,.283.283v1.586a.264.264,0,0,0,.027.118.279.279,0,0,0,.256.165h3.458a.283.283,0,0,0,.226-.115.29.29,0,0,0,.057-.168v-3.286a.283.283,0,0,1,.283-.283h2.65a.283.283,0,0,0,.242-.411Zm-5.869,1.3a.28.28,0,0,1,.2-.081h1.249a.279.279,0,0,1,.2.481.269.269,0,0,1-.2.084H677.03a.286.286,0,0,1-.283-.283A.29.29,0,0,1,676.832,523.082Zm-5.579-5.69a.283.283,0,0,1-.283-.286v-2.151a.283.283,0,0,1,.283-.283H675.9a.286.286,0,0,1,.283.283v2.151a.286.286,0,0,1-.283.286Z" transform="translate(-466.788 -387.306)"/>
    <path id="Path_563" data-name="Path 563" class="cls-1" d="M752.336,458.785h-10.99v-2.374a.569.569,0,0,0-.569-.569h-3.225V453.3a.357.357,0,0,0-.357-.357h-4.158a.354.354,0,0,0-.357.357v2.532h-3.794a.569.569,0,0,0-.569.569v2.374H717.838a.118.118,0,0,0-.118.114v31.555a.118.118,0,0,0,.118.114H724.8a.114.114,0,0,0,.115-.114v-4.232a.118.118,0,0,1,.118-.115h2.939a.118.118,0,0,1,.118.115v4.246a.114.114,0,0,0,.114.114h13.764a.114.114,0,0,0,.115-.114v-4.246a.114.114,0,0,1,.114-.115h2.943a.115.115,0,0,1,.115.115v4.246a.118.118,0,0,0,.118.114h6.963a.114.114,0,0,0,.115-.115V458.9a.114.114,0,0,0-.115-.114Zm-28.666,25.825a.114.114,0,0,1-.114.114h-4.3a.115.115,0,0,1-.115-.114v-1.471a.115.115,0,0,1,.115-.115h4.3a.114.114,0,0,1,.114.115Zm0-3.8a.114.114,0,0,1-.114.115h-4.3a.114.114,0,0,1-.115-.115v-1.468a.115.115,0,0,1,.115-.115h4.3a.114.114,0,0,1,.114.115Zm0-3.795a.114.114,0,0,1-.114.115h-4.3a.115.115,0,0,1-.115-.115v-1.471a.115.115,0,0,1,.115-.114h4.3a.114.114,0,0,1,.114.114Zm0-3.8a.118.118,0,0,1-.114.118h-4.3a.118.118,0,0,1-.115-.118v-1.468a.115.115,0,0,1,.115-.114h4.3a.114.114,0,0,1,.114.114Zm0-3.795a.114.114,0,0,1-.114.115h-4.3a.115.115,0,0,1-.115-.115v-1.471a.115.115,0,0,1,.115-.115h4.3a.114.114,0,0,1,.114.115Zm0-3.795a.114.114,0,0,1-.114.114h-4.3a.114.114,0,0,1-.115-.114v-1.471a.115.115,0,0,1,.115-.115h4.3a.114.114,0,0,1,.114.115Zm0-3.8a.114.114,0,0,1-.114.114h-4.3a.114.114,0,0,1-.115-.114v-1.465a.115.115,0,0,1,.115-.115h4.3a.114.114,0,0,1,.114.115Zm10.2,22.777a.114.114,0,0,1-.114.114h-4.3a.115.115,0,0,1-.115-.114v-1.471a.114.114,0,0,1,.114-.115h4.3a.114.114,0,0,1,.114.115Zm0-3.8a.114.114,0,0,1-.114.115h-4.3a.114.114,0,0,1-.115-.115v-1.468a.114.114,0,0,1,.114-.115h4.3a.114.114,0,0,1,.114.115Zm0-3.795a.114.114,0,0,1-.114.115h-4.3a.115.115,0,0,1-.115-.115v-1.471a.114.114,0,0,1,.114-.114h4.3a.114.114,0,0,1,.114.114Zm0-3.8a.118.118,0,0,1-.114.118h-4.3a.118.118,0,0,1-.115-.118v-1.468a.114.114,0,0,1,.114-.114h4.3a.114.114,0,0,1,.114.114Zm0-3.795a.114.114,0,0,1-.114.115h-4.3a.115.115,0,0,1-.115-.115v-1.471a.114.114,0,0,1,.114-.115h4.3a.114.114,0,0,1,.114.115Zm0-3.795a.114.114,0,0,1-.114.114h-4.3a.114.114,0,0,1-.115-.114v-1.471a.114.114,0,0,1,.114-.115h4.3a.114.114,0,0,1,.114.115Zm0-3.8a.114.114,0,0,1-.114.114h-4.3a.114.114,0,0,1-.115-.114v-1.465a.114.114,0,0,1,.114-.115h4.3a.114.114,0,0,1,.114.115Zm6.97,22.777a.115.115,0,0,1-.115.114h-4.3a.114.114,0,0,1-.114-.114v-1.471a.114.114,0,0,1,.114-.115h4.29a.114.114,0,0,1,.114.115Zm0-3.8a.114.114,0,0,1-.115.115h-4.3a.114.114,0,0,1-.114-.115v-1.468a.114.114,0,0,1,.114-.115h4.29a.114.114,0,0,1,.114.115Zm0-3.795a.115.115,0,0,1-.115.115h-4.3a.114.114,0,0,1-.114-.115v-1.471a.114.114,0,0,1,.114-.114h4.29a.114.114,0,0,1,.114.114Zm0-3.8a.118.118,0,0,1-.115.118h-4.3a.118.118,0,0,1-.114-.118v-1.468a.114.114,0,0,1,.114-.114h4.29a.114.114,0,0,1,.114.114Zm0-3.795a.115.115,0,0,1-.115.115h-4.3a.114.114,0,0,1-.114-.115v-1.471a.114.114,0,0,1,.114-.115h4.29a.114.114,0,0,1,.114.115Zm0-3.795a.114.114,0,0,1-.115.114h-4.3a.114.114,0,0,1-.114-.114v-1.471a.115.115,0,0,1,.114-.115h4.29a.115.115,0,0,1,.114.115Zm0-3.8a.114.114,0,0,1-.115.114h-4.3a.114.114,0,0,1-.114-.114v-1.465a.114.114,0,0,1,.114-.115h4.29a.114.114,0,0,1,.114.115Zm10.2,22.777a.118.118,0,0,1-.114.115h-4.3a.114.114,0,0,1-.114-.114v-1.471a.115.115,0,0,1,.115-.115h4.3a.115.115,0,0,1,.115.115Zm0-3.8a.114.114,0,0,1-.114.115h-4.3a.114.114,0,0,1-.114-.115v-1.468a.114.114,0,0,1,.114-.115h4.3a.115.115,0,0,1,.115.115Zm0-3.795a.114.114,0,0,1-.114.115h-4.3a.114.114,0,0,1-.114-.115v-1.471a.114.114,0,0,1,.114-.114h4.3a.118.118,0,0,1,.114.114Zm0-3.8a.118.118,0,0,1-.115.118h-4.3a.118.118,0,0,1-.114-.118v-1.468a.114.114,0,0,1,.114-.114h4.3a.115.115,0,0,1,.115.114Zm0-3.795a.114.114,0,0,1-.114.115h-4.3a.114.114,0,0,1-.114-.115v-1.471a.114.114,0,0,1,.114-.115h4.3a.118.118,0,0,1,.114.115Zm0-3.795a.118.118,0,0,1-.114.114h-4.3a.114.114,0,0,1-.114-.114v-1.471a.115.115,0,0,1,.114-.115h4.3a.115.115,0,0,1,.115.115Zm0-3.8a.114.114,0,0,1-.114.114h-4.3a.114.114,0,0,1-.114-.114v-1.465a.114.114,0,0,1,.114-.115h4.3a.115.115,0,0,1,.115.115Z" transform="translate(-501.32 -351.942)"/>
    <path id="Path_564" data-name="Path 564" class="cls-1" d="M712.967,438.406a2.488,2.488,0,0,0-1.434.155,2.135,2.135,0,0,1-.859.182,2.1,2.1,0,0,1-.865-.185,2.418,2.418,0,0,0-2.02.04,1.252,1.252,0,0,1-.582.145c-.822,0-1.505-.828-1.646-1.919a1.626,1.626,0,0,0,.411-.444,2.31,2.31,0,0,1,4.125,0,1.576,1.576,0,0,0,1.347.751h.023A1.684,1.684,0,0,1,712.967,438.406Z" transform="translate(-493.254 -340.115)"/>
    <path id="Path_565" data-name="Path 565" class="cls-1" d="M715.432,428.979l-1.347.845.808-1.468a1.32,1.32,0,0,0-.8-.286h0a1.865,1.865,0,0,1-.276-.02l-.451.283.2-.337a1.589,1.589,0,0,1-.788-.6l-.808.508.512-.926a2.357,2.357,0,0,0-1.808-.912,2.475,2.475,0,0,0-2.067,1.276,1.549,1.549,0,0,1-1.367.737h-.044c-.926,0-1.683,1.047-1.683,2.357s.751,2.357,1.683,2.357a1.255,1.255,0,0,0,.582-.148,2.418,2.418,0,0,1,2.02-.037,2.157,2.157,0,0,0,.865.185,2.135,2.135,0,0,0,.859-.182,2.421,2.421,0,0,1,2.02.037,1.225,1.225,0,0,0,.576.145c.926,0,1.683-1.05,1.683-2.357A2.984,2.984,0,0,0,715.432,428.979Z" transform="translate(-493.214 -334.119)"/>
    <rect id="Rectangle_131" data-name="Rectangle 131" class="cls-8" width="1.805" height="14.872" rx="0.902" transform="translate(332.87 90.635)"/>
    <rect id="Rectangle_132" data-name="Rectangle 132" class="cls-8" width="1.013" height="4.896" rx="0.507" transform="translate(272.908 78.985)"/>
    <rect id="Rectangle_133" data-name="Rectangle 133" class="cls-8" width="1.141" height="8.522" rx="0.571" transform="translate(272.871 87.948)"/>
    <rect id="Rectangle_134" data-name="Rectangle 134" class="cls-8" width="1.088" height="8.596" rx="0.544" transform="translate(272.888 99.449)"/>
    <rect id="Rectangle_135" data-name="Rectangle 135" class="cls-9" width="60.366" height="122.681" rx="18.54" transform="translate(273.48 62.804)"/>
    <rect id="Rectangle_136" data-name="Rectangle 136" class="cls-10" width="8.431" height="1.71" rx="0.855" transform="translate(297.84 66.467)"/>
    <circle id="Ellipse_82" data-name="Ellipse 82" class="cls-10" cx="0.97" cy="0.97" r="0.97" transform="translate(307.544 66.356)"/>
    <path id="Path_566" data-name="Path 566" class="cls-5" d="M946.434,349h-6.909v.832a3.949,3.949,0,0,1-3.939,3.946h-22.04a3.949,3.949,0,0,1-3.949-3.949V349h-6.481a4.8,4.8,0,0,0-4.795,4.795v106.7a4.8,4.8,0,0,0,4.794,4.795h43.319a4.791,4.791,0,0,0,4.794-4.795v-106.7A4.794,4.794,0,0,0,946.434,349Z" transform="translate(-621.113 -282.998)"/>
    <path id="Path_567" data-name="Path 567" class="cls-1" d="M957.637,499.932h0a4.821,4.821,0,0,0-.236-1.29.6.6,0,0,0-.024-.071,4.9,4.9,0,0,0-8.3-1.684,6.9,6.9,0,0,0-.391-1.37,22.1,22.1,0,0,1-3.889.145,16.088,16.088,0,0,0,2.465.9l-.03.111a15.763,15.763,0,0,1-2.754-1.03l-.266-.131.3.02a22.016,22.016,0,0,0,4.135-.118,7,7,0,0,0-1.219-1.936,20.846,20.846,0,0,1-6.488-1.613l.047-.108a20.5,20.5,0,0,0,6.323,1.593,6.946,6.946,0,0,0-11.037,1.175,9.545,9.545,0,0,0-2.357-5.367,22.331,22.331,0,0,1-9.384,1.562,15.747,15.747,0,0,0,2.464.9l-.03.111a15.76,15.76,0,0,1-2.754-1.03l-.266-.128.3.02a21.972,21.972,0,0,0,9.592-1.522c-.115-.125-.232-.246-.354-.367-3.8.077-7.943.04-11.69-1.327a9.562,9.562,0,0,0-4.539,8.145,22.224,22.224,0,0,0,1.347,6.734,28.187,28.187,0,0,0,1.347,3.246q.394.8.832,1.549h0a18.193,18.193,0,0,0,1.162,1.741l.232.293a10.77,10.77,0,0,0,1.448,1.5h0a3.685,3.685,0,0,0,.337.256,6.383,6.383,0,0,0,.926.579,4.351,4.351,0,0,0,1.751.475h.145v.017h25.956v-.017h.02a1.32,1.32,0,0,0,.438-.078c.919-.337,1.764-1.633,2.465-3.286.158-.367.306-.751.448-1.145s.242-.7.354-1.061c.337-1.077.613-2.185.818-3.188a16.945,16.945,0,0,0,.384-2.973A1.664,1.664,0,0,1,957.637,499.932Z" transform="translate(-633.669 -374.779)"/>
    <path id="Path_568" data-name="Path 568" class="cls-1" d="M942.518,485.817a9.528,9.528,0,0,0-11.448-1.289C934.75,485.817,938.791,485.875,942.518,485.817Z" transform="translate(-642.836 -372.005)"/>
    <path id="Path_569" data-name="Path 569" class="cls-1" d="M1011.972,540.5l-4.007-6.939a.128.128,0,0,0-.222,0l-4.007,6.939a.128.128,0,0,0,.111.192h1.2a.128.128,0,0,1,.128.128V542.3a.128.128,0,0,0,.128.128h1.545a.128.128,0,0,0,.128-.128v-.714a.128.128,0,0,1,.128-.128h1.481a.128.128,0,0,1,.128.128v.714a.128.128,0,0,0,.128.128h1.559a.128.128,0,0,0,.121-.088.125.125,0,0,0,0-.04v-1.481a.128.128,0,0,1,.128-.128h1.2a.128.128,0,0,0,.131-.192Zm-5.586.768a.132.132,0,0,1-.091.037h-.562a.128.128,0,0,1-.128-.128.119.119,0,0,1,.037-.088.135.135,0,0,1,.091-.04h.562a.128.128,0,0,1,.128.128A.125.125,0,0,1,1006.386,541.27Zm3.68,0a.125.125,0,0,1-.091.037h-.562a.128.128,0,0,1-.128-.128.119.119,0,0,1,.037-.088.134.134,0,0,1,.091-.04h.562a.128.128,0,0,1,.128.128A.124.124,0,0,1,1010.066,541.27Z" transform="translate(-691.024 -405.377)"/>
    <path id="Path_570" data-name="Path 570" class="cls-1" d="M939.537,540.682l-4.007-6.939a.128.128,0,0,0-.222,0l-3.458,5.993a10.78,10.78,0,0,0,1.448,1.5h.562a.128.128,0,1,1,0,.252h-.236a6.369,6.369,0,0,0,.926.579v-.3a.128.128,0,0,1,.128-.128h1.485a.128.128,0,0,1,.125.128v.714a.131.131,0,0,0,.128.128h1.562a.128.128,0,0,0,.1-.05.118.118,0,0,0,.024-.077V541a.128.128,0,0,1,.128-.128h1.2a.128.128,0,0,0,.111-.192Zm-2.646.589a.117.117,0,0,1,.087-.037h.562a.128.128,0,1,1,0,.252h-.562a.128.128,0,0,1-.128-.128.125.125,0,0,1,.041-.088Zm-2.518-2.569a.128.128,0,0,1-.128-.128v-.97a.128.128,0,0,1,.128-.128h2.1a.128.128,0,0,1,.128.128v.97a.128.128,0,0,1-.128.128Z" transform="translate(-643.353 -405.496)"/>
    <path id="Path_571" data-name="Path 571" class="cls-1" d="M970.982,512.273h-4.956V511.2a.256.256,0,0,0-.256-.256h-1.461V509.8a.162.162,0,0,0-.158-.162h-1.875a.162.162,0,0,0-.162.162v1.141H960.4a.256.256,0,0,0-.256.256v1.074h-4.714a.051.051,0,0,0-.051.051v14.235a.054.054,0,0,0,.051.054h3.141a.054.054,0,0,0,.054-.054v-1.916a.051.051,0,0,1,.051-.051H960a.054.054,0,0,1,.054.05v1.916a.054.054,0,0,0,.05.054h6.209a.054.054,0,0,0,.054-.054v-1.916a.051.051,0,0,1,.051-.051h1.327a.054.054,0,0,1,.054.05v1.916a.054.054,0,0,0,.051.054H971a.054.054,0,0,0,.05-.054V512.323a.051.051,0,0,0-.064-.051ZM958.05,523.926a.054.054,0,0,1-.054.054h-1.939a.054.054,0,0,1-.054-.054v-.673a.054.054,0,0,1,.054-.05H958a.054.054,0,0,1,.054.05Zm0-1.71a.054.054,0,0,1-.054.05h-1.939a.054.054,0,0,1-.054-.05v-.673a.054.054,0,0,1,.054-.054H958a.054.054,0,0,1,.054.054Zm0-1.714a.054.054,0,0,1-.054.054h-1.939A.054.054,0,0,1,956,520.5v-.673a.054.054,0,0,1,.054-.051H958a.054.054,0,0,1,.054.051Zm0-1.714a.054.054,0,0,1-.054.054h-1.939a.054.054,0,0,1-.054-.054v-.673a.054.054,0,0,1,.054-.054H958a.054.054,0,0,1,.054.054Zm0-1.71a.054.054,0,0,1-.054.05h-1.939a.054.054,0,0,1-.054-.05V516.4a.054.054,0,0,1,.054-.05H958a.054.054,0,0,1,.054.05Zm0-1.714a.054.054,0,0,1-.054.054h-1.939a.054.054,0,0,1-.054-.054v-.673a.054.054,0,0,1,.054-.05H958a.054.054,0,0,1,.054.05Zm0-1.71a.054.054,0,0,1-.054.051h-1.939a.054.054,0,0,1-.054-.051v-.673a.054.054,0,0,1,.054-.054H958a.054.054,0,0,1,.054.054Zm4.609,10.273a.054.054,0,0,1-.051.054h-1.943a.054.054,0,0,1-.051-.054v-.673a.051.051,0,0,1,.051-.05h1.943a.051.051,0,0,1,.051.05Zm0-1.71a.051.051,0,0,1-.051.051h-1.943a.05.05,0,0,1-.051-.05v-.673a.054.054,0,0,1,.051-.054h1.943a.054.054,0,0,1,.051.054Zm0-1.714a.054.054,0,0,1-.051.054h-1.943a.054.054,0,0,1-.051-.054v-.673a.051.051,0,0,1,.051-.051h1.943a.051.051,0,0,1,.051.051Zm0-1.714a.054.054,0,0,1-.051.054h-1.943a.054.054,0,0,1-.051-.054v-.673a.054.054,0,0,1,.051-.054h1.943a.054.054,0,0,1,.051.054Zm0-1.71a.051.051,0,0,1-.051.051h-1.943a.05.05,0,0,1-.051-.05V516.4a.05.05,0,0,1,.051-.05h1.943a.051.051,0,0,1,.051.05Zm0-1.714a.054.054,0,0,1-.051.054h-1.943a.054.054,0,0,1-.051-.054v-.673a.05.05,0,0,1,.051-.05h1.943a.051.051,0,0,1,.051.05Zm0-1.71a.051.051,0,0,1-.051.051h-1.943a.05.05,0,0,1-.051-.051v-.673a.054.054,0,0,1,.051-.054h1.943a.054.054,0,0,1,.051.054Zm3.145,10.273a.054.054,0,0,1-.054.054h-1.939a.054.054,0,0,1-.054-.054v-.673a.054.054,0,0,1,.054-.051h1.939a.054.054,0,0,1,.054.051Zm0-1.71a.054.054,0,0,1-.054.05h-1.939a.054.054,0,0,1-.054-.051v-.673a.054.054,0,0,1,.054-.054h1.939a.054.054,0,0,1,.054.054Zm0-1.714a.054.054,0,0,1-.054.054h-1.939a.054.054,0,0,1-.054-.054v-.673a.054.054,0,0,1,.054-.05h1.939a.054.054,0,0,1,.054.05Zm0-1.714a.054.054,0,0,1-.054.054h-1.939a.054.054,0,0,1-.054-.054v-.673a.054.054,0,0,1,.054-.054h1.939a.054.054,0,0,1,.054.054Zm0-1.71a.054.054,0,0,1-.054.051h-1.939a.054.054,0,0,1-.054-.051V516.4a.054.054,0,0,1,.054-.051h1.939a.054.054,0,0,1,.054.051Zm0-1.714a.054.054,0,0,1-.054.054h-1.939a.054.054,0,0,1-.054-.054v-.673a.054.054,0,0,1,.054-.05h1.939a.054.054,0,0,1,.054.05Zm0-1.71a.054.054,0,0,1-.054.05h-1.939a.054.054,0,0,1-.054-.051v-.673a.054.054,0,0,1,.054-.054h1.939a.054.054,0,0,1,.054.054Zm4.6,10.273a.054.054,0,0,1-.051.054H968.41a.054.054,0,0,1-.051-.054v-.673a.05.05,0,0,1,.015-.036.05.05,0,0,1,.036-.015h1.943a.051.051,0,0,1,.051.05Zm0-1.71a.05.05,0,0,1-.051.051H968.41a.051.051,0,0,1-.051-.05v-.673a.054.054,0,0,1,.051-.054h1.943a.054.054,0,0,1,.051.054Zm0-1.714a.054.054,0,0,1-.051.054H968.41a.054.054,0,0,1-.051-.054v-.673a.05.05,0,0,1,.015-.036.05.05,0,0,1,.036-.015h1.943a.051.051,0,0,1,.051.051Zm0-1.714a.054.054,0,0,1-.051.054H968.41a.054.054,0,0,1-.051-.054v-.673a.054.054,0,0,1,.051-.054h1.943a.054.054,0,0,1,.051.054Zm0-1.71a.051.051,0,0,1-.051.051H968.41a.051.051,0,0,1-.051-.05V516.4a.05.05,0,0,1,.015-.036.05.05,0,0,1,.036-.015h1.943a.05.05,0,0,1,.051.05Zm0-1.714a.054.054,0,0,1-.051.054H968.41a.054.054,0,0,1-.051-.054v-.673a.05.05,0,0,1,.051-.05h1.943a.05.05,0,0,1,.051.05Zm0-1.71a.051.051,0,0,1-.051.051H968.41a.05.05,0,0,1-.036-.015.05.05,0,0,1-.015-.036v-.673a.054.054,0,0,1,.051-.054h1.943a.054.054,0,0,1,.051.054Z" transform="translate(-658.961 -389.551)"/>
    <path id="Path_572" data-name="Path 572" class="cls-1" d="M953.177,503.076a1.121,1.121,0,0,0-.646.071.95.95,0,0,1-.387.081.916.916,0,0,1-.391-.084,1.1,1.1,0,0,0-.916.02.583.583,0,0,1-.263.064c-.37,0-.673-.374-.744-.865a.693.693,0,0,0,.185-.2,1.044,1.044,0,0,1,1.862,0,.711.711,0,0,0,.616.337h0A.768.768,0,0,1,953.177,503.076Z" transform="translate(-655.279 -384.213)"/>
    <path id="Path_573" data-name="Path 573" class="cls-1" d="M954.328,498.8l-.6.377.364-.673a.589.589,0,0,0-.364-.131h0a.507.507,0,0,1-.125,0l-.205.128.088-.158a.737.737,0,0,1-.354-.269l-.364.229.229-.418a1.064,1.064,0,0,0-.815-.411,1.111,1.111,0,0,0-.929.583.7.7,0,0,1-.616.337h-.02c-.417,0-.758.475-.758,1.057s.337,1.057.758,1.057a.552.552,0,0,0,.263-.064,1.088,1.088,0,0,1,.916,0,.976.976,0,0,0,.778,0,1.091,1.091,0,0,1,.906,0,.538.538,0,0,0,.259.064c.417,0,.758-.471.758-1.057A1.346,1.346,0,0,0,954.328,498.8Z" transform="translate(-655.299 -381.479)"/>
    <path id="Path_574" data-name="Path 574" class="cls-8" d="M144.781,674.009a12.457,12.457,0,0,1-.269,2.613c-.034.162-.071.32-.108.475-.956,3.835-3.653,6.64-6.872,6.818H137.2c-3.4,0-6.283-2.936-7.232-6.98-.027-.108-.051-.216-.074-.337a12.458,12.458,0,0,1-.269-2.613c0-5.478,3.391-9.916,7.576-9.916S144.781,668.531,144.781,674.009Z" transform="translate(-111.23 -491.986)"/>
    <path id="Path_575" data-name="Path 575" class="cls-3" d="M144.808,674.042a12.458,12.458,0,0,1-.269,2.613c-.034.162-.071.32-.108.475h-.337a15.41,15.41,0,0,1-2.478-.337,15.144,15.144,0,0,1-2.209.505,15.437,15.437,0,0,1-1.731.162h-.586a15.636,15.636,0,0,1-2.076-.138,15.209,15.209,0,0,1-3.254-.808,15.36,15.36,0,0,1-1.758.471c-.027-.108-.051-.216-.074-.337a12.458,12.458,0,0,1-.269-2.613c0-5.478,3.391-9.916,7.576-9.916S144.808,668.564,144.808,674.042Z" transform="translate(-111.256 -492.019)"/>
    <path id="Path_576" data-name="Path 576" class="cls-6" d="M125.189,594.747a15.354,15.354,0,0,0-1.65-6.939l-8.909,2.771,7.821-4.6a15.39,15.39,0,0,0-11.569-6.6,15.364,15.364,0,0,0-1.2-1.589l-12.794,3.983,10.495-6.172a15.4,15.4,0,0,0-24.242,8.212L94.1,596.438l-11.889-8.6A15.4,15.4,0,0,0,95.991,615.01a15.46,15.46,0,0,0,9.858.273,15.4,15.4,0,0,0,18.727-15.037c0-.337,0-.673-.034-1.01A15.4,15.4,0,0,0,125.189,594.747Z" transform="translate(-75.476 -431.198)"/>
    <path id="Path_577" data-name="Path 577" class="cls-3" d="M124.877,640.232a41.125,41.125,0,0,0-14.256-.182c-5.35.885-10.818,2.835-16.05,1.411-3.071-.835-5.724-2.768-8.724-3.842a16.559,16.559,0,0,0-9.007-.539,15.407,15.407,0,0,0,19.087,20.559,15.462,15.462,0,0,0,9.858.273,15.4,15.4,0,0,0,18.727-15.037c0-.337,0-.673-.034-1.01A15.494,15.494,0,0,0,124.877,640.232Z" transform="translate(-75.43 -473.828)"/>
    <path id="Path_591" data-name="Path 591" class="cls-1" d="M556.153,472.219a.465.465,0,0,0-.246.027.337.337,0,0,1-.3,0,.414.414,0,0,0-.337,0,.2.2,0,0,1-.1.027c-.141,0-.259-.145-.283-.337a.26.26,0,0,0,.071-.077.368.368,0,0,1,.673,0,.273.273,0,0,0,.232.128h0A.293.293,0,0,1,556.153,472.219Z" transform="translate(-393.314 -364.346)"/>
  </g>
</svg>
