<svg xmlns="http://www.w3.org/2000/svg" width="552" height="446.409" viewBox="0 0 552 446.409">
  <defs>
    <style>
      .cls-1 {
        fill: #fb981f;
      }

      .cls-2 {
        fill: #cf2d46;
      }

      .cls-3 {
        fill: #3f3d56;
      }
    </style>
  </defs>
  <g id="UI-design-large" transform="translate(0 -0.021)">
    <g id="Layer_1" data-name="Layer 1" transform="translate(0 0.021)">
      <path id="Path_708" data-name="Path 708" class="cls-1" d="M40.467,250.764C39.778,149.554,99.978,58,192.743,19.185a246.005,246.005,0,0,1,190.273-.048A248.8,248.8,0,0,1,535.4,250.764l-.413-12.231c-.28-4.07-.7-8.133-.994-12.2-.063-1.016-.217-2.024-.35-3.033l-.406-3.033-.8-6.059c-.07-.5-.133-1.009-.21-1.51l-.273-1.5-.553-3.012-1.106-6A250.754,250.754,0,0,0,462.167,75.219l-8.827-8.373c-3.059-2.638-6.1-5.311-9.184-7.914-3.192-2.483-6.3-5.043-9.541-7.484l-4.9-3.527-2.464-1.756c-.819-.585-1.631-1.192-2.492-1.721A244.129,244.129,0,0,0,335.946,7.518,244.986,244.986,0,0,0,151.12,44.444,249.554,249.554,0,0,0,45.571,202.178l-1.106,6-.553,3.012-.273,1.509c-.084.5-.14,1.009-.21,1.51l-.805,6.059-.4,3.033c-.133,1.009-.287,2.017-.35,3.033-.329,4.063-.7,8.126-.994,12.2Z" transform="translate(-11.921 -0.021)"/>
      <path id="Path_709" data-name="Path 709" class="cls-2" d="M476.66,228.6a80.558,80.558,0,0,1,5.015-6.419c1.778-2.024,3.569-4.056,5.474-5.953s3.83-3.809,5.8-5.643,4.042-3.576,6.073-5.382,4.2-3.407,6.306-5.128,4.345-3.238,6.525-4.867,4.43-3.16,6.7-4.648,4.507-3.09,6.856-4.437l7.011-4.232c2.349-1.411,4.768-2.624,7.16-3.95s4.8-2.666,7.265-3.809l7.385-3.59c2.455-1.249,4.98-2.264,7.491-3.365l7.583-3.266c5.093-2.017,10.235-3.908,15.391-5.876h0l16.929-3.2.593,15.243c.148,3.915.092,7.054,0,10.5s-.282,6.68-.522,9.988c-.458,6.623-1.227,13.183-2.116,19.694-.48,3.259-1.079,6.5-1.615,9.734s-1.326,6.44-1.975,9.642-1.51,6.384-2.328,9.551-1.629,6.348-2.68,9.431-1.919,6.242-3.026,9.311l-3.484,9.17c-1.079,3.054-2.631,5.967-3.915,8.937a82.539,82.539,0,0,1-4.324,8.7l-4.648,8.514c-1.7,2.758-3.527,5.438-5.248,8.14l-2.631,4.035-2.963,3.809-5.911,7.554-2.7-1.954,4.479-8.232,2.215-4.084,1.869-4.281c1.227-2.821,2.511-5.643,3.682-8.464l3.033-8.746c1.086-2.871,1.834-5.869,2.631-8.838s1.721-5.869,2.25-8.909l1.82-8.993c.543-3,.9-6.052,1.347-9.064s.755-6.045,1.016-9.085.607-6.045.705-9.1.339-6.066.332-9.106.05-6.066,0-9.092c-.162-6.052-.459-12.09-1.037-18.064-.282-2.991-.6-5.96-1.016-8.888s-.875-6-1.375-8.351l17.514,12.048h0c-4.938.839-10,1.622-15,2.518l-7.442,1.58c-2.483.543-5,1-7.434,1.693l-7.385,1.919c-2.49.593-4.888,1.411-7.329,2.116s-4.937,1.453-7.3,2.307L532.5,200.3c-2.441.811-4.74,1.883-7.131,2.821s-4.747,1.94-7.053,3.047-4.7,2.081-6.948,3.3-4.606,2.307-6.828,3.59-4.521,2.483-6.673,3.887-4.38,2.723-6.489,4.232a96.227,96.227,0,0,0-12.09,9.565Z" transform="translate(-143.394 -46.796)"/>
      <path id="Path_710" data-name="Path 710" class="cls-2" d="M258.808,228.6a78.93,78.93,0,0,0-5.015-6.419c-1.778-2.024-3.569-4.056-5.474-5.953s-3.823-3.809-5.8-5.643-4.042-3.576-6.073-5.382-4.2-3.407-6.306-5.128-4.345-3.238-6.525-4.867-4.423-3.16-6.7-4.648-4.507-3.09-6.856-4.437l-7.011-4.232c-2.349-1.411-4.768-2.624-7.16-3.95s-4.8-2.666-7.265-3.809l-7.385-3.59c-2.455-1.249-4.98-2.264-7.491-3.365l-7.533-3.266c-5.093-2.017-10.235-3.908-15.391-5.876h0l-16.929-3.2-.592,15.243c-.148,3.915-.092,7.054,0,10.5s.282,6.68.522,9.988c.458,6.623,1.227,13.183,2.116,19.694.48,3.259,1.079,6.5,1.615,9.734s1.326,6.44,1.975,9.642,1.51,6.384,2.328,9.551,1.629,6.348,2.68,9.431,1.919,6.242,3.026,9.311l3.485,9.17c1.079,3.054,2.631,5.967,3.915,8.937a82.7,82.7,0,0,0,4.274,8.74l4.648,8.514c1.7,2.758,3.527,5.438,5.248,8.14l2.631,4.035,2.97,3.809,5.9,7.554,2.7-1.954-4.472-8.267-2.215-4.084-1.869-4.281c-1.227-2.821-2.511-5.643-3.682-8.464l-3.026-8.746a90.871,90.871,0,0,1-2.631-8.838c-.705-2.984-1.728-5.869-2.257-8.909l-1.813-8.993c-.55-3-.9-6.052-1.354-9.064s-.755-6.045-1.016-9.085-.607-6.045-.705-9.1-.339-6.066-.332-9.106-.049-6.066,0-9.092c.169-6.052.459-12.09,1.037-18.064.282-2.991.607-5.96,1.016-8.888s.875-6,1.411-8.351l-17.521,12.048h0c4.973.839,9.995,1.622,15,2.518l7.442,1.58c2.483.543,5,1,7.435,1.693l7.385,1.919c2.5.593,4.888,1.411,7.329,2.116s4.938,1.453,7.3,2.307l7.209,2.582c2.441.811,4.74,1.883,7.131,2.821s4.747,1.94,7.054,3.047,4.7,2.081,6.948,3.3,4.606,2.307,6.828,3.59,4.521,2.483,6.673,3.887,4.387,2.723,6.489,4.232a96.221,96.221,0,0,1,12.09,9.565Z" transform="translate(-40.074 -46.797)"/>
      <path id="Path_711" data-name="Path 711" class="cls-3" d="M473.66,377.2C399.9,432.356,407.236,542.2,407.236,542.2S498,563.589,571.79,508.436,675.7,328.8,675.7,328.8,547.413,322.051,473.66,377.2Zm80.2,142.971C500.055,551.1,442.052,547.436,418.3,544.121c.959-24.6,7.978-78.486,49.22-109.332,54.666-40.848,149.693-35.847,149.693-35.847S598.615,475.693,553.86,520.174Z" transform="translate(-123.705 -99.87)"/>
      <path id="Path_712" data-name="Path 712" class="cls-3" d="M202.045,377.2C128.292,322.051,0,328.8,0,328.8s30.161,124.49,103.915,179.635S268.469,542.2,268.469,542.2,275.8,432.356,202.045,377.2Zm-80.2,142.971c-44.755-44.48-63.363-121.231-63.363-121.231s95.041-5,149.679,35.861c41.243,30.831,48.261,84.721,49.22,109.332C233.652,547.436,175.636,551.1,121.845,520.174Z" transform="translate(0 -99.87)"/>
      <path id="Path_713" data-name="Path 713" class="cls-3" d="M354.99,377.064c15.751-40.319,44.142-75.538,93.383-114.827C436.51,173.975,354.99,97.88,354.99,97.88s-81.547,76.095-93.39,164.35C310.82,301.526,339.211,336.745,354.99,377.064Z" transform="translate(-78.966 -30.092)"/>
    </g>
  </g>
</svg>
