<svg id="branding-strategy-large" xmlns="http://www.w3.org/2000/svg" width="688.618" height="361.224" viewBox="0 0 688.618 361.224">
  <defs>
    <style>
      .cls-1, .cls-4 {
        fill: #6c63ff;
      }

      .cls-1 {
        opacity: 0.1;
      }

      .cls-2 {
        opacity: 0.6;
      }

      .cls-3, .cls-8 {
        fill: none;
      }

      .cls-3 {
        stroke: #535461;
      }

      .cls-3, .cls-6, .cls-7, .cls-8 {
        stroke-miterlimit: 10;
      }

      .cls-3, .cls-7 {
        stroke-width: 2px;
      }

      .cls-5 {
        opacity: 0.25;
      }

      .cls-6, .cls-7 {
        fill: #fff;
      }

      .cls-6, .cls-7, .cls-8 {
        stroke: #33313f;
      }

      .cls-6, .cls-8 {
        stroke-width: 3px;
      }

      .cls-9 {
        fill: #33313f;
      }

      .cls-10 {
        fill: #65617d;
      }

      .cls-11 {
        fill: #ffd037;
      }

      .cls-12 {
        fill: #444053;
      }

      .cls-13 {
        fill: #9d9cb5;
      }
    </style>
  </defs>
  <path id="Path_293" data-name="Path 293" class="cls-1" d="M474.094,175.543c-42.4-1.062-82.776-10.925-121.334-21.718s-76.769-22.752-118.137-28.469c-26.616-3.678-57.051-4.2-78.5,6.086-20.635,9.915-27.3,26.982-30.894,42.836-2.692,11.926-4.278,24.475,3.112,35.64,5.129,7.752,14.241,14.268,20.543,21.694,21.919,25.834,6.426,57.693-17.333,82.919-11.136,11.836-24.068,23.134-32.669,35.721s-12.577,27.029-5.057,39.88c7.461,12.747,25.234,22.3,44.486,29.031,39.1,13.668,85.16,17.577,130.105,19.791,99.454,4.905,199.445,2.781,299.161.656,36.907-.788,73.978-1.586,110.282-5.7,20.157-2.285,40.975-5.906,55.61-14.659,18.578-11.109,23.183-29.923,10.737-43.851-20.884-23.365-78.609-29.168-93.224-54.247-8.038-13.8.216-29.172,11.89-41.976,25.05-27.459,67.034-51.551,69.248-82.938,1.52-21.562-18.663-43.147-49.871-53.35-32.715-10.689-78.072-9.348-102.192,8.352C555.193,169.467,511.525,176.478,474.094,175.543Z" transform="translate(-79.73 -97.342)"/>
  <g id="flowers" class="cls-2" transform="translate(68.289 33.85)">
    <path id="Path_294" data-name="Path 294" class="cls-3" d="M289.832,306.531s-18.008-31.9-45.122-41.087a55.518,55.518,0,0,1-28.077-21.028A93.2,93.2,0,0,1,208.34,229.5" transform="translate(-188.887 -179.422)"/>
    <path id="Path_295" data-name="Path 295" class="cls-4" d="M181.013,213.45c3.085,3,17.477,6.1,17.477,6.1s-3.531-14.287-6.623-17.288a7.795,7.795,0,1,0-10.855,11.189Z" transform="translate(-178.645 -169.267)"/>
    <path id="Path_296" data-name="Path 296" class="cls-4" d="M191.372,251.867c4.225.838,17.988-4.383,17.988-4.383s-10.73-10.075-14.955-10.914a7.8,7.8,0,0,0-3.033,15.3Z" transform="translate(-180.868 -181.809)"/>
    <path id="Path_297" data-name="Path 297" class="cls-4" d="M234.481,294.749c4.068-1.409,13.318-12.859,13.318-12.859s-14.353-3.275-18.421-1.874a7.8,7.8,0,0,0,5.1,14.733Z" transform="translate(-194.334 -196.725)"/>
    <path id="Path_298" data-name="Path 298" class="cls-4" d="M276.666,319.176c4.251-.7,15.3-10.429,15.3-10.429s-13.586-5.66-17.838-4.959a7.8,7.8,0,0,0,2.535,15.388Z" transform="translate(-209.327 -205.024)"/>
    <path id="Path_299" data-name="Path 299" class="cls-4" d="M232.251,232.139c0,4.31-7.789,16.8-7.789,16.8s-7.8-12.447-7.8-16.79a7.8,7.8,0,0,1,15.591,0Z" transform="translate(-191.757 -177.645)"/>
    <path id="Path_300" data-name="Path 300" class="cls-4" d="M280.678,260.314c-1.31,4.114-12.446,13.7-12.446,13.7s-3.708-14.248-2.424-18.342a7.8,7.8,0,1,1,14.883,4.658Z" transform="translate(-208.616 -186.561)"/>
    <path id="Path_301" data-name="Path 301" class="cls-4" d="M323.4,295.988c-.57,4.271-9.964,15.61-9.964,15.61s-6.066-13.416-5.49-17.687a7.8,7.8,0,1,1,15.453,2.077Z" transform="translate(-223.232 -199.307)"/>
    <path id="Path_302" data-name="Path 302" class="cls-5" d="M181.013,213.45c3.085,3,17.477,6.1,17.477,6.1s-3.531-14.287-6.623-17.288a7.795,7.795,0,1,0-10.855,11.189Z" transform="translate(-178.645 -169.267)"/>
    <path id="Path_303" data-name="Path 303" class="cls-5" d="M191.372,251.867c4.225.838,17.988-4.383,17.988-4.383s-10.73-10.075-14.955-10.914a7.8,7.8,0,0,0-3.033,15.3Z" transform="translate(-180.868 -181.809)"/>
    <path id="Path_304" data-name="Path 304" class="cls-5" d="M234.481,294.749c4.068-1.409,13.318-12.859,13.318-12.859s-14.353-3.275-18.421-1.874a7.8,7.8,0,0,0,5.1,14.733Z" transform="translate(-194.334 -196.725)"/>
    <path id="Path_305" data-name="Path 305" class="cls-5" d="M276.666,319.176c4.251-.7,15.3-10.429,15.3-10.429s-13.586-5.66-17.838-4.959a7.8,7.8,0,0,0,2.535,15.388Z" transform="translate(-209.327 -205.024)"/>
    <path id="Path_306" data-name="Path 306" class="cls-5" d="M232.251,232.139c0,4.31-7.789,16.8-7.789,16.8s-7.8-12.447-7.8-16.79a7.8,7.8,0,0,1,15.591,0Z" transform="translate(-191.757 -177.645)"/>
    <path id="Path_307" data-name="Path 307" class="cls-5" d="M280.678,260.314c-1.31,4.114-12.446,13.7-12.446,13.7s-3.708-14.248-2.424-18.342a7.8,7.8,0,1,1,14.883,4.658Z" transform="translate(-208.616 -186.561)"/>
    <path id="Path_308" data-name="Path 308" class="cls-5" d="M323.4,295.988c-.57,4.271-9.964,15.61-9.964,15.61s-6.066-13.416-5.49-17.687a7.8,7.8,0,1,1,15.453,2.077Z" transform="translate(-223.232 -199.307)"/>
    <path id="Path_309" data-name="Path 309" class="cls-3" d="M308.34,291.653s-3.537-36.462-24.6-55.852a55.524,55.524,0,0,1-17.176-30.612,93.185,93.185,0,0,1-1.559-17" transform="translate(-208.431 -165.173)"/>
    <path id="Path_310" data-name="Path 310" class="cls-4" d="M244.581,163.768c1.612,4,13.508,12.663,13.508,12.663s2.568-14.5.956-18.493a7.8,7.8,0,0,0-14.464,5.83Z" transform="translate(-201.192 -153.054)"/>
    <path id="Path_311" data-name="Path 311" class="cls-4" d="M238.506,203.074c3.518,2.476,18.218,3.275,18.218,3.275s-5.725-13.56-9.25-16.036a7.8,7.8,0,0,0-8.968,12.754Z" transform="translate(-198.15 -165.416)"/>
    <path id="Path_312" data-name="Path 312" class="cls-4" d="M260.539,259.734c4.291.36,17.392-6.367,17.392-6.367s-11.791-8.811-16.082-9.171a7.8,7.8,0,1,0-1.31,15.538Z" transform="translate(-204.429 -184.481)"/>
    <path id="Path_313" data-name="Path 313" class="cls-4" d="M289,299.1c4.173,1.081,18.218-3.334,18.218-3.334s-10.134-10.678-14.3-11.791a7.8,7.8,0,1,0-3.93,15.067Z" transform="translate(-214.563 -198.085)"/>
    <path id="Path_314" data-name="Path 314" class="cls-4" d="M283.844,201.623c-1.742,3.931-13.927,12.2-13.927,12.2s-2.077-14.569-.334-18.506a7.8,7.8,0,0,1,14.261,6.308Z" transform="translate(-209.771 -166.028)"/>
    <path id="Path_315" data-name="Path 315" class="cls-4" d="M314.94,246.985c-2.843,3.23-16.94,7.468-16.94,7.468s2.378-14.523,5.241-17.759a7.8,7.8,0,1,1,11.719,10.291Z" transform="translate(-219.813 -180.988)"/>
    <path id="Path_316" data-name="Path 316" class="cls-4" d="M340.777,296.926c-2.254,3.669-15.427,10.232-15.427,10.232s-.111-14.72,2.142-18.395a7.8,7.8,0,0,1,13.285,8.162Z" transform="translate(-229.246 -198.581)"/>
  </g>
  <path id="Path_317" data-name="Path 317" class="cls-6" d="M215.526,267.24s96.3,3.93,109.4,0c0,0-7.206,161.15-4.586,166.39,0,0-106.778,5.9-114.639,0S215.526,267.24,215.526,267.24Z" transform="translate(-118.993 -158.589)"/>
  <path id="Path_318" data-name="Path 318" class="cls-6" d="M243.76,313.24s44.545,70.749,59.612,77.3" transform="translate(-132.816 -174.455)"/>
  <path id="Path_319" data-name="Path 319" class="cls-6" d="M308.891,313.24s-42.58,55.682-49.131,74.679" transform="translate(-138.335 -174.455)"/>
  <path id="Path_320" data-name="Path 320" class="cls-6" d="M243.76,472.24" transform="translate(-132.816 -229.297)"/>
  <path id="Path_321" data-name="Path 321" class="cls-6" d="M299.442,472.24H247.69c-3.93,0-3.93,18.342-3.93,18.342h55.682Z" transform="translate(-132.816 -229.297)"/>
  <path id="Path_322" data-name="Path 322" class="cls-6" d="M492.549,266.167s92.366-4.586,109.4,0c0,0-7.206,161.149-4.586,166.39,0,0-118.019,9.23-114.639,0C489.928,412.9,492.549,266.167,492.549,266.167Z" transform="translate(-215.215 -157.515)"/>
  <path id="Path_323" data-name="Path 323" class="cls-6" d="M552.71,286s20.556,32.656,27.513,35.676" transform="translate(-239.38 -165.059)"/>
  <path id="Path_324" data-name="Path 324" class="cls-6" d="M582.769,286s-19.652,25.7-22.679,34.47" transform="translate(-241.925 -165.059)"/>
  <path id="Path_325" data-name="Path 325" class="cls-6" d="M591.2,372.24H521.76c-5.241,0-5.241,18.342-5.241,18.342H591.2Z" transform="translate(-226.897 -194.805)"/>
  <path id="Path_326" data-name="Path 326" class="cls-6" d="M586.732,461.24H534.98c-3.93,0-3.93,18.342-3.93,18.342h55.682Z" transform="translate(-231.909 -225.503)"/>
  <path id="Path_327" data-name="Path 327" class="cls-6" d="M591.2,413.079c5.273,0-63.294,5.9-69.438,0-3.236-3.1-5.241,18.342-5.241,18.342H591.2Z" transform="translate(-226.897 -208.786)"/>
  <path id="Path_328" data-name="Path 328" class="cls-6" d="M488.87,370.256l3.93,3.93,7.206-9.826" transform="translate(-168.622 -125.675)"/>
  <path id="Path_329" data-name="Path 329" class="cls-6" d="M761.43,269.24s91.711,11.136,109.4,0c0,0-7.206,161.15-4.586,166.39,0,0-121.714,6.819-114.639,0C769.291,418.6,761.43,269.24,761.43,269.24Z" transform="translate(-307.88 -159.278)"/>
  <path id="Path_330" data-name="Path 330" class="cls-6" d="M786.21,312.74S799.423,333.7,803.9,335.668" transform="translate(-319.918 -174.282)"/>
  <path id="Path_331" data-name="Path 331" class="cls-6" d="M805.549,312.74S792.919,329.287,791,334.895" transform="translate(-321.571 -174.282)"/>
  <path id="Path_332" data-name="Path 332" class="cls-6" d="M862.2,378.74H792.761c-5.241,0-5.241,9.708-5.241,9.708H862.2Z" transform="translate(-320.371 -197.047)"/>
  <path id="Path_333" data-name="Path 333" class="cls-6" d="M843.73,422.74H879.9c5.241,0,5.241,9.708,5.241,9.708h.157" transform="translate(-339.759 -212.224)"/>
  <path id="Path_334" data-name="Path 334" class="cls-6" d="M862.2,400.345c5.273,0-63.294,3.118-69.438,0-3.236-1.638-5.241,9.7-5.241,9.7H862.2Z" transform="translate(-320.371 -204.443)"/>
  <path id="Path_335" data-name="Path 335" class="cls-6" d="M767.6,288s101.668,7.514,108.206,2.522" transform="translate(-313.5 -165.749)"/>
  <path id="Path_336" data-name="Path 336" class="cls-7" d="M913.25,280.672a11.89,11.89,0,0,1,4.225.341c1.408.216,3.007.19,4.029-.793" transform="translate(-363.737 -163.066)"/>
  <path id="Path_337" data-name="Path 337" class="cls-7" d="M912.18,284.85a37.492,37.492,0,0,0,8.9.491" transform="translate(-363.369 -164.663)"/>
  <path id="Path_338" data-name="Path 338" class="cls-7" d="M912.16,289.992a67.526,67.526,0,0,1,7.6-.852" transform="translate(-363.362 -166.142)"/>
  <path id="Path_339" data-name="Path 339" class="cls-7" d="M775.362,279.983a8.641,8.641,0,0,0,3.93.793,3.662,3.662,0,0,0,2.45-.531c.858-.694.93-1.965.93-3.072a2.307,2.307,0,0,0-.144-.989,1.969,1.969,0,0,0-.7-.734,7.879,7.879,0,0,0-6.518-.819C772.716,275.679,773.135,278.771,775.362,279.983Z" transform="translate(-315.543 -161.007)"/>
  <path id="Path_340" data-name="Path 340" class="cls-6" d="M805.666,306.48c-.38,4.848.779,9.662,1.559,14.464a94.518,94.518,0,0,1,1.166,18.342q-15.506.943-31.051.452c.963.033.72-21.906.812-23.923.118-2.581-.432-7.022,2.561-7.992,3.144-1.029,7.573-.393,10.874-.55Q798.623,306.945,805.666,306.48Z" transform="translate(-316.859 -172.123)"/>
  <path id="Path_341" data-name="Path 341" class="cls-8" d="M411.76,381.933s25.548-1.31,30.134,0" transform="translate(-190.763 -197.948)"/>
  <path id="Path_342" data-name="Path 342" class="cls-8" d="M456.035,361.24S467.172,372.376,467.172,375s-14.412,11.791-14.412,11.791" transform="translate(-204.905 -191.011)"/>
  <path id="Path_343" data-name="Path 343" class="cls-8" d="M681.76,381.933s25.548-1.31,30.134,0" transform="translate(-283.892 -197.948)"/>
  <path id="Path_344" data-name="Path 344" class="cls-8" d="M726.036,361.24S737.172,372.376,737.172,375s-14.412,11.791-14.412,11.791" transform="translate(-298.033 -191.011)"/>
  <ellipse id="Ellipse_40" data-name="Ellipse 40" class="cls-1" cx="14.169" cy="14.169" rx="14.169" ry="14.169" transform="translate(233.005 0)"/>
  <ellipse id="Ellipse_41" data-name="Ellipse 41" class="cls-1" cx="14.169" cy="14.169" rx="14.169" ry="14.169" transform="translate(448.598 19.561)"/>
  <ellipse id="Ellipse_42" data-name="Ellipse 42" class="cls-1" cx="14.169" cy="14.169" rx="14.169" ry="14.169" transform="translate(600.019 229.474)"/>
  <ellipse id="Ellipse_43" data-name="Ellipse 43" class="cls-1" cx="23.747" cy="23.747" rx="23.747" ry="23.747" transform="translate(641.125 156.728)"/>
  <ellipse id="Ellipse_44" data-name="Ellipse 44" class="cls-1" cx="23.747" cy="23.747" rx="23.747" ry="23.747" transform="translate(609.688 271.969)"/>
  <ellipse id="Ellipse_45" data-name="Ellipse 45" class="cls-1" cx="23.747" cy="23.747" rx="23.747" ry="23.747" transform="translate(0 197.716)"/>
  <path id="Path_346" data-name="Path 346" class="cls-9" d="M765.593,323.022l2.2-2.05-1.965-.072-1.028,1.572Z" transform="translate(-263.796 -110.685)"/>
  <path id="Path_347" data-name="Path 347" class="cls-10" d="M741.84,338,744.172,335l.517-.537,7.14-7.474,2.431-2.548,1.14-.131,1.638-1.631.963.845-1.592,1.86.033.976-2.49,2.7-7.009,7.605-.452.485-2.817,2.607Z" transform="translate(-255.877 -111.299)"/>
  <path id="Path_348" data-name="Path 348" class="cls-9" d="M746.19,336.734l7.14-7.474,2.123,2.07-7.009,7.605Z" transform="translate(-257.377 -113.569)"/>
  <path id="Path_368" data-name="Path 368" class="cls-4" d="M985.664,676.92s3.885,5.083-1.788,12.755-10.364,14.156-8.47,18.925c0,0,8.568-14.248,15.539-14.412S993.335,685.488,985.664,676.92Z" transform="translate(-385.029 -380.234)"/>
  <path id="Path_370" data-name="Path 370" class="cls-11" d="M1001.847,686.206c0,1.788-.2,3.236-.452,3.236s-.446-1.448-.446-3.236.249-.95.5-.95S1001.847,684.418,1001.847,686.206Z" transform="translate(-393.987 -383.042)"/>
  <path id="Path_371" data-name="Path 371" class="cls-11" d="M1004.485,689.407c-1.572.851-2.941,1.369-3.059,1.153s1.061-1.087,2.62-1.965.956-.229,1.074,0S1006.057,688.549,1004.485,689.407Z" transform="translate(-394.148 -384.107)"/>
  <path id="Path_372" data-name="Path 372" class="cls-4" d="M955.407,676.92S951.523,682,957.2,689.674s10.357,14.143,8.464,18.925c0,0-8.569-14.248-15.539-14.412S947.717,685.488,955.407,676.92Z" transform="translate(-375.27 -380.234)"/>
  <path id="Path_374" data-name="Path 374" class="cls-11" d="M949,686.206c0,1.788.2,3.236.446,3.236s.446-1.448.446-3.236-.249-.95-.5-.95S949,684.418,949,686.206Z" transform="translate(-376.069 -383.042)"/>
  <path id="Path_375" data-name="Path 375" class="cls-11" d="M944.658,689.407c1.572.851,2.941,1.369,3.059,1.153s-1.062-1.087-2.62-1.965-.95-.229-1.074,0S943.093,688.549,944.658,689.407Z" transform="translate(-374.242 -384.107)"/>
  <path id="Path_376" data-name="Path 376" class="cls-12" d="M985.523,713.578l-.19,1.585-.275,2.24-.112.93-.275,2.247-.118.93-.269,2.24-3.112,25.483c-.275,2.273-4,4.048-8.477,4.048H956.542c-4.481,0-8.2-1.775-8.47-4.048l-3.112-25.483-.275-2.24-.111-.93-.282-2.247-.111-.93-.269-2.24-.2-1.585c-.157-1.31,1.854-2.378,4.389-2.378h33.029C983.669,711.2,985.686,712.288,985.523,713.578Z" transform="translate(-374.243 -392.058)"/>
  <path id="Path_377" data-name="Path 377" class="cls-13" d="M911.04,615.87l-.275,2.234H869.888l-.269-2.234Z" transform="translate(-299.951 -292.765)"/>
  <path id="Path_378" data-name="Path 378" class="cls-13" d="M910.858,620.71l-.276,2.24h-40.1l-.275-2.24Z" transform="translate(-300.154 -294.434)"/>
  <path id="Path_379" data-name="Path 379" class="cls-13" d="M910.668,625.56l-.268,2.24H871.075l-.275-2.24Z" transform="translate(-300.358 -296.107)"/>
</svg>
