<svg xmlns="http://www.w3.org/2000/svg" width="294.649" height="200" viewBox="0 0 294.649 200">
  <defs>
    <style>
      .cls-1 {
        fill: #eae6ff;
      }

      .cls-2 {
        fill: #cdccff;
      }

      .cls-3 {
        fill: #d7d7ff;
      }

      .cls-4 {
        fill: #bdc6f9;
      }

      .cls-5 {
        fill: #8784ef;
      }

      .cls-6 {
        fill: #9aa3f4;
      }

      .cls-33, .cls-7 {
        fill: none;
      }

      .cls-7 {
        stroke: #9aa3f4;
        stroke-miterlimit: 10;
        stroke-width: 1.5px;
      }

      .cls-8 {
        fill: #4a41a3;
      }

      .cls-9 {
        fill: #5851bc;
      }

      .cls-10, .cls-23 {
        fill: #c4c3fc;
      }

      .cls-11 {
        opacity: 0.35;
      }

      .cls-12, .cls-35 {
        fill: #fff;
      }

      .cls-13 {
        opacity: 0.25;
      }

      .cls-14 {
        fill: #fca70c;
      }

      .cls-15 {
        fill: #b1affd;
      }

      .cls-16 {
        opacity: 0.15;
      }

      .cls-17 {
        opacity: 0.26;
      }

      .cls-18 {
        opacity: 0.62;
      }

      .cls-19 {
        fill: #d5dbda;
      }

      .cls-20 {
        fill: #efefef;
      }

      .cls-21 {
        fill: #7a7ae5;
      }

      .cls-22 {
        fill: #cfcfff;
      }

      .cls-23 {
        opacity: 0.55;
      }

      .cls-24 {
        fill: #a4a4f7;
      }

      .cls-25 {
        fill: #a2a7f4;
      }

      .cls-26 {
        fill: #9090f4;
      }

      .cls-27, .cls-35 {
        opacity: 0.45;
      }

      .cls-28 {
        fill: #e2deff;
      }

      .cls-29 {
        fill: #f9c110;
      }

      .cls-30 {
        fill: #8484ef;
      }

      .cls-31 {
        fill: #c4c4f7;
      }

      .cls-32 {
        fill: #bbbbf2;
      }

      .cls-33 {
        stroke: #c4c4f7;
        stroke-linecap: round;
        stroke-linejoin: round;
        stroke-width: 0.75px;
      }

      .cls-34 {
        fill: #d5d2ff;
      }

      .cls-36 {
        fill: #a9adff;
      }

      .cls-37 {
        opacity: 0.3;
      }

      .cls-38 {
        fill: #3939d3;
      }

      .cls-39 {
        fill: #fefefe;
      }
    </style>
  </defs>
  <g id="corporate-branding-small" transform="translate(17.715 0.004)">
    <g id="Layer_2" data-name="Layer 2" transform="translate(-0.002 -0.004)">
      <g id="Layer_1" data-name="Layer 1">
        <path id="Path_592" data-name="Path 592" class="cls-1" d="M257.113,119.67c-4.484-12.5-11.549-16.307-18.266-24.328-8.207-9.8-13.736-16.919-11.6-29.517C230.723,45.236,232.206-6.114,177.705.6,158.172,3,142.732,17.976,131.5,32.919c-9.557,12.717-26.747,13.839-40.586,16.8-17,3.64-34.322,9.143-50.05,17.207C8.47,83.535-1.206,107.4.114,137.942c.4,9.229,1.707,23.762,17.293,40.768,21.036,22.955,51.621,26.029,88.4,15.486,8.422-2.412,16.383-6.2,24.666-9.047a116.554,116.554,0,0,1,26.625-5.781c21.132-2.042,43.038,1.654,63.309-4.656a66.844,66.844,0,0,0,28.316-17.561C258.407,147.009,261.851,132.87,257.113,119.67Z" transform="translate(0.002 0.004)"/>
        <path id="Path_593" data-name="Path 593" class="cls-2" d="M52.61,496.909c0,5.195,65.955,9.415,147.33,9.415s147.319-4.22,147.319-9.415S281.3,487.5,199.957,487.5,52.61,491.72,52.61,496.909Z" transform="translate(-70.323 -337.148)"/>
        <path id="Path_594" data-name="Path 594" class="cls-2" d="M153.89,519.961c0,3.256-16.748,5.891-37.4,5.891s-37.4-2.635-37.4-5.891,16.743-5.891,37.4-5.891S153.89,516.71,153.89,519.961Z" transform="translate(-33.988 -365.579)"/>
        <ellipse id="Ellipse_83" data-name="Ellipse 83" class="cls-2" cx="62.751" cy="4.659" rx="62.751" ry="4.659" transform="translate(118.45 150.954)"/>
        <path id="Path_595" data-name="Path 595" class="cls-3" d="M76.586,390.573,74.18,424.32h32.191l-2.218-33.81Z" transform="translate(-31.878 -271.453)"/>
        <path id="Path_596" data-name="Path 596" class="cls-1" d="M89.6,395.1h0a1.032,1.032,0,0,1,1.1-.935h0a.947.947,0,1,1,0,1.865h0A1.032,1.032,0,0,1,89.6,395.1Zm1.106-.57a.57.57,0,0,0,0,1.141h0a.57.57,0,0,0,0-1.141ZM89.777,395.1Z" transform="translate(-38.504 -264.247)"/>
        <path id="Path_597" data-name="Path 597" class="cls-1" d="M108.85,395.073h0a.855.855,0,0,1,.257-.6,1.192,1.192,0,0,1,.844-.331h0a1.026,1.026,0,0,1,1.1.93.867.867,0,0,1-.336.673,1.192,1.192,0,0,1-.764.262h0A1.032,1.032,0,0,1,108.85,395.073Zm1.1-.57a.844.844,0,0,0-.57.228.5.5,0,0,0-.154.348h0a.684.684,0,0,0,.747.57h0a.913.913,0,0,0,.542-.182.53.53,0,0,0,.205-.4.684.684,0,0,0-.753-.57Z" transform="translate(-46.777 -264.227)"/>
        <path id="Path_598" data-name="Path 598" class="cls-1" d="M96.377,402.323h.308a5.9,5.9,0,0,0,4.562-1.927,6.865,6.865,0,0,0,1.283-4.933.357.357,0,0,0-.707.1,6.207,6.207,0,0,1-1.141,4.374,5.253,5.253,0,0,1-4.049,1.671,4.7,4.7,0,0,1-3.912-1.363c-1.574-1.751-1.186-4.625-1.18-4.659a.354.354,0,0,0-.3-.4.365.365,0,0,0-.4.3c0,.131-.439,3.228,1.352,5.229A5.482,5.482,0,0,0,96.377,402.323Z" transform="translate(-39.014 -266.406)"/>
        <path id="Path_599" data-name="Path 599" class="cls-4" d="M102.053,407.163,98.21,432.254l34.951-.08L129.619,407.1Z" transform="translate(-42.204 -280.058)"/>
        <path id="Path_600" data-name="Path 600" class="cls-5" d="M76.908,481.5A7.088,7.088,0,1,0,84,488.588a7.088,7.088,0,0,0-7.088-7.088Zm0,10.379a3.29,3.29,0,1,1,2.338-.958,3.29,3.29,0,0,1-2.338.958Z" transform="translate(-30.004 -327.111)"/>
        <path id="Path_601" data-name="Path 601" class="cls-6" d="M74.868,481.5a7.088,7.088,0,1,0,7.088,7.088,7.088,7.088,0,0,0-7.088-7.088Zm0,10.379a3.285,3.285,0,1,1,2.339-.956A3.29,3.29,0,0,1,74.868,491.879Z" transform="translate(-29.127 -327.111)"/>
        <path id="Path_602" data-name="Path 602" class="cls-5" d="M147.148,481.5a7.088,7.088,0,1,0,7.088,7.088,7.088,7.088,0,0,0-7.088-7.088Zm0,10.379a3.285,3.285,0,1,1,2.336-.958,3.29,3.29,0,0,1-2.336.958Z" transform="translate(-94.811 -327.111)"/>
        <path id="Path_603" data-name="Path 603" class="cls-6" d="M145.1,481.5a7.088,7.088,0,1,0,7.094,7.088A7.088,7.088,0,0,0,145.1,481.5Zm0,10.379a3.29,3.29,0,1,1,2.338-.958A3.29,3.29,0,0,1,145.1,491.879Z" transform="translate(-93.43 -327.111)"/>
        <path id="Path_604" data-name="Path 604" class="cls-7" d="M216.425,342H195.149a6.5,6.5,0,0,0-5.509,3.057L176.77,365.728" transform="translate(-122.397 -234.881)"/>
        <path id="Path_605" data-name="Path 605" class="cls-7" d="M68.767,419.267h47.6a5.132,5.132,0,0,0,5.092-4.345l4.927-30.725a5.161,5.161,0,0,0-5.1-5.976H63.84a5.132,5.132,0,0,0-5.092,5.976l4.921,30.725A5.166,5.166,0,0,0,68.767,419.267Z" transform="translate(-25.215 -265.302)"/>
        <line id="Line_20" data-name="Line 20" class="cls-7" y2="41.047" transform="translate(67.348 112.918)"/>
        <line id="Line_21" data-name="Line 21" class="cls-7" x1="62.979" transform="translate(35.859 137.066)"/>
        <line id="Line_22" data-name="Line 22" class="cls-7" x1="4.072" y2="41.047" transform="translate(54.429 112.918)"/>
        <line id="Line_23" data-name="Line 23" class="cls-7" x2="3.764" y2="41.047" transform="translate(49.488 112.918)"/>
        <path id="Path_606" data-name="Path 606" class="cls-7" d="M122.141,446.92l7.716,11.451a4.7,4.7,0,0,1-3.9,7.322H62.88" transform="translate(-27.021 -305.192)"/>
        <rect id="Rectangle_137" data-name="Rectangle 137" class="cls-8" width="65.294" height="17.564" transform="translate(99.439 145.183)"/>
        <rect id="Rectangle_138" data-name="Rectangle 138" class="cls-9" width="226.35" height="162.841" rx="9.39" transform="translate(17.214 21.091)"/>
        <rect id="Rectangle_139" data-name="Rectangle 139" class="cls-10" width="213.018" height="141.28" rx="5.77" transform="translate(24.065 31.51)"/>
        <path id="Path_607" data-name="Path 607" class="cls-9" d="M297.93,484.6H411a4.174,4.174,0,0,1,4.174,4.174v6.889H293.75v-6.9A4.174,4.174,0,0,1,297.93,484.6Z" transform="translate(-222.79 -333.1)"/>
        <g id="Group_35" data-name="Group 35" class="cls-11" transform="translate(63.879 48.541)">
          <rect id="Rectangle_140" data-name="Rectangle 140" class="cls-12" width="149.047" height="100.188" rx="11.45" transform="translate(0)"/>
        </g>
        <g id="Group_40" data-name="Group 40" class="cls-13" transform="translate(63.883 50.286)">
          <rect id="Rectangle_141" data-name="Rectangle 141" class="cls-14" width="6.495" height="16.298" transform="translate(14.165 73.186)"/>
          <rect id="Rectangle_142" data-name="Rectangle 142" class="cls-15" width="6.495" height="30.605" transform="translate(28.798 58.878)"/>
          <rect id="Rectangle_143" data-name="Rectangle 143" class="cls-14" width="6.495" height="27.441" transform="translate(43.425 62.043)"/>
          <rect id="Rectangle_144" data-name="Rectangle 144" class="cls-15" width="6.495" height="42.94" transform="translate(58.057 46.55)"/>
          <g id="Group_36" data-name="Group 36" class="cls-16" transform="translate(28.798 58.878)">
            <rect id="Rectangle_145" data-name="Rectangle 145" class="cls-17" width="2.982" height="30.605"/>
          </g>
          <g id="Group_37" data-name="Group 37" class="cls-16" transform="translate(14.165 73.186)">
            <rect id="Rectangle_146" data-name="Rectangle 146" class="cls-17" width="2.982" height="16.298"/>
          </g>
          <g id="Group_38" data-name="Group 38" class="cls-18" transform="translate(58.057 46.55)">
            <rect id="Rectangle_147" data-name="Rectangle 147" class="cls-17" width="2.982" height="42.94"/>
          </g>
          <g id="Group_39" data-name="Group 39" class="cls-16" transform="translate(43.425 62.043)">
            <rect id="Rectangle_148" data-name="Rectangle 148" class="cls-17" width="2.982" height="27.441"/>
          </g>
          <path id="Path_608" data-name="Path 608" class="cls-19" d="M378.079,326.652H319.97V264.78h.89v60.988h57.219Z" transform="translate(-310.093 -232.681)"/>
          <path id="Path_609" data-name="Path 609" class="cls-19" d="M329.993,302.172l-.593-.656,15.2-13.652,14.079,3.062,15.243-16.976.661.593L359,291.9l-14.142-3.074Z" transform="translate(-314.146 -236.621)"/>
          <path id="Path_610" data-name="Path 610" class="cls-19" d="M407.49,275.166l-4.3-4.123,5.549-1.483Z" transform="translate(-345.857 -234.735)"/>
          <rect id="Rectangle_149" data-name="Rectangle 149" class="cls-15" width="4.459" height="4.459" transform="translate(73.488 72.028)"/>
          <rect id="Rectangle_150" data-name="Rectangle 150" class="cls-14" width="4.459" height="4.459" transform="translate(73.488 79.841)"/>
          <rect id="Rectangle_151" data-name="Rectangle 151" class="cls-20" width="14.131" height="2.532" transform="translate(79.174 81.768)"/>
          <rect id="Rectangle_152" data-name="Rectangle 152" class="cls-20" width="14.131" height="2.532" transform="translate(79.174 73.956)"/>
          <rect id="Rectangle_153" data-name="Rectangle 153" class="cls-15" width="4.459" height="4.459" transform="translate(99.709 72.028)"/>
          <rect id="Rectangle_154" data-name="Rectangle 154" class="cls-14" width="4.459" height="4.459" transform="translate(99.709 79.841)"/>
          <rect id="Rectangle_155" data-name="Rectangle 155" class="cls-20" width="14.131" height="2.532" transform="translate(105.394 81.768)"/>
          <rect id="Rectangle_156" data-name="Rectangle 156" class="cls-20" width="14.131" height="2.532" transform="translate(105.394 73.956)"/>
          <rect id="Rectangle_157" data-name="Rectangle 157" class="cls-15" width="4.459" height="4.459" transform="translate(123.323 72.028)"/>
          <rect id="Rectangle_158" data-name="Rectangle 158" class="cls-14" width="4.459" height="4.459" transform="translate(123.323 79.841)"/>
          <rect id="Rectangle_159" data-name="Rectangle 159" class="cls-20" width="9.301" height="2.532" transform="translate(129.008 81.768)"/>
          <rect id="Rectangle_160" data-name="Rectangle 160" class="cls-20" width="9.301" height="2.532" transform="translate(129.008 73.956)"/>
          <rect id="Rectangle_161" data-name="Rectangle 161" class="cls-20" width="63.988" height="1.163" transform="translate(74.321 29.431)"/>
          <rect id="Rectangle_162" data-name="Rectangle 162" class="cls-20" width="128.432" height="2.663" transform="translate(9.877 15.152)"/>
          <rect id="Rectangle_163" data-name="Rectangle 163" class="cls-20" width="64.176" height="1.163" transform="translate(74.127 33.046)"/>
          <rect id="Rectangle_164" data-name="Rectangle 164" class="cls-20" width="64.176" height="1.163" transform="translate(74.127 25.81)"/>
          <rect id="Rectangle_165" data-name="Rectangle 165" class="cls-20" width="64.176" height="1.163" transform="translate(74.127 36.667)"/>
          <rect id="Rectangle_166" data-name="Rectangle 166" class="cls-20" width="64.176" height="1.163" transform="translate(74.127 40.283)"/>
          <rect id="Rectangle_167" data-name="Rectangle 167" class="cls-20" width="64.176" height="1.163" transform="translate(74.127 43.898)"/>
          <rect id="Rectangle_168" data-name="Rectangle 168" class="cls-20" width="64.176" height="1.163" transform="translate(74.127 47.519)"/>
          <rect id="Rectangle_169" data-name="Rectangle 169" class="cls-20" width="64.176" height="1.163" transform="translate(74.127 51.134)"/>
          <rect id="Rectangle_170" data-name="Rectangle 170" class="cls-20" width="64.176" height="1.163" transform="translate(74.127 54.756)"/>
          <rect id="Rectangle_171" data-name="Rectangle 171" class="cls-20" width="56.324" height="1.163" transform="translate(81.985 58.371)"/>
          <path id="Path_611" data-name="Path 611" class="cls-21" d="M445.167,208.49H309.179a6.529,6.529,0,0,0-6.529,6.529v5.7H451.685v-5.7A6.529,6.529,0,0,0,445.167,208.49Z" transform="translate(-302.65 -208.49)"/>
          <path id="Path_612" data-name="Path 612" class="cls-22" d="M527.565,218.2a1.882,1.882,0,1,1-.553-1.333,1.888,1.888,0,0,1,.553,1.333Z" transform="translate(-397.684 -211.855)"/>
          <circle id="Ellipse_84" data-name="Ellipse 84" class="cls-22" cx="1.882" cy="1.882" r="1.882" transform="translate(133.787 4.465)"/>
          <circle id="Ellipse_85" data-name="Ellipse 85" class="cls-22" cx="1.882" cy="1.882" r="1.882" transform="translate(141.462 4.465)"/>
        </g>
        <rect id="Rectangle_172" data-name="Rectangle 172" class="cls-23" width="149.047" height="100.188" rx="11.45" transform="translate(49.225 57.589)"/>
        <rect id="Rectangle_173" data-name="Rectangle 173" class="cls-12" width="149.047" height="100.188" rx="11.45" transform="translate(50.343 55.996)"/>
        <rect id="Rectangle_174" data-name="Rectangle 174" class="cls-14" width="6.495" height="16.298" transform="translate(86.218 117.674)"/>
        <rect id="Rectangle_175" data-name="Rectangle 175" class="cls-15" width="6.495" height="30.605" transform="translate(94.619 105.735)"/>
        <rect id="Rectangle_176" data-name="Rectangle 176" class="cls-14" width="6.495" height="27.441" transform="translate(103.019 108.358)"/>
        <rect id="Rectangle_177" data-name="Rectangle 177" class="cls-15" width="6.495" height="42.94" transform="translate(111.416 95.626)"/>
        <g id="Group_41" data-name="Group 41" class="cls-16" transform="translate(95.174 105.735)">
          <rect id="Rectangle_178" data-name="Rectangle 178" class="cls-17" width="2.982" height="30.605"/>
        </g>
        <g id="Group_42" data-name="Group 42" class="cls-16" transform="translate(86.724 117.674)">
          <rect id="Rectangle_179" data-name="Rectangle 179" class="cls-17" width="2.982" height="16.298"/>
        </g>
        <g id="Group_43" data-name="Group 43" class="cls-18" transform="translate(112.07 95.626)">
          <rect id="Rectangle_180" data-name="Rectangle 180" class="cls-17" width="2.982" height="42.94"/>
        </g>
        <g id="Group_44" data-name="Group 44" class="cls-16" transform="translate(103.624 108.358)">
          <rect id="Rectangle_181" data-name="Rectangle 181" class="cls-17" width="2.982" height="27.441"/>
        </g>
        <path id="Path_613" data-name="Path 613" class="cls-19" d="M313.949,362.837H255.84V306.49h.89v55.463h57.219Z" transform="translate(-180.337 -219.406)"/>
        <path id="Path_614" data-name="Path 614" class="cls-19" d="M265.863,334.192l-.593-.656,15.2-13.652,14.079,3.062L309.8,305.97l.661.593-15.591,17.358-14.137-3.074Z" transform="translate(-184.635 -211.253)"/>
        <path id="Path_615" data-name="Path 615" class="cls-19" d="M343.36,307.186l-4.3-4.123,5.554-1.483Z" transform="translate(-227.884 -202.977)"/>
        <rect id="Rectangle_182" data-name="Rectangle 182" class="cls-15" width="4.459" height="4.459" transform="translate(120.686 120.233)"/>
        <rect id="Rectangle_183" data-name="Rectangle 183" class="cls-14" width="4.459" height="4.459" transform="translate(120.686 124.724)"/>
        <rect id="Rectangle_184" data-name="Rectangle 184" class="cls-20" width="14.131" height="2.532" transform="translate(121.921 126.356)"/>
        <rect id="Rectangle_185" data-name="Rectangle 185" class="cls-20" width="14.131" height="2.532" transform="translate(121.921 121.847)"/>
        <rect id="Rectangle_186" data-name="Rectangle 186" class="cls-15" width="4.459" height="4.459" transform="translate(135.79 120.233)"/>
        <rect id="Rectangle_187" data-name="Rectangle 187" class="cls-14" width="4.459" height="4.459" transform="translate(135.79 124.724)"/>
        <rect id="Rectangle_188" data-name="Rectangle 188" class="cls-20" width="14.131" height="2.532" transform="translate(136.777 126.356)"/>
        <rect id="Rectangle_189" data-name="Rectangle 189" class="cls-20" width="14.131" height="2.532" transform="translate(136.777 121.847)"/>
        <rect id="Rectangle_190" data-name="Rectangle 190" class="cls-15" width="4.459" height="4.459" transform="translate(149.393 120.233)"/>
        <rect id="Rectangle_191" data-name="Rectangle 191" class="cls-14" width="4.459" height="4.459" transform="translate(149.393 124.724)"/>
        <rect id="Rectangle_192" data-name="Rectangle 192" class="cls-20" width="9.301" height="2.532" transform="translate(151.424 126.356)"/>
        <rect id="Rectangle_193" data-name="Rectangle 193" class="cls-20" width="9.301" height="2.532" transform="translate(151.424 121.847)"/>
        <rect id="Rectangle_194" data-name="Rectangle 194" class="cls-20" width="63.988" height="1.163" transform="translate(107.296 96.429)"/>
        <rect id="Rectangle_195" data-name="Rectangle 195" class="cls-20" width="128.432" height="2.663" transform="translate(59.951 87.882)"/>
        <rect id="Rectangle_196" data-name="Rectangle 196" class="cls-20" width="64.176" height="1.163" transform="translate(107.149 98.522)"/>
        <rect id="Rectangle_197" data-name="Rectangle 197" class="cls-20" width="64.176" height="1.163" transform="translate(107.149 94.333)"/>
        <rect id="Rectangle_198" data-name="Rectangle 198" class="cls-20" width="64.176" height="1.163" transform="translate(107.149 100.618)"/>
        <rect id="Rectangle_199" data-name="Rectangle 199" class="cls-20" width="64.176" height="1.163" transform="translate(107.149 102.71)"/>
        <rect id="Rectangle_200" data-name="Rectangle 200" class="cls-20" width="64.176" height="1.163" transform="translate(107.149 104.803)"/>
        <rect id="Rectangle_201" data-name="Rectangle 201" class="cls-20" width="64.176" height="1.163" transform="translate(107.149 106.899)"/>
        <rect id="Rectangle_202" data-name="Rectangle 202" class="cls-20" width="64.176" height="1.163" transform="translate(107.149 108.992)"/>
        <rect id="Rectangle_203" data-name="Rectangle 203" class="cls-20" width="64.176" height="1.163" transform="translate(107.149 111.088)"/>
        <rect id="Rectangle_204" data-name="Rectangle 204" class="cls-20" width="56.324" height="1.163" transform="translate(113.302 113.181)"/>
        <path id="Path_616" data-name="Path 616" class="cls-24" d="M381.037,240.51H245.066a6.535,6.535,0,0,0-6.547,6.552v5.7H387.572v-5.7a6.535,6.535,0,0,0-6.535-6.552Z" transform="translate(-188.178 -163.045)"/>
        <path id="Path_617" data-name="Path 617" class="cls-22" d="M463.435,250.222a1.888,1.888,0,1,1-1.882-1.882,1.887,1.887,0,0,1,1.882,1.882Z" transform="translate(-308.493 -166.82)"/>
        <path id="Path_618" data-name="Path 618" class="cls-22" d="M476.9,250.222a1.888,1.888,0,1,1-1.882-1.882,1.887,1.887,0,0,1,1.882,1.882Z" transform="translate(-317.526 -166.82)"/>
        <path id="Path_619" data-name="Path 619" class="cls-22" d="M490.355,250.222a1.888,1.888,0,1,1-1.882-1.882A1.888,1.888,0,0,1,490.355,250.222Z" transform="translate(-326.56 -166.82)"/>
        <rect id="Rectangle_205" data-name="Rectangle 205" class="cls-25" width="88.007" height="101.773" rx="6.95" transform="translate(144.055 55.072)"/>
        <rect id="Rectangle_206" data-name="Rectangle 206" class="cls-26" width="74.429" height="20.905" rx="1.77" transform="translate(152.198 116.381)"/>
        <rect id="Rectangle_207" data-name="Rectangle 207" class="cls-26" width="19.138" height="13.27" rx="1.77" transform="translate(190.737 134.5)"/>
        <rect id="Rectangle_208" data-name="Rectangle 208" class="cls-26" width="19.138" height="13.27" rx="1.77" transform="translate(200.964 134.5)"/>
        <rect id="Rectangle_209" data-name="Rectangle 209" class="cls-26" width="19.138" height="13.27" rx="1.77" transform="translate(207.49 134.5)"/>
        <rect id="Rectangle_210" data-name="Rectangle 210" class="cls-26" width="19.138" height="13.27" rx="1.77" transform="translate(190.737 146.521)"/>
        <rect id="Rectangle_211" data-name="Rectangle 211" class="cls-26" width="19.138" height="13.27" rx="1.77" transform="translate(200.964 146.521)"/>
        <rect id="Rectangle_212" data-name="Rectangle 212" class="cls-26" width="19.138" height="13.27" rx="1.77" transform="translate(190.737 154.151)"/>
        <rect id="Rectangle_213" data-name="Rectangle 213" class="cls-26" width="19.138" height="13.27" rx="1.77" transform="translate(200.964 154.151)"/>
        <rect id="Rectangle_214" data-name="Rectangle 214" class="cls-26" width="19.138" height="34.603" rx="1.77" transform="translate(207.49 134.22)"/>
        <g id="Group_45" data-name="Group 45" class="cls-27" transform="translate(150.846 88.189)">
          <path id="Path_620" data-name="Path 620" class="cls-28" d="M593.32,368.87a2.281,2.281,0,0,1,2.281-2.31h69.833a2.31,2.31,0,0,1,2.315,2.31V385.15a2.31,2.31,0,0,1-2.315,2.281h-69.8" transform="translate(-593.32 -366.56)"/>
          <rect id="Rectangle_215" data-name="Rectangle 215" class="cls-28" width="19.138" height="13.27" rx="1.77" transform="translate(0 28.313)"/>
          <rect id="Rectangle_216" data-name="Rectangle 216" class="cls-28" width="19.138" height="13.27" rx="1.77" transform="translate(27.646 28.313)"/>
          <rect id="Rectangle_217" data-name="Rectangle 217" class="cls-28" width="19.138" height="13.27" rx="1.77" transform="translate(55.292 28.313)"/>
          <rect id="Rectangle_218" data-name="Rectangle 218" class="cls-28" width="19.138" height="13.27" rx="1.77" transform="translate(0 49.646)"/>
          <rect id="Rectangle_219" data-name="Rectangle 219" class="cls-28" width="19.138" height="13.27" rx="1.77" transform="translate(27.646 49.646)"/>
          <rect id="Rectangle_220" data-name="Rectangle 220" class="cls-28" width="19.138" height="13.27" rx="1.77" transform="translate(0 70.974)"/>
          <rect id="Rectangle_221" data-name="Rectangle 221" class="cls-28" width="19.138" height="13.27" rx="1.77" transform="translate(27.646 70.974)"/>
        </g>
        <rect id="Rectangle_222" data-name="Rectangle 222" class="cls-14" width="19.138" height="34.603" rx="1.77" transform="translate(206.138 133.378)"/>
        <path id="Path_621" data-name="Path 621" class="cls-29" d="M691.631,487.263v-30a2.281,2.281,0,0,1,2.31-2.281h14.513a2.247,2.247,0,0,1,.81.154,2.31,2.31,0,0,0-2.161-1.505H692.589a2.281,2.281,0,0,0-2.31,2.31v29.978a2.315,2.315,0,0,0,1.5,2.161A2.4,2.4,0,0,1,691.631,487.263Z" transform="translate(-484.142 -320.202)"/>
        <path id="Path_622" data-name="Path 622" class="cls-14" d="M232.412,431.356l-4.6,47.639,45.181.006-4.374-47.73Z" transform="translate(-158.561 -309.781)"/>
        <path id="Path_623" data-name="Path 623" class="cls-9" d="M249.69,437.956h0a1.585,1.585,0,0,1,1.711-1.437h0a1.454,1.454,0,1,1,0,2.851h0A1.58,1.58,0,0,1,249.69,437.956Zm1.711-.89a.918.918,0,1,0,0,1.773h0a.918.918,0,1,0,0-1.773Zm-1.426.89Z" transform="translate(-167.531 -292.941)"/>
        <path id="Path_624" data-name="Path 624" class="cls-9" d="M279.22,437.917h0a1.306,1.306,0,0,1,.393-.924,1.813,1.813,0,0,1,1.294-.508h0a1.58,1.58,0,0,1,1.711,1.426,1.335,1.335,0,0,1-.513,1.032,1.836,1.836,0,0,1-1.175.4h0A1.58,1.58,0,0,1,279.22,437.917Zm1.711-.89a1.312,1.312,0,0,0-.907.354.741.741,0,0,0-.234.536h0a1.038,1.038,0,0,0,1.141.884h0a1.289,1.289,0,0,0,.833-.279.781.781,0,0,0,.314-.61,1.044,1.044,0,0,0-1.14-.884Z" transform="translate(-187.336 -292.923)"/>
        <path id="Path_625" data-name="Path 625" class="cls-9" d="M260.13,449.062h.479c3.1-.1,5.457-1.1,7.014-2.965,2.583-3.079,2-7.379,1.973-7.562a.57.57,0,0,0-1.083.154c0,.04.536,3.992-1.711,6.712-1.352,1.608-3.422,2.475-6.2,2.566-2.68.08-4.676-.616-6-2.1-2.412-2.68-1.819-7.094-1.813-7.14a.547.547,0,1,0-1.083-.154c-.029.2-.673,4.95,2.076,8.023A8.1,8.1,0,0,0,260.13,449.062Z" transform="translate(-170.887 -296.575)"/>
        <path id="Path_626" data-name="Path 626" class="cls-30" d="M47.763,283.848l2.572,1.711a.713.713,0,0,0,1-.228L57,275.848,53.648,274l-6.073,8.862a.7.7,0,0,0,.188.987Z" transform="translate(-20.39 -185.63)"/>
        <path id="Path_627" data-name="Path 627" class="cls-31" d="M31.033,251.738l.884.6,3.587-5.229-.884-.6a3,3,0,0,0-4.077,1.061h0A2.976,2.976,0,0,0,31.033,251.738Z" transform="translate(-12.858 -165.741)"/>
        <path id="Path_628" data-name="Path 628" class="cls-31" d="M26.12,254.043l16.492,2.5,3.764-5.486-8.32-14.41Z" transform="translate(-11.224 -161.81)"/>
        <path id="Path_629" data-name="Path 629" class="cls-32" d="M27.97,263.224l15.437,2.27,1.5-2.184-12.99-5.839Z" transform="translate(-12.019 -173.739)"/>
        <path id="Path_630" data-name="Path 630" class="cls-31" d="M66.336,274.84h0a2.093,2.093,0,0,0,2.851-.736l.667-.975a2.076,2.076,0,0,0-.342-2.914h0a2.093,2.093,0,0,0-2.851.736l-.667.975A2.076,2.076,0,0,0,66.336,274.84Z" transform="translate(-28.168 -181.596)"/>
        <path id="Path_631" data-name="Path 631" class="cls-32" d="M66.62,271.561l-.667.975a1.95,1.95,0,1,0,3.193,2.178l.667-.975a2.41,2.41,0,0,0,.137-.228,1.916,1.916,0,0,1-3.165-2.161C66.729,271.418,66.672,271.487,66.62,271.561Z" transform="translate(-28.127 -182.405)"/>
        <path id="Path_632" data-name="Path 632" class="cls-24" d="M24.83,253.942h0a1.226,1.226,0,0,0,1.671-.433l11.342-16.48a1.232,1.232,0,0,0-.2-1.711h0a1.243,1.243,0,0,0-1.677.433l-11.342,16.48A1.22,1.22,0,0,0,24.83,253.942Z" transform="translate(-10.47 -160.614)"/>
        <path id="Path_633" data-name="Path 633" class="cls-30" d="M37.895,236l-9.421,13.72a1.226,1.226,0,0,1-1.671.433,1.015,1.015,0,0,1-.291-.314l-1.893,2.754a1.141,1.141,0,1,0,1.876,1.277l11.342-16.48A1.312,1.312,0,0,0,37.895,236Z" transform="translate(-10.465 -161.103)"/>
        <path id="Path_634" data-name="Path 634" class="cls-24" d="M56.546,270.118l1.066.73a3.746,3.746,0,0,0,5.092-1.317l1.061-1.545a3.716,3.716,0,0,0-.616-5.206l-1.066-.724A3.734,3.734,0,0,0,57,263.372l-1.061,1.545A3.709,3.709,0,0,0,56.546,270.118Z" transform="translate(-23.704 -176.823)"/>
        <path id="Path_635" data-name="Path 635" class="cls-30" d="M55.233,267.33l-1.591,2.315a1.18,1.18,0,0,0,.194,1.648l4.967,3.382a1.186,1.186,0,0,0,1.614-.416L62,271.943a1.18,1.18,0,0,1-1.608.416l-4.944-3.382a1.169,1.169,0,0,1-.217-1.648Z" transform="translate(-22.944 -180.292)"/>
        <line id="Line_24" data-name="Line 24" class="cls-33" x2="3.319" y2="7.824" transform="translate(16.094 72.443)"/>
        <line id="Line_25" data-name="Line 25" class="cls-33" x2="6.797" y2="5.098" transform="translate(9.165 76.874)"/>
        <line id="Line_26" data-name="Line 26" class="cls-33" x2="8.457" y2="0.833" transform="translate(4.78 83.072)"/>
        <path id="Path_636" data-name="Path 636" class="cls-34" d="M686.634,171.2H620l7.984-5.9V136.487a4.357,4.357,0,0,1,4.351-4.357h54.282a4.351,4.351,0,0,1,4.351,4.357v30.354a4.351,4.351,0,0,1-4.334,4.357Z" transform="translate(-453.939 -92.449)"/>
        <rect id="Rectangle_223" data-name="Rectangle 223" class="cls-35" width="30.44" height="2.914" transform="translate(200.818 46.697)"/>
        <rect id="Rectangle_224" data-name="Rectangle 224" class="cls-35" width="30.44" height="2.914" transform="translate(200.818 49.206)"/>
        <rect id="Rectangle_225" data-name="Rectangle 225" class="cls-35" width="30.44" height="2.914" transform="translate(200.818 51.715)"/>
        <rect id="Rectangle_226" data-name="Rectangle 226" class="cls-35" width="30.44" height="2.914" transform="translate(200.818 54.159)"/>
        <rect id="Rectangle_227" data-name="Rectangle 227" class="cls-35" width="21.23" height="2.914" transform="translate(200.818 57.086)"/>
        <rect id="Rectangle_228" data-name="Rectangle 228" class="cls-36" width="19.121" height="22.36" rx="3.39" transform="translate(200.62 44.629)"/>
        <rect id="Rectangle_229" data-name="Rectangle 229" class="cls-35" width="19.121" height="2.401" transform="translate(200.62 61.264)"/>
        <path id="Path_637" data-name="Path 637" class="cls-12" d="M656.412,162.411h-6.94a.861.861,0,0,1-.833-.639l-1.334-4.927a.861.861,0,0,1,.833-1.095h9.609a.867.867,0,0,1,.838,1.095l-1.334,4.927a.867.867,0,0,1-.838.639Z" transform="translate(-465.66 -104.945)"/>
        <path id="Path_638" data-name="Path 638" class="cls-12" d="M658.987,161.387h-8.354a.177.177,0,1,1,0-.348h8.229l2.9-10.133a.177.177,0,0,1,.171-.125h1.813a.171.171,0,0,1,0,.342h-1.711l-2.908,10.145A.165.165,0,0,1,658.987,161.387Z" transform="translate(-467.014 -102.031)"/>
        <path id="Path_639" data-name="Path 639" class="cls-12" d="M651.479,171a1.009,1.009,0,1,1-1.009-1.009A1.009,1.009,0,0,1,651.479,171Z" transform="translate(-466.6 -113.978)"/>
        <circle id="Ellipse_86" data-name="Ellipse 86" class="cls-12" cx="1.009" cy="1.009" r="1.009" transform="translate(190.228 56.012)"/>
        <path id="Path_640" data-name="Path 640" class="cls-34" d="M298.739,85.244H383.6l-10.162-7.522V31.293a5.549,5.549,0,0,0-5.549-5.543H298.739a5.549,5.549,0,0,0-5.549,5.543V79.7A5.549,5.549,0,0,0,298.739,85.244Z" transform="translate(-213.978 -11.064)"/>
        <g id="Group_46" data-name="Group 46" class="cls-27" transform="translate(88.552 23.291)">
          <rect id="Rectangle_230" data-name="Rectangle 230" class="cls-12" width="38.783" height="3.712" transform="translate(38.789 3.712) rotate(180)"/>
          <rect id="Rectangle_231" data-name="Rectangle 231" class="cls-12" width="38.783" height="3.712" transform="translate(38.789 9.255) rotate(180)"/>
          <rect id="Rectangle_232" data-name="Rectangle 232" class="cls-12" width="38.783" height="3.712" transform="translate(38.789 14.804) rotate(180)"/>
          <rect id="Rectangle_233" data-name="Rectangle 233" class="cls-12" width="38.783" height="3.712" transform="translate(38.789 20.204) rotate(180)"/>
          <rect id="Rectangle_234" data-name="Rectangle 234" class="cls-12" width="38.783" height="3.712" transform="translate(38.789 25.61) rotate(180)"/>
          <rect id="Rectangle_235" data-name="Rectangle 235" class="cls-12" width="38.783" height="3.712" transform="translate(38.789 35.418) rotate(180)"/>
          <rect id="Rectangle_236" data-name="Rectangle 236" class="cls-12" width="66.195" height="3.712" transform="translate(66.195 41.269) rotate(180)"/>
        </g>
        <rect id="Rectangle_237" data-name="Rectangle 237" class="cls-31" width="24.361" height="28.49" rx="4.31" transform="translate(144.695 51.781) rotate(180)"/>
        <rect id="Rectangle_238" data-name="Rectangle 238" class="cls-35" width="24.361" height="3.057" transform="translate(144.695 58.384) rotate(180)"/>
        <path id="Path_641" data-name="Path 641" class="cls-12" d="M394.511,66.87h8.845a1.106,1.106,0,0,0,1.066-.815l1.711-6.273a1.1,1.1,0,0,0-1.066-1.391H392.811a1.1,1.1,0,0,0-1.061,1.391l1.711,6.273a1.1,1.1,0,0,0,1.049.815Z" transform="translate(-265.227 -25.091)"/>
        <path id="Path_642" data-name="Path 642" class="cls-12" d="M389.177,65.551h10.652a.222.222,0,0,0,0-.439H389.342l-3.7-12.922a.228.228,0,0,0-.211-.16h-2.321a.222.222,0,0,0,0,.439h2.138l3.7,12.922A.217.217,0,0,0,389.177,65.551Z" transform="translate(-259.857 -22.358)"/>
        <path id="Path_643" data-name="Path 643" class="cls-12" d="M409.71,77.809a1.289,1.289,0,1,0,.383-.917A1.289,1.289,0,0,0,409.71,77.809Z" transform="translate(-274.703 -32.882)"/>
        <path id="Path_644" data-name="Path 644" class="cls-12" d="M393.29,77.809a1.289,1.289,0,1,0,1.289-1.289A1.289,1.289,0,0,0,393.29,77.809Z" transform="translate(-263.693 -32.882)"/>
        <g id="Group_47" data-name="Group 47" class="cls-37" transform="translate(40.897 44.644)">
          <path id="Path_645" data-name="Path 645" class="cls-38" d="M152.59,166.772l4.562,2.3-2.281-5.6" transform="translate(-138.431 -150.491)"/>
          <path id="Path_646" data-name="Path 646" class="cls-38" d="M127.76,149.834a9.661,9.661,0,1,0,9.643-9.124A9.4,9.4,0,0,0,127.76,149.834Z" transform="translate(-127.76 -140.71)"/>
          <path id="Path_647" data-name="Path 647" class="cls-39" d="M140.53,150.935v6.512a.684.684,0,0,0,1.026.57l5.634-3.25a.679.679,0,0,0,0-1.18l-5.634-3.256a.684.684,0,0,0-1.026.6Z" transform="translate(-133.248 -144.805)"/>
        </g>
        <g id="Group_48" data-name="Group 48" class="cls-37" transform="translate(210.113 83.157)">
          <path id="Path_648" data-name="Path 648" class="cls-38" d="M702.812,288.162l-4.562,2.3,2.281-5.6" transform="translate(-697.68 -271.881)"/>
          <path id="Path_649" data-name="Path 649" class="cls-38" d="M716.542,271.224A9.661,9.661,0,1,1,706.9,262.1,9.4,9.4,0,0,1,716.542,271.224Z" transform="translate(-697.25 -262.1)"/>
          <path id="Path_650" data-name="Path 650" class="cls-39" d="M711.084,277.857c2.1.034,4.231.057,6.164-.068.616-.04,1.141-.958.4-1.249a1.334,1.334,0,0,0,.764-.627.6.6,0,0,0-.371-.815c.73.165,1.015-.924.45-1.277a1.591,1.591,0,0,0,.61-.952.9.9,0,0,0-.439-.964,1.711,1.711,0,0,0-.758-.12h-2.623a5.435,5.435,0,0,0-.388-3.832c-.211-.342-.77-.747-1.22-.485s-.3.855-.279,1.243a4.328,4.328,0,0,1-2.384,3.992S711.107,276.112,711.084,277.857Z" transform="translate(-703.163 -264.37)"/>
          <rect id="Rectangle_239" data-name="Rectangle 239" class="cls-39" width="3.176" height="5.161" transform="translate(3.98 8.32)"/>
        </g>
        <g id="Group_49" data-name="Group 49" class="cls-37" transform="translate(138.096 45.636)">
          <path id="Path_651" data-name="Path 651" class="cls-38" d="M449.292,149.4l3.33-3.6-4.562.9" transform="translate(-436.957 -143.633)"/>
          <path id="Path_652" data-name="Path 652" class="cls-38" d="M428.59,148.6a7.009,7.009,0,1,0,7-6.6A6.806,6.806,0,0,0,428.59,148.6Z" transform="translate(-428.59 -142)"/>
          <path id="Path_653" data-name="Path 653" class="cls-39" d="M438.476,153.415c1.374,0,2.771.046,4.037-.051.4-.029.747-.69.262-.9a.912.912,0,0,0,.5-.456.45.45,0,0,0-.245-.57c.479.12.667-.667.291-.924a1.141,1.141,0,0,0,.4-.679.69.69,0,0,0-.291-.7,1.044,1.044,0,0,0-.5-.091H441.23a4.311,4.311,0,0,0-.257-2.777c-.137-.251-.508-.57-.8-.354s-.2.622-.182.9a3.193,3.193,0,0,1-1.562,2.885S438.487,152.149,438.476,153.415Z" transform="translate(-432.819 -143.652)"/>
          <rect id="Rectangle_240" data-name="Rectangle 240" class="cls-39" width="2.081" height="3.741" transform="translate(3.074 6.016)"/>
        </g>
        <g id="Group_50" data-name="Group 50" class="cls-37" transform="translate(151.724 21.768)">
          <path id="Path_654" data-name="Path 654" class="cls-38" d="M493.5,54.89a10.3,10.3,0,1,0-2.344,2.156l3.992,2.133Z" transform="translate(-475.129 -38.17)"/>
          <path id="Path_655" data-name="Path 655" class="cls-12" d="M485,50.717a2.515,2.515,0,0,1,3.564.04l.644.656.661-.65a2.52,2.52,0,1,1,3.536,3.593l-2.452,2.412h0a2.549,2.549,0,0,1-1.38.69,2.509,2.509,0,0,1-2.184-.73l-2.412-2.463A2.521,2.521,0,0,1,485,50.717Z" transform="translate(-479.053 -43.252)"/>
        </g>
      </g>
    </g>
  </g>
</svg>
