<svg xmlns="http://www.w3.org/2000/svg" width="328" height="65.978" viewBox="0 0 328 65.978">
  <defs>
    <style>
      .cls-1 {
        fill: #4f4f4f;
      }

      .cls-2 {
        fill: #19335e;
      }
    </style>
  </defs>
  <g id="group-logo-medium" transform="translate(-108 -71.935)">
    <g id="Group_2" data-name="Group 2" transform="translate(171.126 71.948)">
      <path id="Path_2" data-name="Path 2" d="M223.939,112.892H211.678l-7.945-15.368-3.217,1.923v13.445H189.6V72.7h10.914V90.154a47.847,47.847,0,0,1,3.327-5.14L212.282,72.7h11.877L211.485,90.706Z" transform="translate(-189.602 -72.121)"/>
      <path id="Path_3" data-name="Path 3" d="M267.287,112.843l-1.98-7.533H252.249l-2.034,7.533H238.283L251.4,72.483h14.489l13.279,40.36ZM263.053,96.4l-1.732-6.6q-.606-2.2-1.471-5.692t-1.14-5q-.247,1.4-.976,4.62T254.5,96.4Z" transform="translate(-200.624 -72.072)"/>
      <path id="Path_4" data-name="Path 4" d="M312.827,112.892H301.968V81.576h-9.815V72.7h30.461v8.878h-9.787Z" transform="translate(-212.821 -72.121)"/>
      <path id="Path_5" data-name="Path 5" d="M357.264,112.843l-1.98-7.533H342.225l-2.034,7.533H328.26l13.113-40.36h14.488l13.279,40.36ZM353.029,96.4,351.3,89.8q-.606-2.2-1.471-5.692t-1.141-5q-.246,1.4-.975,4.62T344.48,96.4Z" transform="translate(-220.996 -72.072)"/>
      <path id="Path_6" data-name="Path 6" d="M386.721,112.892V72.7H397.58v31.421h15.478v8.772Z" transform="translate(-234.233 -72.121)"/>
      <path id="Path_7" data-name="Path 7" d="M429.083,112.892V72.7H440v40.194Z" transform="translate(-243.824 -72.121)"/>
      <path id="Path_8" data-name="Path 8" d="M480.156,100.517a11.862,11.862,0,0,1-1.9,6.638,12.426,12.426,0,0,1-5.471,4.509,20.271,20.271,0,0,1-8.385,1.607,34.021,34.021,0,0,1-6.736-.563,24.912,24.912,0,0,1-5.663-1.965v-9.678a32.257,32.257,0,0,0,6.461,2.489,24.131,24.131,0,0,0,6.158.893,5.964,5.964,0,0,0,3.545-.839,2.573,2.573,0,0,0,1.128-2.156,2.377,2.377,0,0,0-.453-1.444,5.33,5.33,0,0,0-1.457-1.25q-1-.632-5.348-2.584a25.639,25.639,0,0,1-5.9-3.466,10.636,10.636,0,0,1-2.914-3.848,12.778,12.778,0,0,1-.948-5.14,10.3,10.3,0,0,1,4.041-8.66q4.04-3.107,11.106-3.107a31.181,31.181,0,0,1,12.729,2.885l-3.326,8.386a24.107,24.107,0,0,0-9.732-2.584,5.07,5.07,0,0,0-3.08.743,2.241,2.241,0,0,0-.962,1.841,2.656,2.656,0,0,0,1.223,2.117,46.7,46.7,0,0,0,6.64,3.409q5.195,2.335,7.216,5.016A10.9,10.9,0,0,1,480.156,100.517Z" transform="translate(-249.014 -71.952)"/>
      <path id="Path_9" data-name="Path 9" d="M513.3,112.892h-10.86V81.576h-9.815V72.7h30.461v8.878H513.3Z" transform="translate(-258.211 -72.121)"/>
    </g>
    <g id="Group_3" data-name="Group 3" transform="translate(171.126 118.166)">
      <path id="Path_10" data-name="Path 10" class="cls-1" d="M198.814,131.795a6.276,6.276,0,0,0-4.993,2.1,8.5,8.5,0,0,0-1.83,5.767,8.664,8.664,0,0,0,1.765,5.821,6.275,6.275,0,0,0,5.032,2.053,17.18,17.18,0,0,0,4.579-.723v1.956a14.106,14.106,0,0,1-4.92.747,8.325,8.325,0,0,1-6.541-2.571q-2.3-2.573-2.3-7.309a11.541,11.541,0,0,1,1.109-5.2,7.96,7.96,0,0,1,3.2-3.439,9.7,9.7,0,0,1,4.926-1.208,11.884,11.884,0,0,1,5.275,1.1l-.945,1.916A10.167,10.167,0,0,0,198.814,131.795Z" transform="translate(-189.602 -129.774)"/>
      <path id="Path_11" data-name="Path 11" class="cls-1" d="M230.626,139.634a10.564,10.564,0,0,1-2.329,7.244,8.188,8.188,0,0,1-6.476,2.636,8.287,8.287,0,0,1-6.541-2.592q-2.3-2.591-2.3-7.315,0-4.686,2.309-7.263a8.352,8.352,0,0,1,6.562-2.578,8.17,8.17,0,0,1,6.456,2.624A10.548,10.548,0,0,1,230.626,139.634Zm-15.287,0A9.1,9.1,0,0,0,217,145.545a6.78,6.78,0,0,0,9.639.008,11.519,11.519,0,0,0,.006-11.791,5.807,5.807,0,0,0-4.8-2A5.919,5.919,0,0,0,217,133.776,9.007,9.007,0,0,0,215.34,139.634Z" transform="translate(-194.894 -129.767)"/>
      <path id="Path_12" data-name="Path 12" class="cls-1" d="M251.271,149.34l-6.509-17.006h-.1q.183,2.023.183,4.8v12.2h-2.06V130.157h3.36l6.075,15.825h.105l6.128-15.825h3.333V149.34h-2.231V136.98q0-2.126.184-4.619h-.105l-6.561,16.979Z" transform="translate(-201.643 -129.855)"/>
      <path id="Path_13" data-name="Path 13" class="cls-1" d="M284.093,149.34l-6.509-17.006h-.1q.182,2.023.183,4.8v12.2H275.6V130.157h3.36l6.076,15.825h.1l6.128-15.825H294.6V149.34h-2.23V136.98q0-2.126.183-4.619h-.1l-6.562,16.979Z" transform="translate(-209.074 -129.855)"/>
      <path id="Path_14" data-name="Path 14" class="cls-1" d="M322.855,130.157V142.57a6.757,6.757,0,0,1-1.982,5.156,7.593,7.593,0,0,1-5.445,1.877,7.268,7.268,0,0,1-5.361-1.889,7.008,7.008,0,0,1-1.9-5.2v-12.36h2.23v12.518a4.932,4.932,0,0,0,1.312,3.688,5.3,5.3,0,0,0,3.859,1.286,5.107,5.107,0,0,0,3.739-1.293,4.969,4.969,0,0,0,1.313-3.707V130.157Z" transform="translate(-216.448 -129.855)"/>
      <path id="Path_15" data-name="Path 15" class="cls-1" d="M350.162,149.34h-2.546l-10.484-16.1h-.105q.211,2.835.21,5.2v10.9h-2.06V130.157H337.7l10.459,16.035h.105q-.027-.355-.118-2.277t-.065-2.749V130.157h2.086Z" transform="translate(-222.562 -129.855)"/>
      <path id="Path_16" data-name="Path 16" class="cls-1" d="M362.826,149.34V130.157h2.231V149.34Z" transform="translate(-228.823 -129.855)"/>
      <path id="Path_17" data-name="Path 17" class="cls-1" d="M381.893,131.795a6.276,6.276,0,0,0-4.993,2.1,8.5,8.5,0,0,0-1.83,5.767,8.664,8.664,0,0,0,1.765,5.821,6.274,6.274,0,0,0,5.031,2.053,17.175,17.175,0,0,0,4.58-.723v1.956a14.11,14.11,0,0,1-4.921.747,8.326,8.326,0,0,1-6.542-2.571q-2.3-2.573-2.3-7.309a11.52,11.52,0,0,1,1.11-5.2,7.962,7.962,0,0,1,3.2-3.439,9.705,9.705,0,0,1,4.928-1.208,11.888,11.888,0,0,1,5.275,1.1l-.945,1.916A10.173,10.173,0,0,0,381.893,131.795Z" transform="translate(-231.054 -129.774)"/>
      <path id="Path_18" data-name="Path 18" class="cls-1" d="M408.633,149.317l-2.388-6.1h-7.689l-2.362,6.1h-2.257l7.584-19.262H403.4l7.546,19.262Zm-3.083-8.109-2.231-5.945q-.433-1.128-.892-2.768a25.231,25.231,0,0,1-.827,2.768l-2.257,5.945Z" transform="translate(-235.866 -129.832)"/>
      <path id="Path_19" data-name="Path 19" class="cls-1" d="M425.99,149.34h-2.231v-17.2h-6.074v-1.981h14.381v1.981H425.99Z" transform="translate(-241.243 -129.855)"/>
      <path id="Path_20" data-name="Path 20" class="cls-1" d="M441.464,149.34V130.157H443.7V149.34Z" transform="translate(-246.627 -129.855)"/>
      <path id="Path_21" data-name="Path 21" class="cls-1" d="M468.97,139.634a10.565,10.565,0,0,1-2.33,7.244,8.186,8.186,0,0,1-6.477,2.636,8.288,8.288,0,0,1-6.541-2.592q-2.3-2.591-2.3-7.315,0-4.686,2.31-7.263a8.35,8.35,0,0,1,6.561-2.578,8.174,8.174,0,0,1,6.457,2.624A10.552,10.552,0,0,1,468.97,139.634Zm-15.288,0a9.106,9.106,0,0,0,1.661,5.911,6.779,6.779,0,0,0,9.638.008,11.508,11.508,0,0,0,.005-11.791,5.805,5.805,0,0,0-4.8-2,5.917,5.917,0,0,0-4.848,2.015A9.012,9.012,0,0,0,453.682,139.634Z" transform="translate(-248.859 -129.767)"/>
      <path id="Path_22" data-name="Path 22" class="cls-1" d="M496.111,149.34h-2.546l-10.485-16.1h-.1q.21,2.835.21,5.2v10.9h-2.062V130.157h2.52L494.1,146.192h.106q-.028-.355-.118-2.277t-.066-2.749V130.157h2.087Z" transform="translate(-255.607 -129.855)"/>
      <path id="Path_23" data-name="Path 23" class="cls-1" d="M519.235,144.155a4.706,4.706,0,0,1-1.837,3.95,7.966,7.966,0,0,1-4.986,1.416,12.52,12.52,0,0,1-5.25-.878v-2.153a13.876,13.876,0,0,0,2.572.788,13.588,13.588,0,0,0,2.757.289,5.562,5.562,0,0,0,3.358-.847,2.779,2.779,0,0,0,1.129-2.355,3.017,3.017,0,0,0-.4-1.635,3.7,3.7,0,0,0-1.338-1.174,18.8,18.8,0,0,0-2.854-1.22,9.111,9.111,0,0,1-3.824-2.27,5.008,5.008,0,0,1-1.15-3.425,4.259,4.259,0,0,1,1.667-3.53,6.927,6.927,0,0,1,4.409-1.313,12.986,12.986,0,0,1,5.263,1.051l-.7,1.942a11.9,11.9,0,0,0-4.618-1,4.471,4.471,0,0,0-2.769.761,2.506,2.506,0,0,0-1,2.112,3.247,3.247,0,0,0,.367,1.633,3.463,3.463,0,0,0,1.241,1.169,15.257,15.257,0,0,0,2.671,1.174,10.592,10.592,0,0,1,4.153,2.31A4.543,4.543,0,0,1,519.235,144.155Z" transform="translate(-261.502 -129.774)"/>
    </g>
    <path id="Path_24" data-name="Path 24" class="cls-2" d="M120.769,133.468V109.04l24.52-30.905h4.256l-25.351,32.109v26.464L108,136.8V71.935h3.332v61.533Zm12.769-24.891L150.1,131.063h-4.166l-16.655-22.486,26.095-33.219H143.345L117.621,108.3v22.764h-3.329V107.19l27.481-35.255h20.45ZM120.675,75.359h-3.054V97.381l-3.329,4.256v-29.7H124.1V89.146L120.675,93.4Zm16.842,33.588,2.13-2.683,22.67,30.443h-20.08l-14.9-20.08v-5.551L143.9,133.468h11.752Z" transform="translate(0)"/>
  </g>
</svg>
