<svg xmlns="http://www.w3.org/2000/svg" width="219.667" height="44.187" viewBox="0 0 219.667 44.187">
  <defs>
    <style>
      .cls-1 {
        fill: #4f4f4f;
      }

      .cls-2 {
        fill: #19335e;
      }
    </style>
  </defs>
  <g id="group-logo-small" transform="translate(-108 -71.935)">
    <g id="Group_2" data-name="Group 2" transform="translate(150.277 71.944)">
      <path id="Path_2" data-name="Path 2" d="M212.6,99.616h-8.212l-5.321-10.292-2.155,1.288v9H189.6V72.7h7.309V84.389a32.042,32.042,0,0,1,2.228-3.443l5.652-8.248h7.954l-8.488,12.06Z" transform="translate(-189.602 -72.312)"/>
      <path id="Path_3" data-name="Path 3" d="M257.707,99.513l-1.326-5.045h-8.746l-1.362,5.045h-7.991l8.782-27.03h9.7l8.893,27.03ZM254.872,88.5l-1.16-4.419q-.406-1.473-.985-3.812t-.764-3.35q-.166.939-.654,3.094T249.146,88.5Z" transform="translate(-213.062 -72.208)"/>
      <path id="Path_4" data-name="Path 4" d="M306,99.616h-7.272V78.644h-6.573V72.7h20.4v5.946H306Z" transform="translate(-239.023 -72.312)"/>
      <path id="Path_5" data-name="Path 5" d="M347.684,99.513l-1.326-5.045h-8.746l-1.362,5.045H328.26l8.782-27.03h9.7l8.893,27.03ZM344.848,88.5l-1.159-4.419q-.406-1.473-.985-3.812t-.764-3.35q-.165.939-.653,3.094T339.123,88.5Z" transform="translate(-256.424 -72.208)"/>
      <path id="Path_6" data-name="Path 6" d="M386.721,99.616V72.7h7.272V93.741h10.366v5.875Z" transform="translate(-284.597 -72.312)"/>
      <path id="Path_7" data-name="Path 7" d="M429.083,99.616V72.7h7.309V99.616Z" transform="translate(-305.012 -72.312)"/>
      <path id="Path_8" data-name="Path 8" d="M470.858,91.082a7.944,7.944,0,0,1-1.27,4.446,8.322,8.322,0,0,1-3.664,3.02,13.576,13.576,0,0,1-5.615,1.077,22.784,22.784,0,0,1-4.511-.377,16.684,16.684,0,0,1-3.792-1.316V91.449a21.6,21.6,0,0,0,4.327,1.667,16.161,16.161,0,0,0,4.124.6,3.994,3.994,0,0,0,2.374-.562,1.723,1.723,0,0,0,.755-1.444,1.592,1.592,0,0,0-.3-.967,3.569,3.569,0,0,0-.976-.837q-.673-.424-3.582-1.73a17.172,17.172,0,0,1-3.949-2.321,7.123,7.123,0,0,1-1.952-2.577,8.558,8.558,0,0,1-.635-3.443,6.9,6.9,0,0,1,2.706-5.8,11.927,11.927,0,0,1,7.438-2.081,20.882,20.882,0,0,1,8.525,1.932L468.631,79.5a16.145,16.145,0,0,0-6.517-1.73,3.4,3.4,0,0,0-2.062.5,1.5,1.5,0,0,0-.644,1.233,1.779,1.779,0,0,0,.819,1.418,31.28,31.28,0,0,0,4.447,2.283,12.288,12.288,0,0,1,4.833,3.359A7.3,7.3,0,0,1,470.858,91.082Z" transform="translate(-316.059 -71.952)"/>
      <path id="Path_9" data-name="Path 9" d="M506.47,99.616H499.2V78.644h-6.573V72.7h20.4v5.946H506.47Z" transform="translate(-335.634 -72.312)"/>
    </g>
    <g id="Group_3" data-name="Group 3" transform="translate(150.277 102.897)">
      <path id="Path_10" data-name="Path 10" class="cls-1" d="M195.771,131.136a4.2,4.2,0,0,0-3.344,1.41,5.691,5.691,0,0,0-1.226,3.862,5.8,5.8,0,0,0,1.182,3.9,4.2,4.2,0,0,0,3.37,1.375,11.505,11.505,0,0,0,3.067-.484v1.31a9.447,9.447,0,0,1-3.295.5,5.575,5.575,0,0,1-4.381-1.722,7.093,7.093,0,0,1-1.542-4.895,7.729,7.729,0,0,1,.742-3.48,5.331,5.331,0,0,1,2.145-2.3,6.493,6.493,0,0,1,3.3-.809,7.958,7.958,0,0,1,3.533.739l-.633,1.283A6.809,6.809,0,0,0,195.771,131.136Z" transform="translate(-189.602 -129.782)"/>
      <path id="Path_11" data-name="Path 11" class="cls-1" d="M224.8,136.375a7.075,7.075,0,0,1-1.56,4.851,5.484,5.484,0,0,1-4.337,1.766,5.55,5.55,0,0,1-4.381-1.736,7.128,7.128,0,0,1-1.542-4.9,7.042,7.042,0,0,1,1.546-4.864,5.594,5.594,0,0,1,4.394-1.726,5.471,5.471,0,0,1,4.323,1.757A7.064,7.064,0,0,1,224.8,136.375Zm-10.238,0a6.1,6.1,0,0,0,1.111,3.959,4.54,4.54,0,0,0,6.455.005,7.715,7.715,0,0,0,0-7.9,3.889,3.889,0,0,0-3.212-1.34,3.964,3.964,0,0,0-3.247,1.35A6.032,6.032,0,0,0,214.559,136.375Z" transform="translate(-200.867 -129.767)"/>
      <path id="Path_12" data-name="Path 12" class="cls-1" d="M248.467,143l-4.359-11.39h-.07q.123,1.355.123,3.216V143h-1.38V130.157h2.25l4.068,10.6h.07l4.1-10.6h2.232V143h-1.494v-8.278q0-1.424.123-3.093h-.07L249.671,143Z" transform="translate(-215.23 -129.955)"/>
      <path id="Path_13" data-name="Path 13" class="cls-1" d="M281.289,143l-4.359-11.39h-.069q.122,1.355.122,3.216V143H275.6V130.157h2.25l4.069,10.6h.07l4.1-10.6h2.232V143h-1.494v-8.278q0-1.424.123-3.093h-.07L282.493,143Z" transform="translate(-231.047 -129.955)"/>
      <path id="Path_14" data-name="Path 14" class="cls-1" d="M318.006,130.157v8.313a4.525,4.525,0,0,1-1.327,3.453,5.085,5.085,0,0,1-3.647,1.257,4.868,4.868,0,0,1-3.59-1.265,4.693,4.693,0,0,1-1.269-3.48v-8.278h1.494v8.384a3.3,3.3,0,0,0,.879,2.47,3.548,3.548,0,0,0,2.584.861,3.42,3.42,0,0,0,2.5-.866,3.328,3.328,0,0,0,.879-2.483v-8.366Z" transform="translate(-246.743 -129.955)"/>
      <path id="Path_15" data-name="Path 15" class="cls-1" d="M345.213,143h-1.705l-7.022-10.782h-.07q.141,1.9.141,3.48V143h-1.38V130.157h1.687l7,10.739h.07q-.018-.238-.079-1.525t-.044-1.841v-7.372h1.4Z" transform="translate(-259.757 -129.955)"/>
      <path id="Path_16" data-name="Path 16" class="cls-1" d="M362.826,143V130.157h1.494V143Z" transform="translate(-273.082 -129.955)"/>
      <path id="Path_17" data-name="Path 17" class="cls-1" d="M378.85,131.136a4.2,4.2,0,0,0-3.344,1.41,5.691,5.691,0,0,0-1.226,3.862,5.8,5.8,0,0,0,1.182,3.9,4.2,4.2,0,0,0,3.37,1.375,11.5,11.5,0,0,0,3.067-.484v1.31a9.45,9.45,0,0,1-3.3.5,5.576,5.576,0,0,1-4.381-1.722,7.1,7.1,0,0,1-1.542-4.895,7.716,7.716,0,0,1,.743-3.48,5.332,5.332,0,0,1,2.144-2.3,6.5,6.5,0,0,1,3.3-.809,7.961,7.961,0,0,1,3.533.739l-.633,1.283A6.813,6.813,0,0,0,378.85,131.136Z" transform="translate(-277.831 -129.782)"/>
      <path id="Path_18" data-name="Path 18" class="cls-1" d="M403.779,142.955l-1.6-4.086h-5.15l-1.582,4.086h-1.512l5.079-12.9h1.257l5.053,12.9Zm-2.065-5.431-1.494-3.981q-.29-.755-.6-1.854a16.892,16.892,0,0,1-.554,1.854l-1.512,3.981Z" transform="translate(-288.074 -129.906)"/>
      <path id="Path_19" data-name="Path 19" class="cls-1" d="M423.247,143h-1.494V131.484h-4.068v-1.327h9.631v1.327h-4.069Z" transform="translate(-299.519 -129.955)"/>
      <path id="Path_20" data-name="Path 20" class="cls-1" d="M441.464,143V130.157h1.5V143Z" transform="translate(-310.979 -129.955)"/>
      <path id="Path_21" data-name="Path 21" class="cls-1" d="M463.141,136.375a7.075,7.075,0,0,1-1.56,4.851,5.483,5.483,0,0,1-4.337,1.766,5.55,5.55,0,0,1-4.38-1.736,7.13,7.13,0,0,1-1.542-4.9,7.039,7.039,0,0,1,1.547-4.864,5.592,5.592,0,0,1,4.394-1.726,5.474,5.474,0,0,1,4.324,1.757A7.067,7.067,0,0,1,463.141,136.375Zm-10.239,0a6.1,6.1,0,0,0,1.112,3.959,4.54,4.54,0,0,0,6.455.005,7.707,7.707,0,0,0,0-7.9,3.888,3.888,0,0,0-3.212-1.34,3.963,3.963,0,0,0-3.247,1.35A6.035,6.035,0,0,0,452.9,136.375Z" transform="translate(-315.729 -129.767)"/>
      <path id="Path_22" data-name="Path 22" class="cls-1" d="M491.161,143h-1.7l-7.022-10.782h-.07q.141,1.9.141,3.48V143h-1.381V130.157h1.687l7,10.739h.071q-.019-.238-.079-1.525t-.045-1.841v-7.372h1.4Z" transform="translate(-330.092 -129.955)"/>
      <path id="Path_23" data-name="Path 23" class="cls-1" d="M515.248,139.414a3.151,3.151,0,0,1-1.231,2.645,5.335,5.335,0,0,1-3.339.949,8.385,8.385,0,0,1-3.516-.588v-1.442a9.292,9.292,0,0,0,1.723.527,9.1,9.1,0,0,0,1.846.194,3.725,3.725,0,0,0,2.249-.567,1.861,1.861,0,0,0,.756-1.577,2.021,2.021,0,0,0-.268-1.095,2.478,2.478,0,0,0-.9-.786,12.591,12.591,0,0,0-1.911-.817,6.1,6.1,0,0,1-2.561-1.521,3.354,3.354,0,0,1-.77-2.294,2.853,2.853,0,0,1,1.116-2.364,4.639,4.639,0,0,1,2.953-.879,8.7,8.7,0,0,1,3.525.7l-.467,1.3a7.972,7.972,0,0,0-3.092-.667,2.994,2.994,0,0,0-1.855.51,1.679,1.679,0,0,0-.668,1.414,2.174,2.174,0,0,0,.246,1.094,2.319,2.319,0,0,0,.831.783,10.218,10.218,0,0,0,1.789.786,7.093,7.093,0,0,1,2.781,1.547A3.043,3.043,0,0,1,515.248,139.414Z" transform="translate(-342.64 -129.782)"/>
    </g>
    <path id="Path_24" data-name="Path 24" class="cls-2" d="M116.551,113.145V96.785l16.421-20.7h2.85l-16.978,21.5v17.723L108,115.376V71.935h2.231v41.21Zm8.551-16.67L136.2,111.534h-2.79L122.252,96.475l17.476-22.247h-8.057L114.443,96.289v15.245h-2.229V95.546l18.4-23.611h13.7Zm-8.614-22.247h-2.045V88.977l-2.229,2.85V71.935h6.569V83.461l-2.294,2.851Zm11.279,22.495,1.426-1.8,15.182,20.388H130.929l-9.978-13.448V98.148l11.093,15h7.87Z"/>
  </g>
</svg>
