<svg xmlns="http://www.w3.org/2000/svg" width="330.841" height="200" viewBox="0 0 330.841 200">
  <defs>
    <style>
      .cls-1 {
        fill: #3f3d56;
      }

      .cls-2 {
        fill: #f2f2f2;
      }

      .cls-3 {
        fill: #6c63ff;
      }

      .cls-4 {
        fill: #9f616a;
      }

      .cls-5 {
        fill: #2f2e41;
      }
    </style>
  </defs>
  <g id="logo-design-small" transform="translate(0 0)">
    <path id="Path_125" data-name="Path 125" class="cls-1" d="M855.106,482.379l-3.541-2.977.332-.4.333.28a1.276,1.276,0,0,1-.027-.562,1.135,1.135,0,0,1,.261-.509,1.322,1.322,0,0,1,.655-.437,1.353,1.353,0,0,1,.794.022,2.273,2.273,0,0,1,.781.439,2.236,2.236,0,0,1,.589.736,1.388,1.388,0,0,1,.138.815,1.372,1.372,0,0,1-.308.706,1.065,1.065,0,0,1-.419.312,1.159,1.159,0,0,1-.469.089l1.246,1.048ZM853.19,480.1a1.456,1.456,0,0,0,.9.414.8.8,0,0,0,.644-.286.82.82,0,0,0,.172-.7,1.517,1.517,0,0,0-.585-.844,1.477,1.477,0,0,0-.9-.415.792.792,0,0,0-.648.276.816.816,0,0,0-.153.708,1.514,1.514,0,0,0,.574.847Z" transform="translate(-594.585 -367.794)"/>
    <path id="Path_126" data-name="Path 126" class="cls-1" d="M859.9,473.658l-.544-2.054-1.957-.168.456-.542.931.112q.265.033.437.063-.07-.24-.118-.432l-.242-.94.436-.518.462,1.9,2.155.187-.448.533-1.237-.143-.332-.041.445,1.522Z" transform="translate(-598.297 -362.313)"/>
    <rect id="Rectangle_76" data-name="Rectangle 76" class="cls-1" width="3.64" height="3.64" transform="translate(248.808 120.889) rotate(-49.946)"/>
    <rect id="Rectangle_77" data-name="Rectangle 77" class="cls-1" width="3.64" height="3.64" transform="translate(252.556 116.488) rotate(-49.946)"/>
    <path id="Path_127" data-name="Path 127" class="cls-1" d="M855.106,482.379l-3.541-2.977.332-.4.333.28a1.276,1.276,0,0,1-.027-.562,1.135,1.135,0,0,1,.261-.509,1.322,1.322,0,0,1,.655-.437,1.353,1.353,0,0,1,.794.022,2.273,2.273,0,0,1,.781.439,2.236,2.236,0,0,1,.589.736,1.388,1.388,0,0,1,.138.815,1.372,1.372,0,0,1-.308.706,1.065,1.065,0,0,1-.419.312,1.159,1.159,0,0,1-.469.089l1.246,1.048ZM853.19,480.1a1.456,1.456,0,0,0,.9.414.8.8,0,0,0,.644-.286.82.82,0,0,0,.172-.7,1.517,1.517,0,0,0-.585-.844,1.477,1.477,0,0,0-.9-.415.792.792,0,0,0-.648.276.816.816,0,0,0-.153.708,1.514,1.514,0,0,0,.574.847Z" transform="translate(-594.585 -367.794)"/>
    <path id="Path_128" data-name="Path 128" class="cls-1" d="M859.9,473.658l-.544-2.054-1.957-.168.456-.542.931.112q.265.033.437.063-.07-.24-.118-.432l-.242-.94.436-.518.462,1.9,2.155.187-.448.533-1.237-.143-.332-.041.445,1.522Z" transform="translate(-598.297 -362.313)"/>
    <rect id="Rectangle_78" data-name="Rectangle 78" class="cls-1" width="3.64" height="3.64" transform="translate(248.808 120.889) rotate(-49.946)"/>
    <rect id="Rectangle_79" data-name="Rectangle 79" class="cls-1" width="3.64" height="3.64" transform="translate(252.556 116.488) rotate(-49.946)"/>
    <rect id="Rectangle_80" data-name="Rectangle 80" class="cls-1" width="330.841" height="0.728" transform="translate(0 199.272)"/>
    <circle id="Ellipse_21" data-name="Ellipse 21" class="cls-2" cx="4.152" cy="4.152" r="4.152" transform="translate(171.667 25.844)"/>
    <path id="Path_129" data-name="Path 129" class="cls-2" d="M319.412,248.752a8.019,8.019,0,0,0-5.206-7.392,8.007,8.007,0,1,0-5.8.078,8,8,0,0,0,.2,14.921,8.007,8.007,0,1,0,5.8-.078,8.019,8.019,0,0,0,5.007-7.529Zm-15.485-14.717A7.279,7.279,0,1,1,312.943,241a8.016,8.016,0,0,0-3.285.044,7.287,7.287,0,0,1-5.731-7.009Zm14.956,29.647a7.279,7.279,0,1,1-9.016-6.965,8.016,8.016,0,0,0,3.285-.044A7.287,7.287,0,0,1,318.884,263.683Zm-5.741-7.761a8.016,8.016,0,0,0-3.285.044,7.272,7.272,0,0,1-.19-14.169,8.016,8.016,0,0,0,3.285-.044,7.272,7.272,0,0,1,.19,14.169Z" transform="translate(-245.802 -206.233)"/>
    <path id="Path_130" data-name="Path 130" class="cls-3" d="M95.679,198.825H89.661v76.142h38.2v-6.018H95.679Z" transform="translate(-57.028 -127.89)"/>
    <path id="Path_131" data-name="Path 131" class="cls-3" d="M387.118,370.64H381.1v76.142h38.2V370.64Zm26.166,70.124H387.118V376.658h26.166Z" transform="translate(-295.351 -299.705)"/>
    <path id="Path_132" data-name="Path 132" class="cls-3" d="M719.9,371H687.716v76.142h38.2V371Zm0,70.124H693.734V377.017H719.9Z" transform="translate(-490.37 -299.936)"/>
    <path id="Path_133" data-name="Path 133" class="cls-3" d="M412.645,237.125h-4.972v6.018h4.972v26.166H386.479V205.2h32.184v-6.018h-38.2v76.142h38.2V243.143h4.971v-6.018H412.645Z" transform="translate(-241.988 -128.122)"/>
    <rect id="Rectangle_81" data-name="Rectangle 81" class="cls-1" width="1.935" height="0.645" transform="translate(54.915 64.781)"/>
    <path id="Path_134" data-name="Path 134" class="cls-1" d="M459.14,352.677h-3.961v-.645h3.961Zm-7.922,0h-3.961v-.645h3.961Zm-7.922,0h-3.961v-.645H443.3Zm-7.922,0h-3.961v-.645h3.961Zm-7.922,0H423.49v-.645h3.961Zm-7.922,0h-3.961v-.645h3.961Zm-7.922,0h-3.961v-.645h3.961Zm-7.922,0h-3.961v-.645h3.961Zm-7.922,0H391.8v-.645h3.961Zm-7.922,0H383.88v-.645h3.961Zm-7.922,0h-3.961v-.645h3.961Zm-7.922,0h-3.961v-.645H372Zm-7.922,0h-3.961v-.645h3.961Zm-7.922,0h-3.961v-.645h3.961Zm-7.922,0h-3.961v-.645h3.961Zm-7.922,0h-3.961v-.645h3.961Zm-7.922,0h-3.961v-.645h3.961Zm-7.922,0H320.5v-.645h3.961Zm-7.922,0h-3.961v-.645h3.961Z" transform="translate(-251.77 -287.251)"/>
    <rect id="Rectangle_82" data-name="Rectangle 82" class="cls-1" width="1.935" height="0.645" transform="translate(211.331 64.781)"/>
    <rect id="Rectangle_83" data-name="Rectangle 83" class="cls-1" width="0.645" height="1.935" transform="translate(241.727 81.337)"/>
    <path id="Path_135" data-name="Path 135" class="cls-1" d="M810.3,458.847h-.645v-4.032h.645Zm0-8.063h-.645v-4.031h.645Zm0-8.063h-.645V438.69h.645Zm0-8.063h-.645v-4.031h.645Zm0-8.063h-.645v-4.032h.645Zm0-8.063h-.645V414.5h.645Z" transform="translate(-567.928 -327.568)"/>
    <rect id="Rectangle_84" data-name="Rectangle 84" class="cls-1" width="0.645" height="1.935" transform="translate(241.727 135.003)"/>
    <rect id="Rectangle_85" data-name="Rectangle 85" class="cls-2" width="0.645" height="134.163" transform="translate(32.42 40.923)"/>
    <rect id="Rectangle_86" data-name="Rectangle 86" class="cls-2" width="0.645" height="134.163" transform="translate(235.277 40.842)"/>
    <rect id="Rectangle_87" data-name="Rectangle 87" class="cls-2" width="267.68" height="0.645" transform="translate(0.25 146.321)"/>
    <rect id="Rectangle_88" data-name="Rectangle 88" class="cls-2" width="267.68" height="0.645" transform="translate(0.17 71.151)"/>
    <path id="Path_136" data-name="Path 136" class="cls-4" d="M927.678,267.032a2.836,2.836,0,0,1-.25,1.323,2.948,2.948,0,0,1-1.007.94l-2.94,1.983c-.867.585-1.847,1.621-1.291,2.507a1.912,1.912,0,0,0,.839.635,21.727,21.727,0,0,0,9.787,1.667,11.806,11.806,0,0,0,6.16-1.356,16.682,16.682,0,0,1,2.542-1.656c.652-.259,1.5-.448,1.667-1.13.226-.923-.989-1.435-1.867-1.8a7.118,7.118,0,0,1-3.793-4.535,17.38,17.38,0,0,1-.519-6.05,1.106,1.106,0,0,0-.187-.837,1.076,1.076,0,0,0-.69-.242,36.477,36.477,0,0,0-6.091-.1,4.256,4.256,0,0,0-2.155.561c-1.235.846-.534,2.28-.4,3.47a35.991,35.991,0,0,1,.2,4.624Z" transform="translate(-639.402 -227.245)"/>
    <path id="Path_137" data-name="Path 137" class="cls-5" d="M962.265,171.815a7.049,7.049,0,0,1-4.373,2.29c-2.915.416-.625,5-.625,5a2.633,2.633,0,0,1,.833-3.123C959.767,174.522,962.265,173.689,962.265,171.815Z" transform="translate(-661.272 -171.815)"/>
    <circle id="Ellipse_22" data-name="Ellipse 22" class="cls-5" cx="3.594" cy="3.594" r="3.594" transform="translate(291.78 4.651)"/>
    <path id="Path_138" data-name="Path 138" class="cls-3" d="M950.945,195.518a25.445,25.445,0,0,0-10.091-2.509l.642-2.454a19.718,19.718,0,0,0,10.091,2.509Z" transform="translate(-651.376 -183.734)"/>
    <circle id="Ellipse_23" data-name="Ellipse 23" class="cls-5" cx="12.897" cy="12.897" r="12.897" transform="translate(278.672 9.091)"/>
    <rect id="Rectangle_89" data-name="Rectangle 89" class="cls-4" width="5.92" height="10.148" transform="translate(281.737 180.91)"/>
    <rect id="Rectangle_90" data-name="Rectangle 90" class="cls-4" width="5.92" height="10.148" transform="translate(298.862 180.91)"/>
    <path id="Path_139" data-name="Path 139" class="cls-4" d="M765.009,206.351l-2.867,9.566,29.083.582L788.9,206.351l-7.611-5.074Z" transform="translate(-484.752 -128.997)"/>
    <circle id="Ellipse_24" data-name="Ellipse 24" class="cls-4" cx="9.302" cy="9.302" r="9.302" transform="translate(281.103 18.288)"/>
    <path id="Path_140" data-name="Path 140" class="cls-4" d="M866.661,353.1a13.176,13.176,0,0,0-.934,5.21c.082,2.066.726,4.709.325,6.5-1.551,6.934-3.852,17.23-8.012,22.845-.977,1.318-2.887,2.045-4.335,3.044a9.408,9.408,0,0,0-3.612,3.858,10.744,10.744,0,0,0-.543,4.6,2.953,2.953,0,0,0,.855,2.411.818.818,0,0,0,.5-.795c.037-.354-.034-.715.027-1.079a2.207,2.207,0,0,1,1.169-1.5c3.4-2.1,7.031-3.931,8.831-7.585s3.165-6.913,5.6-10.131a26.94,26.94,0,0,0,1.915-2.554,19.944,19.944,0,0,0,2.115-5.206,67.829,67.829,0,0,0,1.75-11.759c.155-1.995.144-4.132-1.37-5.422C869.544,354.346,867.839,354.5,866.661,353.1Z" transform="translate(-593.29 -288.187)"/>
    <path id="Path_141" data-name="Path 141" class="cls-4" d="M1001.341,340.8a15.066,15.066,0,0,1,.483,5.407c-.2,2.2-.894,4.393-.584,6.581,1.2,8.466-.109,17.224.565,25.748.158,2,.8,4.216.916,6.22a10.282,10.282,0,0,1-1.138,5.824,14.07,14.07,0,0,1-3.2,3.392c-.657.557-1.521,1.15-2.307.8a.812.812,0,0,1,.2-.934c.235-.251.544-.426.76-.693a2.689,2.689,0,0,0,.352-1.906c-.277-3.925-.854-7.949.217-11.736s.412-7.9-.677-11.666c-.291-1.007-.67-1.989-.923-3.007a25.181,25.181,0,0,1-.538-5.418l-.3-11.217c-.051-1.911.066-4.164,1.659-5.221C998.309,342,1000.18,342.134,1001.341,340.8Z" transform="translate(-685.921 -280.33)"/>
    <path id="Path_142" data-name="Path 142" class="cls-5" d="M926.051,402.615a21.318,21.318,0,0,1-12.643,3.4,16.9,16.9,0,0,1-7.95-1.125l-8.221-2.806c-5.816,13.967-8.1,29.444-4.946,44.241,1.149,5.387-.055,10.968-.053,16.476a54.329,54.329,0,0,0,.213,5.85c.163,1.5.451,2.984.648,4.48,1.2,9.112-.967,18.436.387,27.527.186,1.248,1.7,1.939,2.9,2.318a11.849,11.849,0,0,0,1.854.373,40.249,40.249,0,0,0,9.62.628c.783-.075,1.712-.315,1.95-1.066.19-.6-.156-1.313.17-1.849,2.082-3.422.531-8.112.745-12.112.566-10.583-.126-21.22.85-31.773.187-2.02-.08-3.8.1-5.823l.124-1.372.377-4.168c.225,5.81.468,11.481.693,17.291a19.649,19.649,0,0,0,.63,5.018c.262.856.642,1.675.857,2.543a14.039,14.039,0,0,1,.3,2.857l.961,25.6a20.909,20.909,0,0,1-.2,2.753c-.094,1.047-.113,2.281.711,2.934a2.715,2.715,0,0,0,1.457.475,17.55,17.55,0,0,0,4.692-.406c1.569-.28,4.83-.559,6.4-.839a2.422,2.422,0,0,0,.688-.194,2.075,2.075,0,0,0,.816-2.091,6.049,6.049,0,0,1-.041-2.365c3.177-9.806-.68-20.572.036-30.854.637-9.157.548-18.347.458-27.526-.053-5.428-.42-10.737-.307-16.164.138-6.612.631-13.538-2.171-19.53A6.182,6.182,0,0,0,926.051,402.615Z" transform="translate(-619.583 -320.775)"/>
    <path id="Path_143" data-name="Path 143" class="cls-5" d="M922.3,690.86s-6.131-2.96-7.188,0-3.171,9.937-.846,11.628h0a5.389,5.389,0,0,0,5.276.608c1.5-.639,2.973-1.445,2.758-2.088C921.877,699.74,922.3,690.86,922.3,690.86Z" transform="translate(-633.797 -503.608)"/>
    <path id="Path_144" data-name="Path 144" class="cls-5" d="M964.277,690.86s6.131-2.96,7.188,0,3.171,9.937.846,11.628h0a5.389,5.389,0,0,1-5.276.608c-1.5-.639-2.973-1.445-2.758-2.088C964.7,699.74,964.277,690.86,964.277,690.86Z" transform="translate(-666.26 -503.608)"/>
    <path id="Path_145" data-name="Path 145" class="cls-5" d="M921.789,295.278a238.458,238.458,0,0,0-26.555,1.009,4.973,4.973,0,0,0-1.9.44,4.612,4.612,0,0,0-1.293,1.17,28.242,28.242,0,0,0-6.516,16.811,3.093,3.093,0,0,0,.537,2.266c2.447,2.661,5.549,4.6,7.488,7.654a12,12,0,0,0,1.623,2.288,23.813,23.813,0,0,0-.158,6.594,10.6,10.6,0,0,1,5.217-3.439,31.607,31.607,0,0,1,6.23-1.14c3.066-.351,6.348-.665,9.08.77,2.144,1.127,3.706,3.226,5.961,4.11a42.1,42.1,0,0,0,.527-5.712c.064-2.68,2.075-4.659,3.135-7.121a13.488,13.488,0,0,1,1.049-2.093,9.066,9.066,0,0,1,4.669-3.384,27,27,0,0,1,5.751-1.117c.884-1.243.6-2.834-.015-4.23a22.174,22.174,0,0,0-2.528-3.8c-1.725-2.409-2.963-5.156-4.859-7.433A9.734,9.734,0,0,0,921.789,295.278Z" transform="translate(-616.176 -251.002)"/>
    <path id="Path_146" data-name="Path 146" class="cls-5" d="M923.033,207.537a21.164,21.164,0,0,1-13.126,6.876c-8.751,1.25-1.875,15-1.875,15s-2.5-5,2.5-9.376S923.033,213.162,923.033,207.537Z" transform="translate(-628.866 -194.535)"/>
    <path id="Path_147" data-name="Path 147" class="cls-5" d="M953.313,207.537s2.5,8.751,6.251,10,1.875,14.376-4.375,15.627c0,0,5.313-7.188,2.188-12.814S952.375,210.35,953.313,207.537Z" transform="translate(-659.146 -194.535)"/>
    <path id="Path_148" data-name="Path 148" class="cls-5" d="M923.033,207.537a21.164,21.164,0,0,1-13.126,6.876c-8.751,1.25-1.875,15-1.875,15s-2.5-5,2.5-9.376S923.033,213.162,923.033,207.537Z" transform="translate(-628.866 -194.535)"/>
    <path id="Path_149" data-name="Path 149" class="cls-5" d="M953.313,207.537s2.5,8.751,6.251,10,1.875,14.376-4.375,15.627c0,0,5.313-7.188,2.188-12.814S952.375,210.35,953.313,207.537Z" transform="translate(-659.146 -194.535)"/>
    <path id="Path_150" data-name="Path 150" class="cls-1" d="M530.308,330.079v-4.627h.517v.435a1.273,1.273,0,0,1,.413-.383,1.134,1.134,0,0,1,.557-.128,1.322,1.322,0,0,1,.756.22,1.353,1.353,0,0,1,.495.622,2.272,2.272,0,0,1,.167.88,2.236,2.236,0,0,1-.184.924,1.39,1.39,0,0,1-.535.63,1.374,1.374,0,0,1-.739.219,1.066,1.066,0,0,1-.509-.12,1.159,1.159,0,0,1-.37-.3v1.628Zm.513-2.935a1.456,1.456,0,0,0,.261.954.8.8,0,0,0,.633.309.82.82,0,0,0,.647-.32,1.517,1.517,0,0,0,.269-.991,1.477,1.477,0,0,0-.263-.957.792.792,0,0,0-.628-.318.816.816,0,0,0-.641.339,1.515,1.515,0,0,0-.279.984Z" transform="translate(-390.253 -270.191)"/>
    <path id="Path_151" data-name="Path 151" class="cls-1" d="M539.126,328.93l1.222-1.739-1.131-1.606h.709l.513.784q.145.224.233.375.138-.208.255-.369l.564-.79h.677l-1.156,1.575,1.244,1.77h-.7l-.687-1.039-.183-.28-.879,1.32Z" transform="translate(-395.861 -270.32)"/>
    <rect id="Rectangle_91" data-name="Rectangle 91" class="cls-1" width="3.64" height="3.64" transform="translate(121.786 55.053)"/>
    <rect id="Rectangle_92" data-name="Rectangle 92" class="cls-1" width="3.64" height="3.64" transform="translate(127.609 55.053)"/>
    <rect id="Rectangle_93" data-name="Rectangle 93" class="cls-1" width="3.64" height="3.64" transform="translate(133.432 55.053)"/>
  </g>
</svg>
