<svg xmlns="http://www.w3.org/2000/svg" width="648.788" height="392.205" viewBox="0 0 648.788 392.205">
  <defs>
    <style>
      .cls-1 {
        fill: #3f3d56;
      }

      .cls-2 {
        fill: #f2f2f2;
      }

      .cls-3 {
        fill: #6c63ff;
      }

      .cls-4 {
        fill: #9f616a;
      }

      .cls-5 {
        fill: #2f2e41;
      }
    </style>
  </defs>
  <g id="logo-design-large" transform="translate(0 0)">
    <path id="Path_125" data-name="Path 125" class="cls-1" d="M858.51,486.848l-6.945-5.838.652-.775.652.548a2.5,2.5,0,0,1-.054-1.1,2.225,2.225,0,0,1,.512-1,2.592,2.592,0,0,1,1.285-.856,2.653,2.653,0,0,1,1.558.043,4.455,4.455,0,0,1,1.532.86,4.384,4.384,0,0,1,1.155,1.443,2.722,2.722,0,0,1,.27,1.6,2.691,2.691,0,0,1-.6,1.385,2.089,2.089,0,0,1-.821.613,2.275,2.275,0,0,1-.921.174L859.225,486Zm-3.758-4.475a2.856,2.856,0,0,0,1.762.812,1.571,1.571,0,0,0,1.262-.561,1.608,1.608,0,0,0,.337-1.375,2.974,2.974,0,0,0-1.147-1.654,2.9,2.9,0,0,0-1.769-.814,1.553,1.553,0,0,0-1.27.542,1.6,1.6,0,0,0-.3,1.389,2.969,2.969,0,0,0,1.126,1.661Z" transform="translate(-347.62 -262.143)"/>
    <path id="Path_126" data-name="Path 126" class="cls-1" d="M862.307,477.965l-1.067-4.028-3.838-.33.894-1.064,1.825.219q.519.065.857.123-.138-.47-.231-.848l-.475-1.844.855-1.016.905,3.722,4.227.366-.878,1.045-2.427-.281-.651-.08.872,2.984Z" transform="translate(-349.29 -259.615)"/>
    <rect id="Rectangle_76" data-name="Rectangle 76" class="cls-1" width="7.137" height="7.137" transform="translate(487.92 237.066) rotate(-49.946)"/>
    <rect id="Rectangle_77" data-name="Rectangle 77" class="cls-1" width="7.137" height="7.137" transform="translate(495.268 228.435) rotate(-49.946)"/>
    <path id="Path_127" data-name="Path 127" class="cls-1" d="M858.51,486.848l-6.945-5.838.652-.775.652.548a2.5,2.5,0,0,1-.054-1.1,2.225,2.225,0,0,1,.512-1,2.592,2.592,0,0,1,1.285-.856,2.653,2.653,0,0,1,1.558.043,4.455,4.455,0,0,1,1.532.86,4.384,4.384,0,0,1,1.155,1.443,2.722,2.722,0,0,1,.27,1.6,2.691,2.691,0,0,1-.6,1.385,2.089,2.089,0,0,1-.821.613,2.275,2.275,0,0,1-.921.174L859.225,486Zm-3.758-4.475a2.856,2.856,0,0,0,1.762.812,1.571,1.571,0,0,0,1.262-.561,1.608,1.608,0,0,0,.337-1.375,2.974,2.974,0,0,0-1.147-1.654,2.9,2.9,0,0,0-1.769-.814,1.553,1.553,0,0,0-1.27.542,1.6,1.6,0,0,0-.3,1.389,2.969,2.969,0,0,0,1.126,1.661Z" transform="translate(-347.62 -262.143)"/>
    <path id="Path_128" data-name="Path 128" class="cls-1" d="M862.307,477.965l-1.067-4.028-3.838-.33.894-1.064,1.825.219q.519.065.857.123-.138-.47-.231-.848l-.475-1.844.855-1.016.905,3.722,4.227.366-.878,1.045-2.427-.281-.651-.08.872,2.984Z" transform="translate(-349.29 -259.615)"/>
    <rect id="Rectangle_78" data-name="Rectangle 78" class="cls-1" width="7.137" height="7.137" transform="translate(487.92 237.066) rotate(-49.946)"/>
    <rect id="Rectangle_79" data-name="Rectangle 79" class="cls-1" width="7.137" height="7.137" transform="translate(495.268 228.435) rotate(-49.946)"/>
    <rect id="Rectangle_80" data-name="Rectangle 80" class="cls-1" width="648.788" height="1.427" transform="translate(0 390.778)"/>
    <circle id="Ellipse_21" data-name="Ellipse 21" class="cls-2" cx="8.143" cy="8.143" r="8.143" transform="translate(336.643 50.681)"/>
    <path id="Path_129" data-name="Path 129" class="cls-2" d="M334.994,270.686a15.725,15.725,0,0,0-10.209-14.5,15.7,15.7,0,1,0-11.374.152A15.7,15.7,0,0,0,313.8,285.6a15.7,15.7,0,1,0,11.374-.152,15.725,15.725,0,0,0,9.818-14.764Zm-30.366-28.86a14.275,14.275,0,1,1,17.68,13.659,15.72,15.72,0,0,0-6.442.086,14.29,14.29,0,0,1-11.239-13.745Zm29.33,58.139a14.275,14.275,0,1,1-17.68-13.659,15.719,15.719,0,0,0,6.442-.086A14.29,14.29,0,0,1,333.958,299.966ZM322.7,284.746a15.718,15.718,0,0,0-6.442.086,14.26,14.26,0,0,1-.372-27.787,15.718,15.718,0,0,0,6.442-.086,14.26,14.26,0,0,1,.372,27.787Z" transform="translate(-190.643 -187.305)"/>
    <path id="Path_130" data-name="Path 130" class="cls-3" d="M101.463,198.825h-11.8V348.141h74.915v-11.8H101.463Z" transform="translate(-25.667 -59.721)"/>
    <path id="Path_131" data-name="Path 131" class="cls-3" d="M392.9,370.64H381.1V519.956h74.915V370.64Zm51.311,137.514H392.9V382.442h51.311Z" transform="translate(-212.943 -231.536)"/>
    <path id="Path_132" data-name="Path 132" class="cls-3" d="M750.829,371H687.716V520.315h74.915V371Zm0,137.514H699.518V382.8h51.311Z" transform="translate(-300.716 -231.643)"/>
    <path id="Path_133" data-name="Path 133" class="cls-3" d="M443.574,273.586h-9.75v11.8h9.75V336.7H392.263V210.987h63.113v-11.8H380.461V348.5h74.915V285.388h9.749v-11.8H443.574Z" transform="translate(-108.912 -59.829)"/>
    <rect id="Rectangle_81" data-name="Rectangle 81" class="cls-1" width="3.795" height="1.265" transform="translate(107.689 127.036)"/>
    <path id="Path_134" data-name="Path 134" class="cls-1" d="M599.986,353.3h-7.768v-1.265h7.768Zm-15.535,0h-7.768v-1.265h7.768Zm-15.536,0h-7.768v-1.265h7.768Zm-15.536,0h-7.768v-1.265h7.767Zm-15.535,0h-7.768v-1.265h7.768Zm-15.536,0h-7.768v-1.265h7.768Zm-15.536,0h-7.767v-1.265h7.767Zm-15.535,0h-7.768v-1.265h7.768Zm-15.536,0h-7.768v-1.265H475.7Zm-15.535,0H452.4v-1.265h7.768Zm-15.536,0h-7.768v-1.265h7.768Zm-15.535,0h-7.768v-1.265H429.1Zm-15.536,0h-7.768v-1.265h7.767Zm-15.535,0h-7.768v-1.265h7.768Zm-15.535,0h-7.768v-1.265h7.768Zm-15.536,0h-7.768v-1.265h7.767Zm-15.535,0h-7.768v-1.265h7.768Zm-15.535,0h-7.768v-1.265h7.768Zm-15.535,0h-7.768v-1.265h7.768Z" transform="translate(-193.329 -224.995)"/>
    <rect id="Rectangle_82" data-name="Rectangle 82" class="cls-1" width="3.795" height="1.265" transform="translate(414.425 127.036)"/>
    <rect id="Rectangle_83" data-name="Rectangle 83" class="cls-1" width="1.265" height="3.795" transform="translate(474.033 159.503)"/>
    <path id="Path_135" data-name="Path 135" class="cls-1" d="M810.92,501.463h-1.265v-7.906h1.265Zm0-15.811h-1.265v-7.906h1.265Zm0-15.811h-1.265v-7.906h1.265Zm0-15.811h-1.265v-7.906h1.265Zm0-15.811h-1.265v-7.906h1.265Zm0-15.811h-1.265V414.5h1.265Z" transform="translate(-335.622 -244.022)"/>
    <rect id="Rectangle_84" data-name="Rectangle 84" class="cls-1" width="1.265" height="3.795" transform="translate(474.033 264.743)"/>
    <rect id="Rectangle_85" data-name="Rectangle 85" class="cls-2" width="1.265" height="263.097" transform="translate(63.577 80.25)"/>
    <rect id="Rectangle_86" data-name="Rectangle 86" class="cls-2" width="1.265" height="263.097" transform="translate(461.384 80.092)"/>
    <rect id="Rectangle_87" data-name="Rectangle 87" class="cls-2" width="524.928" height="1.265" transform="translate(0.491 286.939)"/>
    <rect id="Rectangle_88" data-name="Rectangle 88" class="cls-2" width="524.928" height="1.265" transform="translate(0.332 139.529)"/>
    <path id="Path_136" data-name="Path 136" class="cls-4" d="M933.108,275.428a5.562,5.562,0,0,1-.49,2.595,5.78,5.78,0,0,1-1.974,1.844l-5.765,3.889c-1.7,1.147-3.622,3.179-2.532,4.916a3.75,3.75,0,0,0,1.645,1.245c5.9,2.834,12.644,3.374,19.193,3.269,4.177-.067,8.544-.436,12.081-2.659,1.683-1.058,3.136-2.514,4.984-3.248,1.279-.508,2.941-.879,3.268-2.215.444-1.811-1.94-2.814-3.661-3.532-3.683-1.536-6.241-5.088-7.439-8.894s-1.207-7.878-1.019-11.864a2.168,2.168,0,0,0-.367-1.641,2.11,2.11,0,0,0-1.354-.475,71.53,71.53,0,0,0-11.944-.2,8.346,8.346,0,0,0-4.226,1.1c-2.422,1.659-1.048,4.471-.792,6.805a70.572,70.572,0,0,1,.39,9.068Z" transform="translate(-367.791 -197.405)"/>
    <path id="Path_137" data-name="Path 137" class="cls-5" d="M967.89,171.815a13.825,13.825,0,0,1-8.575,4.492c-5.716.817-1.225,9.8-1.225,9.8a5.163,5.163,0,0,1,1.633-6.125C962.99,177.123,967.89,175.489,967.89,171.815Z" transform="translate(-377.634 -171.815)"/>
    <circle id="Ellipse_22" data-name="Ellipse 22" class="cls-5" cx="7.048" cy="7.048" r="7.048" transform="translate(572.187 9.121)"/>
    <path id="Path_138" data-name="Path 138" class="cls-3" d="M960.643,200.289c-5.445-2.844-14.812-5.081-19.789-4.921l1.259-4.813c4.406,2.993,13.724,5.272,19.789,4.921Z" transform="translate(-373.18 -177.179)"/>
    <circle id="Ellipse_23" data-name="Ellipse 23" class="cls-5" cx="25.291" cy="25.291" r="25.291" transform="translate(546.482 17.828)"/>
    <rect id="Rectangle_89" data-name="Rectangle 89" class="cls-4" width="11.609" height="19.901" transform="translate(552.493 354.768)"/>
    <rect id="Rectangle_90" data-name="Rectangle 90" class="cls-4" width="11.609" height="19.901" transform="translate(586.076 354.768)"/>
    <path id="Path_139" data-name="Path 139" class="cls-4" d="M767.763,211.227l-5.621,18.759,57.032,1.142-4.561-19.9-14.926-9.95Z" transform="translate(-218.172 -59.534)"/>
    <circle id="Ellipse_24" data-name="Ellipse 24" class="cls-4" cx="18.242" cy="18.242" r="18.242" transform="translate(551.25 35.863)"/>
    <path id="Path_140" data-name="Path 140" class="cls-4" d="M883.125,353.1a25.839,25.839,0,0,0-1.831,10.216c.161,4.052,1.423,9.234.637,12.749-3.042,13.6-7.554,33.789-15.711,44.8-1.915,2.585-5.661,4.01-8.5,5.969s-5.544,4.1-7.083,7.565c-1.2,2.7-1.157,5.968-1.066,9.027.05,1.688.214,3.615,1.677,4.728a1.6,1.6,0,0,0,.98-1.558c.072-.694-.066-1.4.053-2.117a4.328,4.328,0,0,1,2.293-2.942c6.661-4.116,13.788-7.709,17.318-14.874s6.207-13.556,10.986-19.867a52.815,52.815,0,0,0,3.756-5.009,39.109,39.109,0,0,0,4.148-10.208,133.015,133.015,0,0,0,3.431-23.06c.3-3.912.283-8.1-2.686-10.632C888.779,355.545,885.435,355.842,883.125,353.1Z" transform="translate(-347.037 -225.807)"/>
    <path id="Path_141" data-name="Path 141" class="cls-4" d="M1007.274,340.8a29.548,29.548,0,0,1,.947,10.6c-.4,4.316-1.753,8.615-1.146,12.906,2.35,16.6-.213,33.777,1.107,50.492.31,3.924,1.572,8.267,1.8,12.2s-.231,8.03-2.232,11.421a27.588,27.588,0,0,1-6.268,6.652c-1.287,1.093-2.983,2.255-4.524,1.564a1.592,1.592,0,0,1,.4-1.832c.46-.492,1.067-.836,1.49-1.359a5.272,5.272,0,0,0,.691-3.738c-.543-7.7-1.675-15.589.427-23.014,2.1-7.4.808-15.486-1.327-22.878-.571-1.976-1.315-3.9-1.811-5.9a49.381,49.381,0,0,1-1.055-10.625l-.586-22c-.1-3.747.129-8.166,3.253-10.238C1001.329,343.144,1005,343.417,1007.274,340.8Z" transform="translate(-388.727 -222.218)"/>
    <path id="Path_142" data-name="Path 142" class="cls-5" d="M959.863,403.121a55.742,55.742,0,0,1-11.581,5.21c-4.281,1.186-8.772,1.33-13.212,1.467a33.135,33.135,0,0,1-15.589-2.206l-16.122-5.5c-11.406,27.39-15.889,57.741-9.7,86.759,2.254,10.565-.107,21.508-.1,32.311a106.538,106.538,0,0,0,.417,11.472c.319,2.942.883,5.851,1.27,8.785,2.357,17.869-1.9,36.153.759,53.98.365,2.448,3.333,3.8,5.693,4.546a23.244,23.244,0,0,0,3.636.732c6.251.915,12.576,1.832,18.865,1.231,1.536-.147,3.358-.619,3.825-2.09.373-1.173-.306-2.576.334-3.627,4.083-6.711,1.041-15.907,1.461-23.752,1.109-20.753-.247-41.614,1.667-62.307.367-3.961-.156-7.458.2-11.42l.244-2.691.74-8.174c.442,11.394.918,22.515,1.36,33.908a38.537,38.537,0,0,0,1.236,9.84c.515,1.678,1.258,3.284,1.68,4.988a27.521,27.521,0,0,1,.6,5.6l1.885,50.2a40.989,40.989,0,0,1-.385,5.4c-.184,2.054-.222,4.474,1.394,5.754a5.325,5.325,0,0,0,2.857.931,34.418,34.418,0,0,0,9.2-.8c3.077-.548,9.471-1.1,12.549-1.644a4.745,4.745,0,0,0,1.349-.381c1.388-.71,1.731-2.547,1.6-4.1s-.562-3.155-.081-4.638c6.23-19.229-1.333-40.342.07-60.506,1.25-17.957,1.074-35.979.9-53.979-.1-10.644-.824-21.056-.6-31.7.271-12.967,1.237-26.549-4.257-38.3A12.122,12.122,0,0,0,959.863,403.121Z" transform="translate(-358.87 -242.631)"/>
    <path id="Path_143" data-name="Path 143" class="cls-5" d="M931.029,692.124s-12.023-5.8-14.1,0-6.219,19.486-1.658,22.8h0a10.567,10.567,0,0,0,10.345,1.193c2.946-1.252,5.83-2.833,5.409-4.1C930.2,709.537,931.029,692.124,931.029,692.124Z" transform="translate(-365.268 -324.919)"/>
    <path id="Path_144" data-name="Path 144" class="cls-5" d="M964.3,692.124s12.023-5.8,14.1,0,6.219,19.486,1.658,22.8h0a10.568,10.568,0,0,1-10.346,1.193c-2.945-1.252-5.829-2.833-5.409-4.1C965.125,709.537,964.3,692.124,964.3,692.124Z" transform="translate(-379.879 -324.919)"/>
    <path id="Path_145" data-name="Path 145" class="cls-5" d="M956.651,295.314a467.627,467.627,0,0,0-52.074,1.978,9.754,9.754,0,0,0-3.731.863,9.044,9.044,0,0,0-2.536,2.3,55.383,55.383,0,0,0-12.778,32.967c-.066,1.563-.005,3.292,1.054,4.444,4.8,5.218,10.881,9.027,14.684,15.01a23.516,23.516,0,0,0,3.183,4.487,46.7,46.7,0,0,0-.31,12.932,20.794,20.794,0,0,1,10.23-6.744,61.988,61.988,0,0,1,12.217-2.236c6.013-.689,12.448-1.3,17.805,1.51,4.2,2.21,7.268,6.326,11.69,8.06a82.582,82.582,0,0,0,1.033-11.2c.125-5.255,4.07-9.136,6.148-13.964a26.444,26.444,0,0,1,2.057-4.105,17.777,17.777,0,0,1,9.156-6.635,52.943,52.943,0,0,1,11.278-2.19c1.733-2.438,1.175-5.557-.03-8.3s-3.217-5.024-4.958-7.457c-3.382-4.724-5.811-10.111-9.528-14.577A19.088,19.088,0,0,0,956.651,295.314Z" transform="translate(-357.337 -208.489)"/>
    <path id="Path_146" data-name="Path 146" class="cls-5" d="M939.918,207.537s-8.581,11.031-25.741,13.483-3.677,29.418-3.677,29.418-4.9-9.806,4.9-18.386S939.918,218.569,939.918,207.537Z" transform="translate(-363.049 -182.041)"/>
    <path id="Path_147" data-name="Path 147" class="cls-5" d="M953.546,207.537s4.9,17.161,12.257,19.612,3.677,28.192-8.58,30.644c0,0,10.419-14.1,4.29-25.128S951.707,213.053,953.546,207.537Z" transform="translate(-376.677 -182.041)"/>
    <path id="Path_148" data-name="Path 148" class="cls-5" d="M939.918,207.537s-8.581,11.031-25.741,13.483-3.677,29.418-3.677,29.418-4.9-9.806,4.9-18.386S939.918,218.569,939.918,207.537Z" transform="translate(-363.049 -182.041)"/>
    <path id="Path_149" data-name="Path 149" class="cls-5" d="M953.546,207.537s4.9,17.161,12.257,19.612,3.677,28.192-8.58,30.644c0,0,10.419-14.1,4.29-25.128S951.707,213.053,953.546,207.537Z" transform="translate(-376.677 -182.041)"/>
    <path id="Path_150" data-name="Path 150" class="cls-1" d="M530.308,334.6v-9.073h1.013v.852a2.5,2.5,0,0,1,.809-.75,2.224,2.224,0,0,1,1.093-.25,2.592,2.592,0,0,1,1.482.432,2.653,2.653,0,0,1,.97,1.22,4.455,4.455,0,0,1,.327,1.726,4.384,4.384,0,0,1-.361,1.813,2.724,2.724,0,0,1-1.05,1.235,2.694,2.694,0,0,1-1.448.429,2.091,2.091,0,0,1-1-.235,2.274,2.274,0,0,1-.726-.593V334.6Zm1.007-5.756a2.854,2.854,0,0,0,.513,1.871,1.571,1.571,0,0,0,1.242.605,1.607,1.607,0,0,0,1.269-.627,2.974,2.974,0,0,0,.528-1.942,2.9,2.9,0,0,0-.516-1.877,1.553,1.553,0,0,0-1.232-.624,1.6,1.6,0,0,0-1.257.664,2.971,2.971,0,0,0-.547,1.93Z" transform="translate(-255.656 -217.157)"/>
    <path id="Path_151" data-name="Path 151" class="cls-1" d="M539.126,332.144l2.4-3.409-2.217-3.15h1.39l1.007,1.538q.284.439.457.735.271-.408.5-.723l1.106-1.55h1.328l-2.267,3.088,2.44,3.471H543.9l-1.347-2.038-.358-.55-1.723,2.588Z" transform="translate(-258.18 -217.21)"/>
    <rect id="Rectangle_91" data-name="Rectangle 91" class="cls-1" width="7.137" height="7.137" transform="translate(238.825 107.961)"/>
    <rect id="Rectangle_92" data-name="Rectangle 92" class="cls-1" width="7.137" height="7.137" transform="translate(250.244 107.961)"/>
    <rect id="Rectangle_93" data-name="Rectangle 93" class="cls-1" width="7.137" height="7.137" transform="translate(261.664 107.961)"/>
  </g>
</svg>
