<svg xmlns="http://www.w3.org/2000/svg" width="635.118" height="359.301" viewBox="0 0 635.118 359.301">
  <defs>
    <style>
      .cls-1, .cls-6 {
        fill: #6c63ff;
      }

      .cls-1, .cls-3 {
        opacity: 0.1;
      }

      .cls-2 {
        fill: #d0d2d5;
      }

      .cls-4 {
        fill: #cf2d46;
      }

      .cls-5 {
        fill: #fff;
      }

      .cls-7 {
        fill: #1da59c;
      }

      .cls-8 {
        fill: #3f3d56;
      }

      .cls-9 {
        fill: #fb981f;
      }

      .cls-10 {
        fill: #e6e8ec;
      }
    </style>
  </defs>
  <g id="responsive-web-large" transform="translate(0 -0.01)">
    <ellipse id="Ellipse_80" data-name="Ellipse 80" class="cls-1" cx="317.559" cy="19.961" rx="317.559" ry="19.961" transform="translate(0 319.39)"/>
    <path id="Path_544" data-name="Path 544" class="cls-2" d="M426.683,517.495,318.9,516.116l.321-2.764,5.208-45.6h94.657l6.962,45.6.532,3.454Z" transform="translate(-126.006 -184.816)"/>
    <path id="Path_545" data-name="Path 545" class="cls-3" d="M426.58,546.594H372.794L318.9,545.9l.321-2.764H426.047Z" transform="translate(-126.006 -214.605)"/>
    <rect id="Rectangle_127" data-name="Rectangle 127" class="cls-2" width="143.023" height="3.454" transform="translate(174.93 329.225)"/>
    <path id="Path_546" data-name="Path 546" class="cls-4" d="M553.635,162.031A8.994,8.994,0,0,0,544.683,153H145.272a8.995,8.995,0,0,0-8.952,9.037V404.144H553.635Z" transform="translate(-99.229 -152.99)"/>
    <path id="Path_547" data-name="Path 547" class="cls-2" d="M136.32,564.2v28.357a8.952,8.952,0,0,0,8.952,8.952H544.683a8.952,8.952,0,0,0,8.952-8.952V564.2Z" transform="translate(-99.229 -315.466)"/>
    <rect id="Rectangle_128" data-name="Rectangle 128" class="cls-5" width="384.839" height="217.64" transform="translate(54.366 15.204)"/>
    <path id="Path_548" data-name="Path 548" class="cls-6" d="M478.626,595.894a9.333,9.333,0,0,0,7.337-3.557h0a9.712,9.712,0,0,0,.726-1.064l-5.123-.877,5.535.042a9.34,9.34,0,0,0,.175-7.391l-7.422,3.847,6.847-5.032a9.327,9.327,0,1,0-15.406,10.44h0A9.333,9.333,0,0,0,478.626,595.894Z" transform="translate(-230.803 -320.612)"/>
    <path id="Path_549" data-name="Path 549" class="cls-3" d="M425.13,472.89l43,43.182-6.6-43.182Z" transform="translate(-167.98 -186.847)"/>
    <path id="Path_550" data-name="Path 550" class="cls-1" d="M529.17,307.886a.883.883,0,0,0,0-.127,33.445,33.445,0,0,0-1.609-8.813c-.054-.163-.1-.327-.163-.484a33.572,33.572,0,0,0-56.864-11.493,47.49,47.49,0,0,0-2.68-9.388,150.274,150.274,0,0,1-26.614.992,107.461,107.461,0,0,0,16.882,6.133l-.206.768a108.1,108.1,0,0,1-18.866-7.059l-1.815-.883,2.032.133a151.052,151.052,0,0,0,28.32-.817A47.884,47.884,0,0,0,459.24,263.6c-15.231-1.536-30.346-4.73-44.446-11.069l.327-.72c13.731,6.17,28.429,9.345,43.315,10.888a47.561,47.561,0,0,0-75.609,8.033,65.356,65.356,0,0,0-16.235-36.7,152.653,152.653,0,0,1-64.274,10.706,107.611,107.611,0,0,0,16.876,6.133l-.206.762a108.271,108.271,0,0,1-18.866-7.053l-1.815-.889,2.026.133a150.553,150.553,0,0,0,65.7-10.4c-.78-.859-1.591-1.7-2.42-2.522-26.046.526-54.408.272-80.085-9.073a65.5,65.5,0,0,0-31.091,55.751c0,12.291,3.375,29.2,9.255,46.158a196.912,196.912,0,0,0,9.23,22.229c1.815,3.629,3.7,7.2,5.71,10.6h0a120.113,120.113,0,0,0,7.96,11.922q.78,1.025,1.573,2.008a72.806,72.806,0,0,0,9.932,10.283h0q1.1.919,2.22,1.754a42.037,42.037,0,0,0,6.369,3.926,29.239,29.239,0,0,0,11.983,3.254h.992v.139H495.5v-.139h.133a8.919,8.919,0,0,0,3.024-.532c6.291-2.232,12.1-11.19,16.894-22.507,1.065-2.51,2.081-5.135,3.024-7.833.853-2.377,1.663-4.839,2.419-7.259a224.8,224.8,0,0,0,5.6-21.848c1.694-8.4,2.631-15.727,2.631-20.372C529.206,308.89,529.206,308.388,529.17,307.886Z" transform="translate(-145.111 -180.186)"/>
    <path id="Path_551" data-name="Path 551" class="cls-1" d="M383.694,223.728a65.26,65.26,0,0,0-78.4-8.837C330.417,223.891,358.15,224.224,383.694,223.728Z" transform="translate(-165.993 -173.816)"/>
    <path id="Path_552" data-name="Path 552" class="cls-1" d="M638.8,445.711l-27.443-47.537a.877.877,0,0,0-1.518,0l-27.443,47.537a.877.877,0,0,0,.756,1.313h8.19a.883.883,0,0,1,.877.871v10.156a.871.871,0,0,0,.871.877h10.682a.877.877,0,0,0,.877-.877v-4.9a.871.871,0,0,1,.871-.877h10.156a.877.877,0,0,1,.877.877v4.9a.877.877,0,0,0,.877.877h10.652a.871.871,0,0,0,.829-.6.81.81,0,0,0,.048-.278v-10.15a.877.877,0,0,1,.877-.871h8.184a.877.877,0,0,0,.78-1.313Zm-38.264,5.256a.847.847,0,0,1-.6.26h-3.853a.877.877,0,0,1-.877-.877.889.889,0,0,1,.877-.877h3.853a.877.877,0,0,1,.877.877A.847.847,0,0,1,600.535,450.967Zm25.211,0a.846.846,0,0,1-.6.26h-3.853a.877.877,0,0,1-.6-1.494.846.846,0,0,1,.6-.26h3.853a.877.877,0,0,1,.877.877A.847.847,0,0,1,625.746,450.967Z" transform="translate(-275.439 -249.692)"/>
    <path id="Path_553" data-name="Path 553" class="cls-1" d="M360.877,446.4l-27.443-47.537a.877.877,0,0,0-1.512,0L308.21,439.908a72.516,72.516,0,0,0,9.932,10.283H322a.877.877,0,0,1,.877.877.889.889,0,0,1-.877.877h-1.627a42.471,42.471,0,0,0,6.357,3.95V453.82a.871.871,0,0,1,.877-.871h10.156a.871.871,0,0,1,.871.871v4.9a.913.913,0,0,0,.079.369.871.871,0,0,0,.8.508h10.682a.853.853,0,0,0,.7-.351.871.871,0,0,0,.175-.526V448.594a.877.877,0,0,1,.877-.877H360.1a.871.871,0,0,0,.774-1.313Zm-18.146,4.022a.865.865,0,0,1,.6-.26h3.847a.877.877,0,0,1,0,1.754h-3.847a.86.86,0,0,1-.6-1.494Zm-17.239-17.59a.871.871,0,0,1-.871-.877v-6.654a.871.871,0,0,1,.871-.877h14.36a.877.877,0,0,1,.871.877v6.654a.877.877,0,0,1-.871.877Z" transform="translate(-167.147 -249.968)"/>
    <path id="Path_554" data-name="Path 554" class="cls-1" d="M504.752,324.791H470.788v-7.349a1.754,1.754,0,0,0-1.754-1.754H459.06v-7.827a1.1,1.1,0,0,0-1.107-1.1H445.093a1.107,1.107,0,0,0-1.107,1.1v7.827h-11.71a1.754,1.754,0,0,0-1.754,1.754v7.343H398.137a.351.351,0,0,0-.357.357v97.506a.351.351,0,0,0,.357.357h21.552a.351.351,0,0,0,.357-.357V409.54a.363.363,0,0,1,.357-.363h9.073a.363.363,0,0,1,.357.363v13.114a.351.351,0,0,0,.357.357h42.535a.357.357,0,0,0,.357-.357V409.54a.357.357,0,0,1,.351-.363H482.5a.357.357,0,0,1,.357.363v13.114a.357.357,0,0,0,.357.357h21.528a.357.357,0,0,0,.357-.357V325.148a.357.357,0,0,0-.351-.357Zm-88.59,79.843a.351.351,0,0,1-.357.357H402.5a.351.351,0,0,1-.357-.357V400.1a.357.357,0,0,1,.357-.363h13.307a.357.357,0,0,1,.357.363Zm0-11.729a.357.357,0,0,1-.357.357H402.5a.357.357,0,0,1-.357-.357v-4.543a.357.357,0,0,1,.357-.357h13.307a.357.357,0,0,1,.357.357Zm0-11.735a.351.351,0,0,1-.357.357H402.5a.351.351,0,0,1-.357-.357v-4.536a.351.351,0,0,1,.357-.357h13.307a.351.351,0,0,1,.357.357Zm0-11.728a.351.351,0,0,1-.357.357H402.5a.351.351,0,0,1-.357-.357v-4.537a.351.351,0,0,1,.357-.357h13.307a.351.351,0,0,1,.357.357Zm0-11.729a.357.357,0,0,1-.357.357H402.5a.357.357,0,0,1-.351-.357v-4.543a.357.357,0,0,1,.357-.357h13.307a.357.357,0,0,1,.357.357Zm0-11.735a.351.351,0,0,1-.357.357H402.5a.351.351,0,0,1-.357-.357v-4.537a.351.351,0,0,1,.357-.357h13.307a.351.351,0,0,1,.357.357Zm0-11.729a.351.351,0,0,1-.357.357H402.5a.351.351,0,0,1-.357-.357v-4.537a.351.351,0,0,1,.357-.357h13.307a.351.351,0,0,1,.357.357Zm31.514,70.383a.351.351,0,0,1-.357.357H434.012a.351.351,0,0,1-.357-.357V400.1a.357.357,0,0,1,.357-.363h13.307a.357.357,0,0,1,.357.363Zm0-11.729a.357.357,0,0,1-.357.357H434.012a.357.357,0,0,1-.357-.357v-4.543a.357.357,0,0,1,.357-.357h13.307a.357.357,0,0,1,.357.357Zm0-11.735a.351.351,0,0,1-.357.357H434.012a.351.351,0,0,1-.357-.357v-4.536a.351.351,0,0,1,.357-.357h13.307a.351.351,0,0,1,.357.357Zm0-11.728a.351.351,0,0,1-.357.357H434.012a.351.351,0,0,1-.357-.357v-4.537a.351.351,0,0,1,.357-.357h13.307a.351.351,0,0,1,.357.357Zm0-11.729a.357.357,0,0,1-.357.357H434.012a.357.357,0,0,1-.357-.357v-4.542a.357.357,0,0,1,.357-.357h13.307a.357.357,0,0,1,.357.357Zm0-11.735a.351.351,0,0,1-.357.357H434.012a.351.351,0,0,1-.357-.357v-4.537a.351.351,0,0,1,.357-.357h13.307a.351.351,0,0,1,.357.357Zm0-11.729a.351.351,0,0,1-.357.357H434.012a.351.351,0,0,1-.357-.357v-4.537a.351.351,0,0,1,.357-.357h13.307a.351.351,0,0,1,.357.357Zm21.54,70.383a.357.357,0,0,1-.357.357H455.552a.357.357,0,0,1-.357-.357V400.1a.363.363,0,0,1,.357-.363h13.307a.363.363,0,0,1,.357.363Zm0-11.729a.363.363,0,0,1-.357.357H455.552a.363.363,0,0,1-.357-.357v-4.543a.363.363,0,0,1,.357-.357h13.307a.363.363,0,0,1,.357.357Zm0-11.735a.357.357,0,0,1-.357.357H455.552a.357.357,0,0,1-.357-.357v-4.536a.357.357,0,0,1,.357-.357h13.307a.357.357,0,0,1,.357.357Zm0-11.728a.357.357,0,0,1-.357.357H455.552a.357.357,0,0,1-.357-.357v-4.537a.357.357,0,0,1,.357-.357h13.307a.357.357,0,0,1,.357.357Zm0-11.729a.363.363,0,0,1-.357.357H455.552a.363.363,0,0,1-.357-.357v-4.543a.363.363,0,0,1,.357-.357h13.307a.363.363,0,0,1,.357.357Zm0-11.735a.357.357,0,0,1-.357.357H455.552a.357.357,0,0,1-.357-.357v-4.536a.357.357,0,0,1,.357-.357h13.307a.357.357,0,0,1,.357.357Zm0-11.729a.357.357,0,0,1-.357.357H455.552a.357.357,0,0,1-.357-.357v-4.537a.357.357,0,0,1,.357-.357h13.307a.357.357,0,0,1,.357.357Zm31.526,70.371a.357.357,0,0,1-.357.357H487.078a.351.351,0,0,1-.357-.357v-4.537a.357.357,0,0,1,.357-.363h13.307a.363.363,0,0,1,.357.363Zm0-11.729a.363.363,0,0,1-.357.357H487.078a.357.357,0,0,1-.357-.357v-4.543a.357.357,0,0,1,.357-.357h13.307a.363.363,0,0,1,.357.357Zm0-11.735a.357.357,0,0,1-.357.357H487.078a.351.351,0,0,1-.357-.357v-4.537a.351.351,0,0,1,.357-.357h13.307a.357.357,0,0,1,.357.357Zm0-11.729a.357.357,0,0,1-.357.357H487.078a.351.351,0,0,1-.357-.357v-4.537a.351.351,0,0,1,.357-.357h13.307a.357.357,0,0,1,.357.357Zm0-11.716a.363.363,0,0,1-.357.357H487.078a.357.357,0,0,1-.357-.357v-4.542a.357.357,0,0,1,.357-.357h13.307a.363.363,0,0,1,.357.357Zm0-11.735a.357.357,0,0,1-.357.357H487.078a.351.351,0,0,1-.357-.357v-4.537a.351.351,0,0,1,.357-.357h13.307a.357.357,0,0,1,.357.357Zm0-11.729a.357.357,0,0,1-.357.357H487.078a.351.351,0,0,1-.357-.357v-4.537a.351.351,0,0,1,.357-.357h13.307a.357.357,0,0,1,.357.357Z" transform="translate(-202.539 -213.744)"/>
    <path id="Path_555" data-name="Path 555" class="cls-1" d="M399.717,286.216a7.622,7.622,0,0,0-4.434.484,6.526,6.526,0,0,1-5.329,0,7.483,7.483,0,0,0-6.267.121,3.828,3.828,0,0,1-1.815.454c-2.541,0-4.658-2.559-5.093-5.934a4.9,4.9,0,0,0,1.264-1.373,7.147,7.147,0,0,1,12.751-.042,4.9,4.9,0,0,0,4.234,2.317h.067C397.116,282.23,398.87,283.875,399.717,286.216Z" transform="translate(-194.241 -201.602)"/>
    <path id="Path_556" data-name="Path 556" class="cls-1" d="M407.471,269.451l-4.107,2.607,2.492-4.537a4.071,4.071,0,0,0-2.48-.883h-.067a4.977,4.977,0,0,1-.853-.06l-1.391.877.6-1.083a4.954,4.954,0,0,1-2.42-1.845l-2.492,1.579,1.573-2.861a7.289,7.289,0,0,0-5.577-2.825,7.66,7.66,0,0,0-6.394,3.944,4.76,4.76,0,0,1-4.234,2.274h-.139c-2.855,0-5.178,3.242-5.178,7.258s2.323,7.258,5.178,7.258a3.921,3.921,0,0,0,1.815-.448,7.44,7.44,0,0,1,6.266-.121,6.593,6.593,0,0,0,5.329,0,7.47,7.47,0,0,1,6.212.115,3.818,3.818,0,0,0,1.815.442c2.855,0,5.178-3.242,5.178-7.259A9.206,9.206,0,0,0,407.471,269.451Z" transform="translate(-194.253 -195.434)"/>
    <rect id="Rectangle_129" data-name="Rectangle 129" class="cls-7" width="224.735" height="270.633" rx="19.8" transform="translate(305.74 62.288)"/>
    <rect id="Rectangle_130" data-name="Rectangle 130" class="cls-5" width="203.238" height="216.031" transform="translate(315.744 89.592)"/>
    <circle id="Ellipse_81" data-name="Ellipse 81" class="cls-5" cx="7.912" cy="7.912" r="7.912" transform="translate(410.196 311.95)"/>
    <path id="Path_557" data-name="Path 557" class="cls-5" d="M763.859,283.429a3.629,3.629,0,1,1,3.629-3.629A3.629,3.629,0,0,1,763.859,283.429Z" transform="translate(-345.752 -201.658)"/>
    <path id="Path_558" data-name="Path 558" class="cls-5" d="M763.638,276.185a3.357,3.357,0,1,1-3.351,3.357,3.357,3.357,0,0,1,3.351-3.357m0-.6a3.956,3.956,0,1,0,2.8,1.161A3.962,3.962,0,0,0,763.638,275.58Z" transform="translate(-345.531 -201.424)"/>
    <path id="Path_559" data-name="Path 559" class="cls-1" d="M794.132,453.615v-.073a19.426,19.426,0,0,0-.938-5.123l-.091-.278a19.538,19.538,0,0,0-33.062-6.672,28.513,28.513,0,0,0-1.555-5.444,87.237,87.237,0,0,1-15.479.6,62.134,62.134,0,0,0,9.811,3.5l-.121.448a62.64,62.64,0,0,1-10.966-4.077l-1.065-.514,1.21.079a87.483,87.483,0,0,0,16.465-.472,27.874,27.874,0,0,0-4.839-7.7,83.033,83.033,0,0,1-25.84-6.436l.188-.423a81.674,81.674,0,0,0,25.181,6.345,27.649,27.649,0,0,0-43.95,4.67,37.95,37.95,0,0,0-9.43-21.37,89.309,89.309,0,0,1-14.577,4.416,88.257,88.257,0,0,1-22.792,1.815,62.128,62.128,0,0,0,9.811,3.563l-.121.442a62.132,62.132,0,0,1-10.966-4.1l-1.065-.514,1.21.079a87.533,87.533,0,0,0,38.2-6.049c-.454-.5-.926-.986-1.41-1.464-15.122.3-31.629.157-46.575-5.281a38.065,38.065,0,0,0-18.08,32.433c0,7.144,1.966,16.973,5.383,26.832A113.724,113.724,0,0,0,644,475.76c1.04,2.123,2.147,4.186,3.315,6.158h0a70.743,70.743,0,0,0,4.627,6.932c.3.393.6.786.919,1.167a42.118,42.118,0,0,0,5.77,5.97h0c.43.357.859.7,1.294,1.016a24.388,24.388,0,0,0,3.7,2.3,16.94,16.94,0,0,0,6.992,1.911h.575v.079H774.54v-.079h.073a5.3,5.3,0,0,0,1.748-.309c3.629-1.3,7.023-6.508,9.817-13.089.6-1.458,1.21-2.982,1.778-4.549.5-1.385.962-2.8,1.409-4.234a130.036,130.036,0,0,0,3.254-12.7,66.688,66.688,0,0,0,1.53-11.843C794.15,454.2,794.144,453.912,794.132,453.615Z" transform="translate(-295.595 -252.001)"/>
    <path id="Path_560" data-name="Path 560" class="cls-1" d="M709.553,404.7A37.938,37.938,0,0,0,664,399.568C678.583,404.8,694.7,404.982,709.553,404.7Z" transform="translate(-307.729 -248.309)"/>
    <path id="Path_561" data-name="Path 561" class="cls-1" d="M857.836,533.779l-15.951-27.637a.508.508,0,0,0-.883,0l-15.957,27.637a.508.508,0,0,0,.441.762h4.76a.514.514,0,0,1,.508.508v5.9a.514.514,0,0,0,.508.508h6.212a.514.514,0,0,0,.508-.508V538.1a.5.5,0,0,1,.508-.508h5.9a.508.508,0,0,1,.508.508v2.849a.514.514,0,0,0,.508.508h6.194a.508.508,0,0,0,.484-.345.517.517,0,0,0,0-.163v-5.9a.508.508,0,0,1,.508-.508h4.76a.508.508,0,0,0,.478-.762ZM835.594,536.8a.52.52,0,0,1-.363.151h-2.238a.514.514,0,0,1-.508-.508.49.49,0,0,1,.151-.363.507.507,0,0,1,.357-.151h2.238a.514.514,0,0,1,.514.514A.508.508,0,0,1,835.594,536.8Zm14.656,0a.521.521,0,0,1-.363.151H847.65a.514.514,0,0,1,0-1.022h2.238a.514.514,0,0,1,.514.514.507.507,0,0,1-.151.357Z" transform="translate(-371.335 -292.424)"/>
    <path id="Path_562" data-name="Path 562" class="cls-1" d="M696.273,534.149l-15.951-27.637a.508.508,0,0,0-.883,0L665.66,530.381a42,42,0,0,0,5.771,5.964h2.238a.508.508,0,0,1,.363.865.49.49,0,0,1-.363.151h-.944a24.812,24.812,0,0,0,3.7,2.3v-1.21a.508.508,0,0,1,.508-.508h5.9a.514.514,0,0,1,.508.508V541.3a.475.475,0,0,0,.048.212.5.5,0,0,0,.46.3h6.212a.508.508,0,0,0,.405-.206.52.52,0,0,0,.1-.3v-5.9a.508.508,0,0,1,.508-.508h4.76a.508.508,0,0,0,.436-.738Zm-10.543,2.335a.5.5,0,0,1,.357-.145h2.244a.5.5,0,0,1,.357.865.483.483,0,0,1-.357.151h-2.244a.514.514,0,0,1-.508-.508A.52.52,0,0,1,685.73,536.484Zm-10.023-10.222a.508.508,0,0,1-.508-.514v-3.865a.508.508,0,0,1,.508-.508h8.347a.514.514,0,0,1,.508.508v3.865a.514.514,0,0,1-.508.514Z" transform="translate(-308.385 -292.57)"/>
    <path id="Path_563" data-name="Path 563" class="cls-1" d="M779.907,463.441H760.164v-4.264a1.022,1.022,0,0,0-1.022-1.022h-5.795v-4.573a.641.641,0,0,0-.641-.641h-7.47a.635.635,0,0,0-.641.641v4.549h-6.817a1.022,1.022,0,0,0-1.022,1.022v4.264H717.932a.212.212,0,0,0-.212.206v56.689a.212.212,0,0,0,.212.206H730.44a.206.206,0,0,0,.206-.206v-7.6a.212.212,0,0,1,.212-.206h5.281a.212.212,0,0,1,.212.206v7.627a.206.206,0,0,0,.206.206h24.727a.206.206,0,0,0,.206-.206v-7.627a.206.206,0,0,1,.206-.206h5.287a.206.206,0,0,1,.206.206v7.627a.212.212,0,0,0,.211.206h12.509a.206.206,0,0,0,.206-.206V463.646a.205.205,0,0,0-.206-.206Zm-51.5,46.394a.206.206,0,0,1-.206.206h-7.73a.206.206,0,0,1-.206-.206v-2.643a.206.206,0,0,1,.206-.206h7.73a.206.206,0,0,1,.206.206Zm0-6.823a.205.205,0,0,1-.206.206h-7.73a.206.206,0,0,1-.206-.206v-2.637a.206.206,0,0,1,.206-.206h7.73a.206.206,0,0,1,.206.206Zm0-6.817a.206.206,0,0,1-.206.206h-7.73a.206.206,0,0,1-.206-.206v-2.643a.206.206,0,0,1,.206-.206h7.73a.206.206,0,0,1,.206.206Zm0-6.823a.212.212,0,0,1-.206.212h-7.73a.212.212,0,0,1-.206-.212v-2.637a.206.206,0,0,1,.206-.206h7.73a.206.206,0,0,1,.206.206Zm0-6.817a.206.206,0,0,1-.206.206h-7.73a.206.206,0,0,1-.206-.206v-2.643a.206.206,0,0,1,.206-.206h7.73a.206.206,0,0,1,.206.206Zm0-6.817a.205.205,0,0,1-.206.206h-7.73a.206.206,0,0,1-.206-.206v-2.643a.206.206,0,0,1,.206-.206h7.73a.206.206,0,0,1,.206.206Zm0-6.823a.206.206,0,0,1-.206.206h-7.73a.206.206,0,0,1-.206-.206v-2.631a.206.206,0,0,1,.206-.206h7.73a.206.206,0,0,1,.206.206Zm18.322,40.92a.206.206,0,0,1-.206.206h-7.73a.206.206,0,0,1-.206-.206v-2.643a.205.205,0,0,1,.206-.206h7.73a.206.206,0,0,1,.206.206Zm0-6.823a.205.205,0,0,1-.206.206h-7.73a.206.206,0,0,1-.206-.206v-2.637a.205.205,0,0,1,.206-.206h7.73a.206.206,0,0,1,.206.206Zm0-6.817a.206.206,0,0,1-.206.206h-7.73a.206.206,0,0,1-.206-.206v-2.643a.205.205,0,0,1,.206-.206h7.73a.206.206,0,0,1,.206.206Zm0-6.823a.212.212,0,0,1-.206.212h-7.73a.212.212,0,0,1-.206-.212v-2.637a.205.205,0,0,1,.206-.206h7.73a.206.206,0,0,1,.206.206Zm0-6.817a.206.206,0,0,1-.206.206h-7.73a.206.206,0,0,1-.206-.206v-2.643a.205.205,0,0,1,.206-.206h7.73a.206.206,0,0,1,.206.206Zm0-6.817a.205.205,0,0,1-.206.206h-7.73a.206.206,0,0,1-.206-.206v-2.643a.205.205,0,0,1,.206-.206h7.73a.206.206,0,0,1,.206.206Zm0-6.823a.206.206,0,0,1-.206.206h-7.73a.206.206,0,0,1-.206-.206v-2.631a.205.205,0,0,1,.206-.206h7.73a.206.206,0,0,1,.206.206Zm12.521,40.92a.206.206,0,0,1-.206.206h-7.73a.206.206,0,0,1-.206-.206v-2.643a.206.206,0,0,1,.206-.206h7.706a.206.206,0,0,1,.206.206Zm0-6.823a.206.206,0,0,1-.206.206h-7.73a.206.206,0,0,1-.206-.206v-2.637a.206.206,0,0,1,.206-.206h7.706a.206.206,0,0,1,.206.206Zm0-6.817a.206.206,0,0,1-.206.206h-7.73a.206.206,0,0,1-.206-.206v-2.643a.206.206,0,0,1,.206-.206h7.706a.206.206,0,0,1,.206.206Zm0-6.823a.212.212,0,0,1-.206.212h-7.73a.212.212,0,0,1-.206-.212v-2.637a.206.206,0,0,1,.206-.206h7.706a.206.206,0,0,1,.206.206Zm0-6.817a.206.206,0,0,1-.206.206h-7.73a.206.206,0,0,1-.206-.206v-2.643a.206.206,0,0,1,.206-.206h7.706a.206.206,0,0,1,.206.206Zm0-6.817a.206.206,0,0,1-.206.206h-7.73a.206.206,0,0,1-.206-.206v-2.643a.206.206,0,0,1,.206-.206h7.706a.206.206,0,0,1,.206.206Zm0-6.823a.206.206,0,0,1-.206.206h-7.73a.206.206,0,0,1-.206-.206v-2.631a.206.206,0,0,1,.206-.206h7.706a.206.206,0,0,1,.206.206Zm18.322,40.92a.212.212,0,0,1-.206.206h-7.73a.206.206,0,0,1-.206-.206v-2.643a.206.206,0,0,1,.206-.206h7.73a.206.206,0,0,1,.206.206Zm0-6.823a.206.206,0,0,1-.206.206h-7.73a.206.206,0,0,1-.206-.206v-2.637a.206.206,0,0,1,.206-.206h7.73a.206.206,0,0,1,.206.206Zm0-6.817a.206.206,0,0,1-.206.206h-7.73a.206.206,0,0,1-.206-.206v-2.643a.206.206,0,0,1,.206-.206h7.73a.212.212,0,0,1,.206.206Zm0-6.823a.212.212,0,0,1-.206.212h-7.73a.212.212,0,0,1-.206-.212v-2.637a.206.206,0,0,1,.206-.206h7.73a.206.206,0,0,1,.206.206Zm0-6.817a.206.206,0,0,1-.206.206h-7.73a.206.206,0,0,1-.206-.206v-2.643a.206.206,0,0,1,.206-.206h7.73a.212.212,0,0,1,.206.206Zm0-6.817a.212.212,0,0,1-.206.206h-7.73a.206.206,0,0,1-.206-.206v-2.643a.206.206,0,0,1,.206-.206h7.73a.206.206,0,0,1,.206.206Zm0-6.823a.206.206,0,0,1-.206.206h-7.73a.206.206,0,0,1-.206-.206v-2.631a.206.206,0,0,1,.206-.206h7.73a.206.206,0,0,1,.206.206Z" transform="translate(-328.955 -271.504)"/>
    <path id="Path_564" data-name="Path 564" class="cls-1" d="M718.867,441.031a4.47,4.47,0,0,0-2.577.278,3.836,3.836,0,0,1-1.542.327,3.774,3.774,0,0,1-1.555-.333,4.343,4.343,0,0,0-3.629.073,2.249,2.249,0,0,1-1.046.26c-1.476,0-2.7-1.488-2.958-3.448a2.921,2.921,0,0,0,.738-.8,4.149,4.149,0,0,1,7.41,0,2.831,2.831,0,0,0,2.42,1.349h.042A3.025,3.025,0,0,1,718.867,441.031Z" transform="translate(-324.15 -264.459)"/>
    <path id="Path_565" data-name="Path 565" class="cls-1" d="M723.344,431.3l-2.42,1.518,1.452-2.637a2.371,2.371,0,0,0-1.446-.514h-.006a3.355,3.355,0,0,1-.5-.036l-.811.508.351-.6a2.854,2.854,0,0,1-1.415-1.071l-1.452.913.919-1.663a4.234,4.234,0,0,0-3.248-1.639,4.446,4.446,0,0,0-3.714,2.292,2.782,2.782,0,0,1-2.456,1.325h-.079c-1.663,0-3.024,1.881-3.024,4.234s1.349,4.234,3.024,4.234a2.255,2.255,0,0,0,1.046-.266,4.343,4.343,0,0,1,3.629-.067,3.875,3.875,0,0,0,1.554.333,3.836,3.836,0,0,0,1.542-.327,4.349,4.349,0,0,1,3.629.066,2.2,2.2,0,0,0,1.034.26c1.664,0,3.024-1.887,3.024-4.234A5.36,5.36,0,0,0,723.344,431.3Z" transform="translate(-324.127 -260.887)"/>
    <rect id="Rectangle_131" data-name="Rectangle 131" class="cls-8" width="3.242" height="26.717" rx="1.621" transform="translate(598.003 162.818)"/>
    <rect id="Rectangle_132" data-name="Rectangle 132" class="cls-8" width="1.821" height="8.795" rx="0.91" transform="translate(490.281 141.889)"/>
    <rect id="Rectangle_133" data-name="Rectangle 133" class="cls-8" width="2.051" height="15.309" rx="1.025" transform="translate(490.214 157.991)"/>
    <rect id="Rectangle_134" data-name="Rectangle 134" class="cls-8" width="1.954" height="15.442" rx="0.977" transform="translate(490.245 178.654)"/>
    <rect id="Rectangle_135" data-name="Rectangle 135" class="cls-9" width="108.448" height="220.398" rx="18.54" transform="translate(491.309 112.819)"/>
    <rect id="Rectangle_136" data-name="Rectangle 136" class="cls-10" width="15.146" height="3.073" rx="1.536" transform="translate(535.072 119.4)"/>
    <circle id="Ellipse_82" data-name="Ellipse 82" class="cls-10" cx="1.742" cy="1.742" r="1.742" transform="translate(552.504 119.201)"/>
    <path id="Path_566" data-name="Path 566" class="cls-5" d="M984.757,349H972.345v1.494a7.1,7.1,0,0,1-7.077,7.089h-39.6a7.1,7.1,0,0,1-7.1-7.1V349H906.934a8.62,8.62,0,0,0-8.614,8.613V549.3a8.613,8.613,0,0,0,8.613,8.613h77.823a8.607,8.607,0,0,0,8.613-8.613V357.607A8.613,8.613,0,0,0,984.757,349Z" transform="translate(-400.315 -230.435)"/>
    <path id="Path_567" data-name="Path 567" class="cls-1" d="M989.8,509.938h0a8.664,8.664,0,0,0-.423-2.317,1.075,1.075,0,0,0-.042-.127,8.807,8.807,0,0,0-14.91-3.024,12.388,12.388,0,0,0-.7-2.462,39.708,39.708,0,0,1-6.986.26,28.9,28.9,0,0,0,4.428,1.609l-.055.2a28.318,28.318,0,0,1-4.948-1.851l-.478-.236.532.036a39.556,39.556,0,0,0,7.428-.212,12.582,12.582,0,0,0-2.19-3.478,37.449,37.449,0,0,1-11.656-2.9l.085-.194a36.83,36.83,0,0,0,11.359,2.861,12.479,12.479,0,0,0-19.828,2.111,17.147,17.147,0,0,0-4.234-9.642,40.117,40.117,0,0,1-16.858,2.807,28.29,28.29,0,0,0,4.427,1.609l-.054.2a28.314,28.314,0,0,1-4.948-1.851l-.478-.23.532.036a39.473,39.473,0,0,0,17.233-2.734c-.206-.224-.417-.442-.635-.659-6.829.139-14.269.073-21-2.383A17.179,17.179,0,0,0,917.25,502a39.929,39.929,0,0,0,2.42,12.1,50.642,50.642,0,0,0,2.42,5.831q.708,1.44,1.494,2.782h0a32.655,32.655,0,0,0,2.087,3.127l.417.526a19.339,19.339,0,0,0,2.6,2.692h0a6.592,6.592,0,0,0,.6.46,11.475,11.475,0,0,0,1.663,1.04,7.817,7.817,0,0,0,3.145.853h.26v.03h46.63v-.03h.036a2.373,2.373,0,0,0,.786-.139c1.651-.6,3.17-2.934,4.428-5.9.284-.659.551-1.349.8-2.057s.436-1.258.635-1.905c.6-1.936,1.1-3.926,1.47-5.728a30.455,30.455,0,0,0,.689-5.341A2.975,2.975,0,0,1,989.8,509.938Z" transform="translate(-407.795 -285.108)"/>
    <path id="Path_568" data-name="Path 568" class="cls-1" d="M951.636,487.913A17.118,17.118,0,0,0,931.07,485.6C937.681,487.913,944.94,488.016,951.636,487.913Z" transform="translate(-413.255 -283.455)"/>
    <path id="Path_569" data-name="Path 569" class="cls-1" d="M1018.545,546.081l-7.2-12.466a.23.23,0,0,0-.4,0l-7.2,12.466a.23.23,0,0,0,.2.345h2.147a.23.23,0,0,1,.23.23v2.661a.23.23,0,0,0,.23.23h2.776a.23.23,0,0,0,.23-.23v-1.282a.23.23,0,0,1,.23-.23h2.661a.23.23,0,0,1,.23.23v1.282a.23.23,0,0,0,.23.23h2.8a.23.23,0,0,0,.218-.157.227.227,0,0,0,0-.073v-2.661a.23.23,0,0,1,.23-.23h2.147a.23.23,0,0,0,.236-.345Zm-10.035,1.379a.236.236,0,0,1-.163.067h-1.01a.23.23,0,0,1-.23-.23.213.213,0,0,1,.067-.157.242.242,0,0,1,.163-.073h1.01a.23.23,0,0,1,.23.23A.224.224,0,0,1,1008.51,547.46Zm6.611,0a.224.224,0,0,1-.163.067h-1.01a.23.23,0,0,1-.23-.23.213.213,0,0,1,.067-.157.241.241,0,0,1,.163-.073h1.01a.23.23,0,0,1,.23.23A.222.222,0,0,1,1015.121,547.46Z" transform="translate(-441.961 -303.335)"/>
    <path id="Path_570" data-name="Path 570" class="cls-1" d="M945.659,546.261l-7.2-12.467a.23.23,0,0,0-.4,0l-6.212,10.767a19.366,19.366,0,0,0,2.6,2.692h1.01a.23.23,0,1,1,0,.453h-.423a11.446,11.446,0,0,0,1.664,1.04v-.532a.23.23,0,0,1,.23-.23H939.6a.23.23,0,0,1,.224.23V549.5a.236.236,0,0,0,.23.23h2.807a.23.23,0,0,0,.182-.091.211.211,0,0,0,.042-.139v-2.661a.23.23,0,0,1,.23-.23h2.147a.23.23,0,0,0,.2-.345Zm-4.754,1.059a.21.21,0,0,1,.157-.067h1.01a.23.23,0,1,1,0,.453h-1.01a.23.23,0,0,1-.23-.23.224.224,0,0,1,.073-.157ZM936.38,542.7a.23.23,0,0,1-.23-.23v-1.742a.23.23,0,0,1,.23-.23h3.768a.23.23,0,0,1,.23.23v1.742a.23.23,0,0,1-.23.23Z" transform="translate(-413.563 -303.406)"/>
    <path id="Path_571" data-name="Path 571" class="cls-1" d="M983.41,514.37h-8.9v-1.93a.46.46,0,0,0-.46-.46h-2.625v-2.05a.29.29,0,0,0-.284-.29h-3.369a.29.29,0,0,0-.29.29v2.05H964.4a.46.46,0,0,0-.46.46v1.93h-8.468a.091.091,0,0,0-.091.091v25.574a.1.1,0,0,0,.091.1h5.643a.1.1,0,0,0,.1-.1v-3.442a.091.091,0,0,1,.091-.091h2.383a.1.1,0,0,1,.1.091v3.442a.1.1,0,0,0,.091.1h11.154a.1.1,0,0,0,.1-.1v-3.442a.091.091,0,0,1,.091-.091H977.6a.1.1,0,0,1,.1.091v3.442a.1.1,0,0,0,.091.1h5.65a.1.1,0,0,0,.091-.1V514.461a.091.091,0,0,0-.115-.091ZM960.177,535.3a.1.1,0,0,1-.1.1H956.6a.1.1,0,0,1-.1-.1V534.1a.1.1,0,0,1,.1-.091h3.484a.1.1,0,0,1,.1.091Zm0-3.073a.1.1,0,0,1-.1.091H956.6a.1.1,0,0,1-.1-.091v-1.21a.1.1,0,0,1,.1-.1h3.484a.1.1,0,0,1,.1.1Zm0-3.079a.1.1,0,0,1-.1.1H956.6a.1.1,0,0,1-.1-.1v-1.21a.1.1,0,0,1,.1-.091h3.484a.1.1,0,0,1,.1.091Zm0-3.079a.1.1,0,0,1-.1.1H956.6a.1.1,0,0,1-.1-.1v-1.21a.1.1,0,0,1,.1-.1h3.484a.1.1,0,0,1,.1.1Zm0-3.073a.1.1,0,0,1-.1.091H956.6a.1.1,0,0,1-.1-.091v-1.21a.1.1,0,0,1,.1-.091h3.484a.1.1,0,0,1,.1.091Zm0-3.079a.1.1,0,0,1-.1.1H956.6a.1.1,0,0,1-.1-.1v-1.21a.1.1,0,0,1,.1-.091h3.484a.1.1,0,0,1,.1.091Zm0-3.073a.1.1,0,0,1-.1.091H956.6a.1.1,0,0,1-.1-.091v-1.21a.1.1,0,0,1,.1-.1h3.484a.1.1,0,0,1,.1.1Zm8.281,18.455a.1.1,0,0,1-.091.1h-3.49a.1.1,0,0,1-.091-.1V534.1a.091.091,0,0,1,.091-.091h3.49a.091.091,0,0,1,.091.091Zm0-3.073a.091.091,0,0,1-.091.091h-3.49a.09.09,0,0,1-.091-.091v-1.21a.1.1,0,0,1,.091-.1h3.49a.1.1,0,0,1,.091.1Zm0-3.079a.1.1,0,0,1-.091.1h-3.49a.1.1,0,0,1-.091-.1v-1.21a.091.091,0,0,1,.091-.091h3.49a.091.091,0,0,1,.091.091Zm0-3.079a.1.1,0,0,1-.091.1h-3.49a.1.1,0,0,1-.091-.1v-1.21a.1.1,0,0,1,.091-.1h3.49a.1.1,0,0,1,.091.1Zm0-3.073a.091.091,0,0,1-.091.091h-3.49a.091.091,0,0,1-.091-.091v-1.21a.091.091,0,0,1,.091-.091h3.49a.091.091,0,0,1,.091.091Zm0-3.079a.1.1,0,0,1-.091.1h-3.49a.1.1,0,0,1-.091-.1v-1.21a.091.091,0,0,1,.091-.091h3.49a.091.091,0,0,1,.091.091Zm0-3.073a.091.091,0,0,1-.091.091h-3.49a.09.09,0,0,1-.091-.091v-1.21a.1.1,0,0,1,.091-.1h3.49a.1.1,0,0,1,.091.1Zm5.649,18.455a.1.1,0,0,1-.1.1h-3.484a.1.1,0,0,1-.1-.1V534.1a.1.1,0,0,1,.1-.091h3.484a.1.1,0,0,1,.1.091Zm0-3.073a.1.1,0,0,1-.1.091h-3.484a.1.1,0,0,1-.1-.091v-1.21a.1.1,0,0,1,.1-.1h3.484a.1.1,0,0,1,.1.1Zm0-3.079a.1.1,0,0,1-.1.1h-3.484a.1.1,0,0,1-.1-.1v-1.21a.1.1,0,0,1,.1-.091h3.484a.1.1,0,0,1,.1.091Zm0-3.079a.1.1,0,0,1-.1.1h-3.484a.1.1,0,0,1-.1-.1v-1.21a.1.1,0,0,1,.1-.1h3.484a.1.1,0,0,1,.1.1Zm0-3.073a.1.1,0,0,1-.1.091h-3.484a.1.1,0,0,1-.1-.091v-1.21a.1.1,0,0,1,.1-.091h3.484a.1.1,0,0,1,.1.091Zm0-3.079a.1.1,0,0,1-.1.1h-3.484a.1.1,0,0,1-.1-.1v-1.21a.1.1,0,0,1,.1-.091h3.484a.1.1,0,0,1,.1.091Zm0-3.073a.1.1,0,0,1-.1.091h-3.484a.1.1,0,0,1-.1-.091v-1.21a.1.1,0,0,1,.1-.1h3.484a.1.1,0,0,1,.1.1Zm8.263,18.455a.1.1,0,0,1-.091.1h-3.49a.1.1,0,0,1-.091-.1V534.1a.089.089,0,0,1,.027-.064.09.09,0,0,1,.064-.027h3.49a.091.091,0,0,1,.091.091Zm0-3.073a.091.091,0,0,1-.091.091h-3.49a.091.091,0,0,1-.091-.091v-1.21a.1.1,0,0,1,.091-.1h3.49a.1.1,0,0,1,.091.1Zm0-3.079a.1.1,0,0,1-.091.1h-3.49a.1.1,0,0,1-.091-.1v-1.21a.089.089,0,0,1,.027-.064.09.09,0,0,1,.064-.027h3.49a.091.091,0,0,1,.091.091Zm0-3.079a.1.1,0,0,1-.091.1h-3.49a.1.1,0,0,1-.091-.1v-1.21a.1.1,0,0,1,.091-.1h3.49a.1.1,0,0,1,.091.1Zm0-3.073a.091.091,0,0,1-.091.091h-3.49A.091.091,0,0,1,978.7,523v-1.21a.089.089,0,0,1,.027-.064.09.09,0,0,1,.064-.027h3.49a.091.091,0,0,1,.091.091Zm0-3.079a.1.1,0,0,1-.091.1h-3.49a.1.1,0,0,1-.091-.1v-1.21a.091.091,0,0,1,.091-.091h3.49a.091.091,0,0,1,.091.091Zm0-3.073a.091.091,0,0,1-.091.091h-3.49a.089.089,0,0,1-.064-.026.09.09,0,0,1-.027-.064v-1.21a.1.1,0,0,1,.091-.1h3.49a.1.1,0,0,1,.091.1Z" transform="translate(-422.861 -293.908)"/>
    <path id="Path_572" data-name="Path 572" class="cls-1" d="M955.842,504.258a2.013,2.013,0,0,0-1.161.127,1.706,1.706,0,0,1-.7.145,1.646,1.646,0,0,1-.7-.151,1.978,1.978,0,0,0-1.645.036,1.048,1.048,0,0,1-.472.115c-.666,0-1.21-.671-1.337-1.555a1.243,1.243,0,0,0,.333-.357,1.875,1.875,0,0,1,3.345,0,1.277,1.277,0,0,0,1.107.6h0A1.379,1.379,0,0,1,955.842,504.258Z" transform="translate(-420.668 -290.728)"/>
    <path id="Path_573" data-name="Path 573" class="cls-1" d="M957.887,499.853l-1.077.677.653-1.21a1.058,1.058,0,0,0-.653-.236h0a.91.91,0,0,1-.224,0l-.369.23.157-.284a1.324,1.324,0,0,1-.635-.484l-.653.411.411-.75a1.912,1.912,0,0,0-1.464-.738,2,2,0,0,0-1.669,1.047,1.264,1.264,0,0,1-1.107.6h-.036c-.75,0-1.361.853-1.361,1.9s.605,1.9,1.361,1.9a.991.991,0,0,0,.472-.115,1.954,1.954,0,0,1,1.645,0,1.754,1.754,0,0,0,1.4,0,1.96,1.96,0,0,1,1.627,0,.966.966,0,0,0,.466.115c.75,0,1.361-.847,1.361-1.9A2.417,2.417,0,0,0,957.887,499.853Z" transform="translate(-420.679 -289.099)"/>
    <path id="Path_574" data-name="Path 574" class="cls-8" d="M156.857,681.926a22.379,22.379,0,0,1-.484,4.694c-.06.29-.127.575-.194.853-1.718,6.89-6.563,11.928-12.346,12.249h-.6c-6.115,0-11.287-5.274-12.993-12.539-.048-.193-.091-.387-.133-.6a22.382,22.382,0,0,1-.484-4.694c0-9.841,6.091-17.813,13.61-17.813S156.857,672.085,156.857,681.926Z" transform="translate(-96.582 -354.927)"/>
    <path id="Path_575" data-name="Path 575" class="cls-3" d="M156.873,681.946a22.381,22.381,0,0,1-.484,4.694c-.06.29-.127.575-.194.853h-.6a27.687,27.687,0,0,1-4.452-.6,27.21,27.21,0,0,1-3.968.907,27.752,27.752,0,0,1-3.109.29H143.01a28.081,28.081,0,0,1-3.729-.248,27.325,27.325,0,0,1-5.846-1.451,27.6,27.6,0,0,1-3.157.847c-.048-.194-.091-.387-.133-.6a22.379,22.379,0,0,1-.484-4.694c0-9.841,6.091-17.814,13.61-17.814S156.873,672.1,156.873,681.946Z" transform="translate(-96.597 -354.947)"/>
    <path id="Path_576" data-name="Path 576" class="cls-6" d="M164.593,612.526a27.584,27.584,0,0,0-2.964-12.467l-16.005,4.978,14.051-8.256a27.649,27.649,0,0,0-20.784-11.849,27.59,27.59,0,0,0-2.159-2.855l-22.985,7.156L132.6,578.145A27.661,27.661,0,0,0,89.05,592.9l19.689,22.665L87.381,600.114a27.667,27.667,0,0,0,24.757,48.813,27.774,27.774,0,0,0,17.711.49A27.667,27.667,0,0,0,163.492,622.4c0-.605,0-1.21-.061-1.815A27.668,27.668,0,0,0,164.593,612.526Z" transform="translate(-75.283 -318.716)"/>
    <path id="Path_577" data-name="Path 577" class="cls-3" d="M164.088,643.049a73.88,73.88,0,0,0-25.61-.327c-9.611,1.591-19.435,5.093-28.834,2.535-5.516-1.5-10.283-4.972-15.672-6.9a29.749,29.749,0,0,0-16.18-.968,27.679,27.679,0,0,0,34.29,36.934,27.778,27.778,0,0,0,17.711.49A27.667,27.667,0,0,0,163.435,647.8c0-.6,0-1.21-.061-1.814A27.844,27.844,0,0,0,164.088,643.049Z" transform="translate(-75.256 -344.11)"/>
    <path id="Path_591" data-name="Path 591" class="cls-1" d="M557.158,472.68a.834.834,0,0,0-.442.048.6.6,0,0,1-.532,0,.744.744,0,0,0-.6,0,.369.369,0,0,1-.181.048c-.254,0-.466-.26-.508-.6a.469.469,0,0,0,.127-.139.662.662,0,0,1,1.21,0,.49.49,0,0,0,.417.23h0A.526.526,0,0,1,557.158,472.68Z" transform="translate(-264.617 -278.893)"/>
  </g>
</svg>
