<svg xmlns="http://www.w3.org/2000/svg" width="247.307" height="200" viewBox="0 0 247.307 200">
  <defs>
    <style>
      .cls-1 {
        fill: #fb981f;
      }

      .cls-2 {
        fill: #cf2d46;
      }

      .cls-3 {
        fill: #3f3d56;
      }
    </style>
  </defs>
  <g id="UI-design-small" transform="translate(0 -0.021)">
    <g id="Layer_1" data-name="Layer 1" transform="translate(0 0.021)">
      <path id="Path_708" data-name="Path 708" class="cls-1" d="M40.464,112.358A111.532,111.532,0,0,1,108.687,8.607a110.215,110.215,0,0,1,85.246-.021,111.467,111.467,0,0,1,68.272,103.773l-.185-5.48c-.125-1.823-.314-3.644-.445-5.464-.028-.455-.1-.907-.157-1.359l-.182-1.359-.358-2.715c-.031-.224-.06-.452-.094-.676l-.122-.673-.248-1.349-.5-2.689a112.343,112.343,0,0,0-30.525-56.883l-3.955-3.751c-1.371-1.182-2.732-2.38-4.115-3.546-1.43-1.112-2.823-2.26-4.275-3.353l-2.2-1.58-1.1-.787c-.367-.262-.731-.534-1.117-.771A109.375,109.375,0,0,0,172.845,3.38,109.758,109.758,0,0,0,90.039,19.923,111.805,111.805,0,0,0,42.751,90.591l-.5,2.689-.248,1.349-.122.676c-.038.224-.063.452-.094.676L41.43,98.7l-.179,1.359c-.06.452-.129.9-.157,1.359-.147,1.82-.314,3.641-.445,5.464Z" transform="translate(-27.675 -0.021)"/>
      <path id="Path_709" data-name="Path 709" class="cls-2" d="M476.66,187.886a36.088,36.088,0,0,1,2.247-2.876c.8-.907,1.6-1.817,2.452-2.667s1.716-1.706,2.6-2.528,1.811-1.6,2.721-2.411,1.88-1.526,2.825-2.3,1.947-1.451,2.923-2.18,1.985-1.416,3-2.083,2.019-1.384,3.072-1.988l3.141-1.9c1.052-.632,2.136-1.176,3.208-1.77S507,164,508.1,163.483l3.309-1.609c1.1-.559,2.231-1.014,3.356-1.507l3.4-1.463c2.282-.9,4.585-1.751,6.9-2.632h0l7.584-1.432.265,6.829c.066,1.754.041,3.16,0,4.7s-.126,2.993-.234,4.475c-.205,2.967-.55,5.906-.948,8.823-.215,1.46-.484,2.911-.724,4.361s-.594,2.885-.885,4.32-.676,2.86-1.043,4.279-.73,2.844-1.2,4.225-.86,2.8-1.356,4.171l-1.561,4.108c-.484,1.368-1.179,2.674-1.754,4a36.97,36.97,0,0,1-1.937,3.9l-2.083,3.814c-.762,1.236-1.58,2.437-2.351,3.647l-1.179,1.808-1.327,1.706-2.648,3.385-1.21-.875,2.007-3.688.992-1.83.837-1.918c.55-1.264,1.125-2.528,1.65-3.792l1.359-3.919c.487-1.286.822-2.629,1.179-3.96s.771-2.629,1.008-3.991l.815-4.029c.243-1.346.4-2.711.6-4.061s.338-2.708.455-4.07.272-2.708.316-4.077.152-2.718.149-4.08.022-2.718,0-4.073c-.073-2.711-.205-5.417-.465-8.093-.126-1.34-.269-2.67-.455-3.982s-.392-2.689-.616-3.742l7.847,5.4h0c-2.212.376-4.478.727-6.719,1.128l-3.334.708c-1.112.243-2.241.449-3.331.758l-3.309.86c-1.116.265-2.19.632-3.283.948s-2.212.651-3.271,1.033l-3.23,1.157c-1.093.363-2.124.844-3.2,1.264s-2.127.869-3.16,1.365-2.108.932-3.113,1.479-2.064,1.033-3.059,1.609-2.026,1.112-2.99,1.741-1.963,1.22-2.907,1.9a43.111,43.111,0,0,0-5.417,4.285Z" transform="translate(-327.35 -106.434)"/>
      <path id="Path_710" data-name="Path 710" class="cls-2" d="M189.481,187.886a35.362,35.362,0,0,0-2.247-2.876c-.8-.907-1.6-1.817-2.452-2.667s-1.713-1.706-2.6-2.528-1.811-1.6-2.721-2.411-1.88-1.526-2.825-2.3-1.947-1.451-2.923-2.18-1.981-1.416-3-2.083-2.019-1.384-3.072-1.988l-3.141-1.9c-1.052-.632-2.136-1.176-3.208-1.77s-2.149-1.195-3.255-1.706l-3.309-1.609c-1.1-.559-2.231-1.014-3.356-1.507L148,158.9c-2.282-.9-4.585-1.751-6.9-2.632h0l-7.584-1.432-.265,6.829c-.066,1.754-.041,3.16,0,4.7s.126,2.993.234,4.475c.205,2.967.55,5.906.948,8.823.215,1.46.484,2.911.724,4.361s.594,2.885.885,4.32.676,2.86,1.043,4.279.73,2.844,1.2,4.225.86,2.8,1.356,4.171l1.561,4.108c.484,1.368,1.179,2.674,1.754,4a37.048,37.048,0,0,0,1.915,3.915l2.083,3.814c.762,1.236,1.58,2.437,2.351,3.647l1.179,1.808,1.33,1.706,2.645,3.385,1.21-.875-2-3.7-.992-1.83-.837-1.918c-.55-1.264-1.125-2.528-1.65-3.792l-1.356-3.919a40.716,40.716,0,0,1-1.179-3.96c-.316-1.337-.774-2.629-1.011-3.991l-.812-4.029c-.247-1.346-.4-2.711-.607-4.061s-.338-2.708-.455-4.07-.272-2.708-.316-4.077-.152-2.718-.149-4.08-.022-2.718,0-4.073c.076-2.711.205-5.417.465-8.093.126-1.34.272-2.67.455-3.982s.392-2.689.632-3.742l-7.85,5.4h0c2.228.376,4.478.727,6.719,1.128l3.334.708c1.112.243,2.241.449,3.331.758l3.309.86c1.119.265,2.19.632,3.283.948s2.212.651,3.271,1.033l3.23,1.157c1.093.363,2.124.844,3.195,1.264s2.127.869,3.16,1.365,2.108.932,3.113,1.479,2.064,1.033,3.059,1.609,2.026,1.112,2.99,1.741,1.966,1.22,2.907,1.9a43.108,43.108,0,0,1,5.417,4.285Z" transform="translate(-91.484 -106.434)"/>
      <path id="Path_711" data-name="Path 711" class="cls-3" d="M436.884,350.342c-33.046,24.709-29.759,73.92-29.759,73.92s40.665,9.585,73.724-15.125,46.556-80.48,46.556-80.48S469.926,325.633,436.884,350.342ZM472.815,414.4c-24.106,13.854-50.092,12.214-60.736,10.729.43-11.019,3.574-35.163,22.052-48.983,24.491-18.3,67.065-16.06,67.065-16.06S492.866,394.468,472.815,414.4Z" transform="translate(-280.097 -226.091)"/>
      <path id="Path_712" data-name="Path 712" class="cls-3" d="M90.52,350.342C57.477,325.633,0,328.657,0,328.657s13.513,55.774,46.556,80.48,73.724,15.125,73.724,15.125S123.563,375.051,90.52,350.342ZM54.589,414.4C34.538,394.468,26.2,360.082,26.2,360.082s42.58-2.241,67.059,16.066c18.478,13.813,21.622,37.957,22.052,48.983C104.681,426.61,78.688,428.25,54.589,414.4Z" transform="translate(0 -226.091)"/>
      <path id="Path_713" data-name="Path 713" class="cls-3" d="M303.441,222.96c7.057-18.064,19.776-33.842,41.838-51.445-5.315-39.543-41.838-73.635-41.838-73.635s-36.535,34.092-41.841,73.632C283.652,189.118,296.371,204.9,303.441,222.96Z" transform="translate(-179.776 -67.51)"/>
    </g>
  </g>
</svg>
